{
.appVersion = "3133";
.formatVersion = 3;
DisplayStrings = (
"A/a.ss01 ad/d.001/y.001 y/y.001 -e"
);
axes = (
{
name = Weight;
tag = wght;
}
);
classes = (
{
automatic = 1;
code = "A Aacute Abreve Acircumflex Adieresis Agrave Amacron Aogonek Aring Atilde AE B C Cacute Ccaron Ccedilla Cdotaccent D Eth Dcaron Dcroat E Eacute Ecaron Ecircumflex Edieresis Edotaccent Egrave Emacron Eogonek F G Gbreve Gcommaaccent Gdotaccent H Hbar I Iacute Icircumflex Idieresis Idotaccent Igrave Imacron Iogonek J K Kcommaaccent L Lacute Lcaron Lcommaaccent Lslash M N Nacute Ncaron Ncommaaccent Eng Ntilde O Oacute Ocircumflex Odieresis Ograve Ohungarumlaut Omacron Oslash Otilde OE P Thorn Q R Racute Rcaron Rcommaaccent S Sacute Scaron Scedilla Scommaaccent Germandbls T Tbar Tcaron Tcedilla Tcommaaccent U Uacute Ucircumflex Udieresis Ugrave Uhungarumlaut Umacron Uogonek Uring V W Wacute Wcircumflex Wdieresis Wgrave X Y Yacute Ycircumflex Ydieresis Ygrave Z Zacute Zcaron Zdotaccent A-cy Be-cy Ve-cy Ge-cy Gje-cy Gheupturn-cy De-cy Ie-cy Iegrave-cy Io-cy Zhe-cy Ze-cy Ii-cy Iishort-cy Iigrave-cy Ka-cy Kje-cy El-cy Em-cy En-cy O-cy Pe-cy Er-cy Es-cy Te-cy U-cy Ushort-cy Ef-cy Ha-cy Che-cy Tse-cy Sha-cy Shcha-cy Dzhe-cy Softsign-cy Hardsign-cy Yeru-cy Lje-cy Nje-cy Dze-cy E-cy Ereversed-cy I-cy Yi-cy Je-cy Tshe-cy Iu-cy Ia-cy Dje-cy Ustrait-cy Shha-cy Obarred-cy De-cy.loclBGR Zhe-cy.loclBGR Ka-cy.loclBGR El-cy.loclBGR Alpha Beta Gamma Delta Epsilon Zeta Eta Theta Iota Kappa Lambda Mu Nu Xi Omicron Pi Rho Sigma Tau Upsilon Phi Chi Psi Omega Alphatonos Epsilontonos Etatonos Iotatonos Omicrontonos Upsilontonos Omegatonos Iotadieresis Upsilondieresis";
name = Uppercase;
},
{
automatic = 1;
code = "zero one two three four five six seven eight nine";
name = Digit;
}
);
customParameters = (
{
name = fsType;
value = (
);
},
{
name = "Use Typo Metrics";
value = 1;
},
{
name = blueScale;
value = 0.03796;
}
);
date = "2022-10-20 07:59:29 +0000";
familyName = Charente;
featurePrefixes = (
{

glyphs = (
{
glyphname = A;
kernLeft = A;
kernRight = A;
lastChange = "2020-02-20 18:21:12 +0000";
layers = (
{
layerId = "CAA188E2-8C62-414B-93AE-B576BEB044DB";
shapes = (
{
closed = 1;
nodes = (
(130,0,l),
(638,1402,l),
(578,1402,l),
(1088,0,l),
(1178,0,l),
(654,1440,l),
(564,1440,l),
(40,0,l)
);
},
{
closed = 1;
nodes = (
(976,374,l),
(976,454,l),
(240,454,l),
(240,374,l)
);
}
);
width = 1218;
},
{
layerId = "0DA27741-1AFD-43F2-A947-40AFBF8D6498";
shapes = (
{
closed = 1;
nodes = (
(320,0,l),
(706,1270,l),
(654,1270,l),
(1046,0,l),
(1326,0,l),
(886,1440,l),
(480,1440,l),
(40,0,l)
);
},
{
closed = 1;
nodes = (
(1064,300,l),
(1064,554,l),
(304,554,l),
(304,300,l)
);
}
);
width = 1366;
},
{
associatedMasterId = "0DA27741-1AFD-43F2-A947-40AFBF8D6498";
layerId = "A2873047-0ED6-4C67-9B4D-3870B51BD5C6";
shapes = (
{
closed = 1;
nodes = (
(10,0,l),
(310,0,l),
(366,180,l),
(952,180,l),
(1008,0,l),
(1308,0,l),
(868,1440,l),
(450,1440,l)
);
},
{
closed = 1;
nodes = (
(660,1140,l),
(862,480,l),
(458,480,l)
);
}
);
width = 1318;
},
{
associatedMasterId = "0DA27741-1AFD-43F2-A947-40AFBF8D6498";
layerId = "55314CA7-5524-4D70-B802-98D4FAE25636";
width = 986;
},
{
associatedMasterId = "0DA27741-1AFD-43F2-A947-40AFBF8D6498";
layerId = "13A3DD5D-E91B-4961-8595-F8141D3FA442";
width = 1264;
}
);
note = A;
unicode = 65;
},
{
glyphname = B;
kernLeft = B;
kernRight = B;
lastChange = "2020-02-20 18:21:12 +0000";
layers = (
{
background = {
shapes = (
{
closed = 1;
nodes = (
(686,800,ls),
(774,800,o),
(874,844,o),
(928,924,cs),
(964,976,o),
(982,1038,o),
(982,1100,cs),
(982,1168,o),
(956,1226,o),
(910,1272,cs),
(854,1328,o),
(774,1358,o),
(686,1358,c),
(220,1358,l),
(220,1440,l),
(686,1440,l),
(804,1440,o),
(898,1398,o),
(976,1324,cs),
(1038,1264,o),
(1072,1164,o),
(1072,1080,cs),
(1072,1004,o),
(1046,934,o),
(1002,872,cs),
(934,776,o),
(830,718,o),
(696,718,c),
(220,718,l),
(220,800,l)
);
},
{
closed = 1;
nodes = (
(684,84,l),
(806,84,o),
(884,102,o),
(974,188,cs),
(1028,240,o),
(1052,306,o),
(1052,380,cs),
(1052,450,o),
(1032,520,o),
(992,576,cs),
(936,664,o),
(816,718,o),
(724,718,c),
(220,718,l),
(220,798,l),
(724,798,l),
(868,798,o),
(986,736,o),
(1062,630,cs),
(1118,560,o),
(1148,468,o),
(1142,380,cs),
(1136,292,o),
(1108,198,o),
(1052,136,cs),
(954,30,o),
(866,0,o),
(686,0,c),
(180,0,l),
(180,84,l)
);
},
{
closed = 1;
nodes = (
(224,1440,l),
(224,0,l),
(140,0,l),
(140,1440,l)
);
}
);
};
layerId = "CAA188E2-8C62-414B-93AE-B576BEB044DB";
shapes = (
{
closed = 1;
nodes = (
(724,0,ls),
(958,0,o),
(1144,142,o),
(1144,388,cs),
(1144,592,o),
(1018,728,o),
(828,790,c),
(832,742,l),
(976,794,o),
(1072,934,o),
(1072,1086,cs),
(1072,1296,o),
(894,1440,o),
(686,1440,cs),
(140,1440,l),
(140,0,l)
);
},
{
closed = 1;
nodes = (
(224,718,l),
(724,718,ls),
(904,718,o),
(1052,568,o),
(1052,380,cs),
(1052,192,o),
(892,84,o),
(684,84,cs),
(224,84,l)
);
},
{
closed = 1;
nodes = (
(224,1358,l),
(686,1358,ls),
(852,1358,o),
(982,1252,o),
(982,1092,cs),
(982,928,o),
(848,800,o),
(686,800,cs),
(224,800,l)
);
}
);
width = 1202;
},
{
background = {
shapes = (
{
closed = 1;
nodes = (
(712,878,ls),
(772,878,o),
(808,896,o),
(838,926,cs),
(866,954,o),
(872,992,o),
(872,1030,cs),
(872,1070,o),
(860,1112,o),
(828,1144,cs),
(798,1174,o),
(760,1186,o),
(712,1186,cs),
(390,1186,l),
(390,1440,l),
(714,1440,ls),
(840,1440,o),
(936,1414,o),
(1022,1334,cs),
(1110,1252,o),
(1146,1150,o),
(1148,1030,cs),
(1150,926,o),
(1106,832,o),
(1044,782,cs),
(976,726,o),
(886,704,o),
(794,704,cs),
(350,704,l),
(350,878,l)
);
},
{
closed = 1;
nodes = (
(750,256,ls),
(808,256,o),
(850,274,o),
(886,308,cs),
(922,342,o),
(940,388,o),
(940,440,cs),
(940,488,o),
(926,540,o),
(890,576,cs),
(848,618,o),
(792,624,o),
(750,624,cs),
(376,624,l),
(376,796,l),
(788,796,ls),
(882,796,o),
(1014,776,o),
(1100,704,cs),
(1170,644,o),
(1214,540,o),
(1214,440,cs),
(1214,310,o),
(1180,190,o),
(1090,106,cs),
(1006,28,o),
(920,0,o),
(748,0,cs),
(376,0,l),
(376,256,l)
);
},
{
closed = 1;
nodes = (
(416,1440,l),
(416,0,l),
(140,0,l),
(140,1440,l)
);
}
);
};
layerId = "0DA27741-1AFD-43F2-A947-40AFBF8D6498";
shapes = (
{
closed = 1;
nodes = (
(778,0,ls),
(1072,0,o),
(1214,178,o),
(1214,436,cs),
(1214,596,o),
(1124,740,o),
(944,778,c),
(944,728,l),
(1070,764,o),
(1148,874,o),
(1148,1036,cs),
(1148,1226,o),
(1024,1440,o),
(716,1440,cs),
(140,1440,l),
(140,0,l)
);
},
{
closed = 1;
nodes = (
(416,624,l),
(750,624,ls),
(876,624,o),
(940,548,o),
(940,446,cs),
(940,330,o),
(860,256,o),
(750,256,cs),
(416,256,l)
);
},
{
closed = 1;
nodes = (
(416,1186,l),
(712,1186,ls),
(816,1186,o),
(872,1118,o),
(872,1030,cs),
(872,924,o),
(804,878,o),
(712,878,cs),
(416,878,l)
);
}
);
width = 1274;
},
{
associatedMasterId = "0DA27741-1AFD-43F2-A947-40AFBF8D6498";
layerId = "A2873047-0ED6-4C67-9B4D-3870B51BD5C6";
width = 1200;
},
{
associatedMasterId = "0DA27741-1AFD-43F2-A947-40AFBF8D6498";
layerId = "55314CA7-5524-4D70-B802-98D4FAE25636";
width = 1212;
},
{
associatedMasterId = "0DA27741-1AFD-43F2-A947-40AFBF8D6498";
layerId = "13A3DD5D-E91B-4961-8595-F8141D3FA442";
width = 1202;
}
);
metricLeft = H;
note = B;
unicode = 66;
},
{
glyphname = C;
kernLeft = C;
kernRight = C;
lastChange = "2020-02-20 18:21:12 +0000";
layers = (
{
layerId = "CAA188E2-8C62-414B-93AE-B576BEB044DB";
shapes = (
{
closed = 1;
nodes = (
(1042,-30,o),
(1248,160,o),
(1320,452,c),
(1232,472,l),
(1168,218,o),
(992,54,o),
(706,54,cs),
(336,54,o),
(146,330,o),
(150,720,cs),
(154,1110,o),
(336,1386,o),
(706,1386,cs),
(992,1386,o),
(1168,1222,o),
(1232,968,c),
(1320,988,l),
(1248,1280,o),
(1042,1470,o),
(706,1470,cs),
(276,1470,o),
(60,1160,o),
(60,720,cs),
(60,280,o),
(276,-30,o),
(706,-30,cs)
);
}
);
width = 1400;
},
{
layerId = "0DA27741-1AFD-43F2-A947-40AFBF8D6498";
shapes = (
{
closed = 1;
nodes = (
(1088,-30,o),
(1320,146,o),
(1412,426,c),
(1138,502,l),
(1084,328,o),
(958,226,o),
(758,226,cs),
(484,226,o),
(346,420,o),
(346,720,cs),
(346,1020,o),
(484,1214,o),
(758,1214,cs),
(958,1214,o),
(1084,1112,o),
(1138,938,c),
(1412,1014,l),
(1320,1294,o),
(1088,1470,o),
(758,1470,cs),
(326,1470,o),
(60,1168,o),
(60,720,cs),
(60,272,o),
(326,-30,o),
(758,-30,cs)
);
}
);
width = 1492;
},
{
associatedMasterId = "0DA27741-1AFD-43F2-A947-40AFBF8D6498";
layerId = "A2873047-0ED6-4C67-9B4D-3870B51BD5C6";
width = 1200;
},
{
associatedMasterId = "0DA27741-1AFD-43F2-A947-40AFBF8D6498";
layerId = "55314CA7-5524-4D70-B802-98D4FAE25636";
width = 1436;
},
{
associatedMasterId = "0DA27741-1AFD-43F2-A947-40AFBF8D6498";
layerId = "13A3DD5D-E91B-4961-8595-F8141D3FA442";
width = 1238;
}
);
metricLeft = O;
note = C;
unicode = 67;
},
{
glyphname = D;
kernRight = D;
lastChange = "2020-02-20 18:21:12 +0000";
layers = (
{
background = {
shapes = (
{
closed = 1;
nodes = (
(562,0,ls),
(594,0,o),
(686,0,o),
(754,10,cs),
(1072,56,o),
(1224,350,o),
(1224,720,cs),
(1224,1088,o),
(1072,1384,o),
(754,1430,cs),
(684,1440,o),
(596,1440,o),
(562,1440,cs),
(140,1440,l),
(140,0,l)
);
},
{
closed = 1;
nodes = (
(230,1356,l),
(562,1356,ls),
(626,1356,o),
(696,1352,o),
(740,1344,cs),
(1024,1296,o),
(1134,1048,o),
(1134,720,cs),
(1134,392,o),
(1024,144,o),
(740,96,cs),
(696,88,o),
(626,84,o),
(562,84,cs),
(230,84,l)
);
}
);
};
layerId = "CAA188E2-8C62-414B-93AE-B576BEB044DB";
shapes = (
{
closed = 1;
nodes = (
(562,0,ls),
(594,0,o),
(686,0,o),
(754,10,cs),
(1072,56,o),
(1224,350,o),
(1224,720,cs),
(1224,1088,o),
(1072,1384,o),
(754,1430,cs),
(684,1440,o),
(596,1440,o),
(562,1440,cs),
(140,1440,l),
(140,0,l)
);
},
{
closed = 1;
nodes = (
(230,1356,l),
(562,1356,ls),
(622,1356,o),
(696,1352,o),
(740,1344,cs),
(1024,1296,o),
(1134,1048,o),
(1134,720,cs),
(1134,392,o),
(1024,144,o),
(740,96,cs),
(696,88,o),
(626,84,o),
(562,84,cs),
(230,84,l)
);
}
);
width = 1304;
},
{
background = {
shapes = (
{
closed = 1;
nodes = (
(606,0,ls),
(628,0,o),
(712,0,o),
(778,8,cs),
(1126,50,o),
(1320,354,o),
(1320,720,cs),
(1320,1086,o),
(1126,1390,o),
(778,1432,cs),
(712,1440,o),
(628,1440,o),
(606,1440,cs),
(140,1440,l),
(140,0,l)
);
},
{
closed = 1;
nodes = (
(416,1184,l),
(606,1184,ls),
(642,1184,o),
(712,1184,o),
(762,1174,cs),
(944,1138,o),
(1032,936,o),
(1032,720,cs),
(1032,514,o),
(950,304,o),
(762,266,cs),
(712,256,o),
(642,256,o),
(606,256,cs),
(416,256,l)
);
}
);
};
layerId = "0DA27741-1AFD-43F2-A947-40AFBF8D6498";
shapes = (
{
closed = 1;
nodes = (
(606,0,ls),
(628,0,o),
(712,0,o),
(778,8,cs),
(1126,50,o),
(1320,354,o),
(1320,720,cs),
(1320,1086,o),
(1126,1390,o),
(778,1432,cs),
(712,1440,o),
(628,1440,o),
(606,1440,cs),
(140,1440,l),
(140,0,l)
);
},
{
closed = 1;
nodes = (
(416,1184,l),
(606,1184,ls),
(642,1184,o),
(712,1184,o),
(762,1174,cs),
(944,1138,o),
(1032,936,o),
(1032,720,cs),
(1032,514,o),
(950,304,o),
(762,266,cs),
(712,256,o),
(642,256,o),
(606,256,cs),
(416,256,l)
);
}
);
width = 1420;
},
{
associatedMasterId = "0DA27741-1AFD-43F2-A947-40AFBF8D6498";
layerId = "A2873047-0ED6-4C67-9B4D-3870B51BD5C6";
width = 1200;
},
{
associatedMasterId = "0DA27741-1AFD-43F2-A947-40AFBF8D6498";
layerId = "55314CA7-5524-4D70-B802-98D4FAE25636";
width = 1326;
},
{
associatedMasterId = "0DA27741-1AFD-43F2-A947-40AFBF8D6498";
layerId = "13A3DD5D-E91B-4961-8595-F8141D3FA442";
width = 1220;
}
);
metricLeft = H;
note = D;
unicode = 68;
},
{
glyphname = E;
kernLeft = E;
kernRight = E;
lastChange = "2020-02-22 07:59:31 +0000";
layers = (
{
layerId = "CAA188E2-8C62-414B-93AE-B576BEB044DB";
shapes = (
{
closed = 1;
nodes = (
(1020,0,l),
(1020,84,l),
(224,84,l),
(224,678,l),
(900,678,l),
(900,762,l),
(224,762,l),
(224,1356,l),
(1020,1356,l),
(1020,1440,l),
(140,1440,l),
(140,0,l)
);
}
);
width = 1120;
},
{
layerId = "0DA27741-1AFD-43F2-A947-40AFBF8D6498";
shapes = (
{
closed = 1;
nodes = (
(1080,0,l),
(1080,254,l),
(412,254,l),
(412,624,l),
(960,624,l),
(960,878,l),
(412,878,l),
(412,1186,l),
(1080,1186,l),
(1080,1440,l),
(140,1440,l),
(140,0,l)
);
}
);
width = 1180;
},
{
associatedMasterId = "0DA27741-1AFD-43F2-A947-40AFBF8D6498";
layerId = "A2873047-0ED6-4C67-9B4D-3870B51BD5C6";
width = 1200;
},
{
associatedMasterId = "0DA27741-1AFD-43F2-A947-40AFBF8D6498";
layerId = "55314CA7-5524-4D70-B802-98D4FAE25636";
width = 1126;
},
{
associatedMasterId = "0DA27741-1AFD-43F2-A947-40AFBF8D6498";
layerId = "13A3DD5D-E91B-4961-8595-F8141D3FA442";
width = 1188;
}
);
metricLeft = H;
note = E;
unicode = 69;
},
{
glyphname = F;
lastChange = "2020-02-20 18:21:12 +0000";
layers = (
{
layerId = "CAA188E2-8C62-414B-93AE-B576BEB044DB";
shapes = (
{
closed = 1;
nodes = (
(224,0,l),
(224,678,l),
(820,678,l),
(820,762,l),
(224,762,l),
(224,1356,l),
(940,1356,l),
(940,1440,l),
(140,1440,l),
(140,0,l)
);
}
);
width = 980;
},
{
layerId = "0DA27741-1AFD-43F2-A947-40AFBF8D6498";
shapes = (
{
closed = 1;
nodes = (
(412,0,l),
(412,584,l),
(900,584,l),
(900,856,l),
(412,856,l),
(412,1168,l),
(1020,1168,l),
(1020,1440,l),
(140,1440,l),
(140,0,l)
);
}
);
width = 1060;
},
{
associatedMasterId = "0DA27741-1AFD-43F2-A947-40AFBF8D6498";
layerId = "A2873047-0ED6-4C67-9B4D-3870B51BD5C6";
width = 1200;
},
{
associatedMasterId = "0DA27741-1AFD-43F2-A947-40AFBF8D6498";
layerId = "55314CA7-5524-4D70-B802-98D4FAE25636";
width = 1000;
},
{
associatedMasterId = "0DA27741-1AFD-43F2-A947-40AFBF8D6498";
layerId = "13A3DD5D-E91B-4961-8595-F8141D3FA442";
width = 1168;
}
);
metricLeft = H;
note = F;
unicode = 70;
},
{
glyphname = G;
kernLeft = O;
kernRight = G;
lastChange = "2020-02-20 18:21:12 +0000";
layers = (
{
layerId = "CAA188E2-8C62-414B-93AE-B576BEB044DB";
shapes = (
{
closed = 1;
nodes = (
(1132,-30,o),
(1314,258,o),
(1314,634,cs),
(1314,652,o),
(1314,682,o),
(1310,720,c),
(840,720,l),
(840,636,l),
(1224,636,l),
(1224,290,o),
(1076,54,o),
(706,54,cs),
(336,54,o),
(146,330,o),
(150,720,cs),
(154,1110,o),
(336,1384,o),
(706,1384,cs),
(932,1384,o),
(1092,1268,o),
(1162,1088,c),
(1244,1122,l),
(1166,1326,o),
(980,1468,o),
(706,1468,cs),
(276,1468,o),
(60,1160,o),
(60,720,cs),
(60,280,o),
(276,-30,o),
(706,-30,cs)
);
}
);
width = 1374;
},
{
layerId = "0DA27741-1AFD-43F2-A947-40AFBF8D6498";
shapes = (
{
closed = 1;
nodes = (
(1156,-30,o),
(1422,264,o),
(1422,678,cs),
(1422,684,o),
(1420,744,o),
(1418,762,c),
(900,762,l),
(900,552,l),
(1128,552,l),
(1084,324,o),
(944,222,o),
(758,226,cs),
(484,230,o),
(348,420,o),
(348,720,cs),
(348,1020,o),
(484,1218,o),
(758,1214,cs),
(942,1212,o),
(1060,1104,o),
(1112,936,c),
(1390,976,l),
(1318,1290,o),
(1110,1470,o),
(740,1470,cs),
(364,1470,o),
(60,1198,o),
(60,720,cs),
(60,232,o),
(376,-30,o),
(740,-30,cs)
);
}
);
width = 1482;
},
{
associatedMasterId = "0DA27741-1AFD-43F2-A947-40AFBF8D6498";
layerId = "A2873047-0ED6-4C67-9B4D-3870B51BD5C6";
width = 1200;
},
{
associatedMasterId = "0DA27741-1AFD-43F2-A947-40AFBF8D6498";
layerId = "55314CA7-5524-4D70-B802-98D4FAE25636";
width = 1466;
},
{
associatedMasterId = "0DA27741-1AFD-43F2-A947-40AFBF8D6498";
layerId = "13A3DD5D-E91B-4961-8595-F8141D3FA442";
width = 1242;
}
);
metricLeft = O;
metricRight = O;
note = G;
unicode = 71;
},
{
glyphname = H;
kernLeft = M;
kernRight = M;
lastChange = "2021-12-21 12:28:54 +0000";
layers = (
{
layerId = "CAA188E2-8C62-414B-93AE-B576BEB044DB";
shapes = (
{
closed = 1;
nodes = (
(224,0,l),
(224,678,l),
(1096,678,l),
(1096,0,l),
(1180,0,l),
(1180,1440,l),
(1096,1440,l),
(1096,762,l),
(224,762,l),
(224,1440,l),
(140,1440,l),
(140,0,l)
);
}
);
width = 1320;
},
{
layerId = "0DA27741-1AFD-43F2-A947-40AFBF8D6498";
shapes = (
{
closed = 1;
nodes = (
(412,0,l),
(412,594,l),
(1056,594,l),
(1056,0,l),
(1328,0,l),
(1328,1440,l),
(1056,1440,l),
(1056,848,l),
(412,848,l),
(412,1440,l),
(140,1440,l),
(140,0,l)
);
}
);
width = 1468;
},
{
associatedMasterId = "0DA27741-1AFD-43F2-A947-40AFBF8D6498";
layerId = "A2873047-0ED6-4C67-9B4D-3870B51BD5C6";
width = 1200;
},
{
associatedMasterId = "0DA27741-1AFD-43F2-A947-40AFBF8D6498";
layerId = "55314CA7-5524-4D70-B802-98D4FAE25636";
width = 1450;
},
{
associatedMasterId = "0DA27741-1AFD-43F2-A947-40AFBF8D6498";
layerId = "13A3DD5D-E91B-4961-8595-F8141D3FA442";
width = 1240;
}
);
note = H;
unicode = 72;
},
{
glyphname = I;
kernLeft = n;
kernRight = u;
lastChange = "2020-02-20 18:21:12 +0000";
layers = (
{
layerId = "CAA188E2-8C62-414B-93AE-B576BEB044DB";
shapes = (
{
closed = 1;
nodes = (
(244,0,l),
(244,1440,l),
(160,1440,l),
(160,0,l)
);
}
);
width = 404;
},
{
hints = (
{
horizontal = 1;
origin = (0,3);
target = up;
type = BottomGhost;
},
{
horizontal = 1;
origin = (0,2);
target = down;
type = TopGhost;
},
{
place = (140, 280);
place = (140, 280);
type = Stem;
}
);
layerId = "0DA27741-1AFD-43F2-A947-40AFBF8D6498";
shapes = (
{
closed = 1;
nodes = (
(432,0,l),
(432,1440,l),
(160,1440,l),
(160,0,l)
);
}
);
width = 592;
},
{
associatedMasterId = "0DA27741-1AFD-43F2-A947-40AFBF8D6498";
layerId = "A2873047-0ED6-4C67-9B4D-3870B51BD5C6";
width = 1200;
},
{
associatedMasterId = "0DA27741-1AFD-43F2-A947-40AFBF8D6498";
layerId = "55314CA7-5524-4D70-B802-98D4FAE25636";
width = 426;
},
{
associatedMasterId = "0DA27741-1AFD-43F2-A947-40AFBF8D6498";
layerId = "13A3DD5D-E91B-4961-8595-F8141D3FA442";
width = 1076;
}
);
note = I;
unicode = 73;
},
{
glyphname = J;
kernLeft = J;
kernRight = J;
lastChange = "2020-02-20 18:21:12 +0000";
layers = (
{
layerId = "CAA188E2-8C62-414B-93AE-B576BEB044DB";
shapes = (
{
closed = 1;
nodes = (
(490,-28,o),
(606,30,o),
(670,142,cs),
(720,230,o),
(716,314,o),
(716,424,cs),
(716,1440,l),
(632,1440,l),
(632,424,ls),
(632,320,o),
(632,252,o),
(596,186,cs),
(544,92,o),
(448,56,o),
(362,56,cs),
(222,56,o),
(116,148,o),
(86,270,c),
(0,250,l),
(40,82,o),
(184,-28,o),
(358,-28,cs)
);
}
);
width = 878;
},
{
layerId = "0DA27741-1AFD-43F2-A947-40AFBF8D6498";
shapes = (
{
closed = 1;
nodes = (
(600,-30,o),
(736,30,o),
(818,172,cs),
(874,268,o),
(866,342,o),
(866,480,cs),
(866,1440,l),
(590,1440,l),
(590,480,ls),
(590,406,o),
(590,350,o),
(574,312,cs),
(548,250,o),
(480,224,o),
(430,224,cs),
(356,224,o),
(280,286,o),
(268,360,c),
(0,296,l),
(62,96,o),
(212,-30,o),
(442,-30,cs)
);
}
);
width = 1026;
},
{
associatedMasterId = "0DA27741-1AFD-43F2-A947-40AFBF8D6498";
layerId = "A2873047-0ED6-4C67-9B4D-3870B51BD5C6";
width = 1200;
},
{
associatedMasterId = "0DA27741-1AFD-43F2-A947-40AFBF8D6498";
layerId = "55314CA7-5524-4D70-B802-98D4FAE25636";
width = 830;
},
{
associatedMasterId = "0DA27741-1AFD-43F2-A947-40AFBF8D6498";
layerId = "13A3DD5D-E91B-4961-8595-F8141D3FA442";
width = 1140;
}
);
note = J;
unicode = 74;
},
{
glyphname = K;
kernLeft = H;
kernRight = K;
lastChange = "2020-02-20 18:21:12 +0000";
layers = (
{
layerId = "CAA188E2-8C62-414B-93AE-B576BEB044DB";
shapes = (
{
closed = 1;
nodes = (
(224,0,l),
(224,752,l),
(1000,0,l),
(1116,0,l),
(346,752,l),
(1052,1440,l),
(936,1440,l),
(224,752,l),
(224,1440,l),
(140,1440,l),
(140,0,l)
);
}
);
width = 1116;
},
{
layerId = "0DA27741-1AFD-43F2-A947-40AFBF8D6498";
shapes = (
{
closed = 1;
nodes = (
(412,0,l),
(412,656,l),
(986,0,l),
(1330,0,l),
(690,730,l),
(1292,1440,l),
(960,1440,l),
(412,776,l),
(412,1440,l),
(140,1440,l),
(140,0,l)
);
}
);
width = 1330;
},
{
associatedMasterId = "0DA27741-1AFD-43F2-A947-40AFBF8D6498";
layerId = "A2873047-0ED6-4C67-9B4D-3870B51BD5C6";
width = 1200;
},
{
associatedMasterId = "0DA27741-1AFD-43F2-A947-40AFBF8D6498";
layerId = "55314CA7-5524-4D70-B802-98D4FAE25636";
width = 1168;
},
{
associatedMasterId = "0DA27741-1AFD-43F2-A947-40AFBF8D6498";
layerId = "13A3DD5D-E91B-4961-8595-F8141D3FA442";
width = 1194;
}
);
metricLeft = H;
note = K;
unicode = 75;
},
{
glyphname = L;
kernRight = L;
lastChange = "2020-02-20 18:21:12 +0000";
layers = (
{
layerId = "CAA188E2-8C62-414B-93AE-B576BEB044DB";
shapes = (
{
closed = 1;
nodes = (
(960,0,l),
(960,84,l),
(244,84,l),
(244,1440,l),
(160,1440,l),
(160,0,l)
);
}
);
width = 990;
},
{
layerId = "0DA27741-1AFD-43F2-A947-40AFBF8D6498";
shapes = (
{
closed = 1;
nodes = (
(1052,0,l),
(1052,254,l),
(432,254,l),
(432,1440,l),
(160,1440,l),
(160,0,l)
);
}
);
width = 1082;
},
{
associatedMasterId = "0DA27741-1AFD-43F2-A947-40AFBF8D6498";
layerId = "A2873047-0ED6-4C67-9B4D-3870B51BD5C6";
width = 1200;
},
{
associatedMasterId = "0DA27741-1AFD-43F2-A947-40AFBF8D6498";
layerId = "55314CA7-5524-4D70-B802-98D4FAE25636";
width = 862;
},
{
associatedMasterId = "0DA27741-1AFD-43F2-A947-40AFBF8D6498";
layerId = "13A3DD5D-E91B-4961-8595-F8141D3FA442";
width = 1146;
}
);
note = L;
unicode = 76;
},
{
glyphname = M;
kernLeft = M;
kernRight = M;
lastChange = "2020-02-20 18:21:12 +0000";
layers = (
{
layerId = "CAA188E2-8C62-414B-93AE-B576BEB044DB";
shapes = (
{
closed = 1;
nodes = (
(224,0,l),
(224,1238,l),
(784,0,l),
(878,0,l),
(1438,1238,l),
(1438,2,l),
(1522,2,l),
(1522,1440,l),
(1438,1440,l),
(832,102,l),
(220,1440,l),
(140,1440,l),
(140,0,l)
);
}
);
width = 1662;
},
{
layerId = "0DA27741-1AFD-43F2-A947-40AFBF8D6498";
shapes = (
{
closed = 1;
nodes = (
(394,0,l),
(394,860,l),
(812,0,l),
(908,0,l),
(1326,860,l),
(1326,0,l),
(1580,0,l),
(1580,1440,l),
(1336,1440,l),
(860,484,l),
(384,1440,l),
(140,1440,l),
(140,0,l)
);
}
);
width = 1720;
},
{
associatedMasterId = "0DA27741-1AFD-43F2-A947-40AFBF8D6498";
layerId = "A2873047-0ED6-4C67-9B4D-3870B51BD5C6";
width = 1200;
},
{
associatedMasterId = "0DA27741-1AFD-43F2-A947-40AFBF8D6498";
layerId = "55314CA7-5524-4D70-B802-98D4FAE25636";
width = 1828;
},
{
associatedMasterId = "0DA27741-1AFD-43F2-A947-40AFBF8D6498";
layerId = "13A3DD5D-E91B-4961-8595-F8141D3FA442";
width = 1300;
}
);
metricLeft = H;
metricRight = H;
note = M;
unicode = 77;
},
{
glyphname = N;
kernLeft = M;
kernRight = M;
lastChange = "2020-02-20 18:21:12 +0000";
layers = (
{
layerId = "CAA188E2-8C62-414B-93AE-B576BEB044DB";
shapes = (
{
closed = 1;
nodes = (
(224,0,l),
(224,1292,l),
(1100,0,l),
(1184,0,l),
(1184,1440,l),
(1100,1440,l),
(1100,150,l),
(224,1440,l),
(140,1440,l),
(140,0,l)
);
}
);
width = 1324;
},
{
layerId = "0DA27741-1AFD-43F2-A947-40AFBF8D6498";
shapes = (
{
closed = 1;
nodes = (
(416,0,l),
(416,960,l),
(1042,0,l),
(1318,0,l),
(1318,1440,l),
(1042,1440,l),
(1042,480,l),
(416,1440,l),
(140,1440,l),
(140,0,l)
);
}
);
width = 1458;
},
{
associatedMasterId = "0DA27741-1AFD-43F2-A947-40AFBF8D6498";
layerId = "A2873047-0ED6-4C67-9B4D-3870B51BD5C6";
width = 1200;
},
{
associatedMasterId = "0DA27741-1AFD-43F2-A947-40AFBF8D6498";
layerId = "55314CA7-5524-4D70-B802-98D4FAE25636";
width = 1450;
},
{
associatedMasterId = "0DA27741-1AFD-43F2-A947-40AFBF8D6498";
layerId = "13A3DD5D-E91B-4961-8595-F8141D3FA442";
width = 1240;
}
);
metricLeft = H;
metricRight = H;
note = N;
unicode = 78;
},
{
glyphname = O;
kernLeft = O;
kernRight = O;
lastChange = "2020-02-20 18:21:12 +0000";
layers = (
{
layerId = "CAA188E2-8C62-414B-93AE-B576BEB044DB";
shapes = (
{
closed = 1;
nodes = (
(1136,-30,o),
(1352,280,o),
(1352,720,cs),
(1352,1160,o),
(1136,1470,o),
(706,1470,cs),
(276,1470,o),
(60,1160,o),
(60,720,cs),
(60,280,o),
(276,-30,o),
(706,-30,cs)
);
},
{
closed = 1;
nodes = (
(336,54,o),
(146,330,o),
(150,720,cs),
(154,1110,o),
(336,1386,o),
(706,1386,cs),
(1076,1386,o),
(1262,1110,o),
(1262,720,cs),
(1262,330,o),
(1076,54,o),
(706,54,cs)
);
}
);
width = 1412;
},
{
layerId = "0DA27741-1AFD-43F2-A947-40AFBF8D6498";
shapes = (
{
closed = 1;
nodes = (
(1190,-30,o),
(1456,272,o),
(1456,720,cs),
(1456,1168,o),
(1190,1470,o),
(758,1470,cs),
(326,1470,o),
(60,1168,o),
(60,720,cs),
(60,272,o),
(326,-30,o),
(758,-30,cs)
);
},
{
closed = 1;
nodes = (
(484,230,o),
(348,420,o),
(348,720,cs),
(348,1020,o),
(484,1218,o),
(758,1214,cs),
(1032,1210,o),
(1168,1020,o),
(1168,720,cs),
(1168,420,o),
(1032,222,o),
(758,226,cs)
);
}
);
width = 1516;
},
{
associatedMasterId = "0DA27741-1AFD-43F2-A947-40AFBF8D6498";
layerId = "A2873047-0ED6-4C67-9B4D-3870B51BD5C6";
width = 1200;
},
{
associatedMasterId = "0DA27741-1AFD-43F2-A947-40AFBF8D6498";
layerId = "55314CA7-5524-4D70-B802-98D4FAE25636";
width = 1468;
},
{
associatedMasterId = "0DA27741-1AFD-43F2-A947-40AFBF8D6498";
layerId = "13A3DD5D-E91B-4961-8595-F8141D3FA442";
width = 1242;
}
);
unicode = 79;
},
{
glyphname = P;
lastChange = "2020-02-20 18:21:12 +0000";
layers = (
{
layerId = "CAA188E2-8C62-414B-93AE-B576BEB044DB";
shapes = (
{
closed = 1;
nodes = (
(224,0,l),
(224,576,l),
(670,576,ls),
(698,576,o),
(726,578,o),
(762,584,cs),
(970,616,o),
(1102,792,o),
(1102,1008,cs),
(1102,1224,o),
(970,1400,o),
(762,1432,cs),
(726,1438,o),
(698,1440,o),
(670,1440,cs),
(140,1440,l),
(140,0,l)
);
},
{
closed = 1;
nodes = (
(224,1356,l),
(670,1356,ls),
(692,1356,o),
(726,1354,o),
(758,1348,cs),
(924,1316,o),
(1012,1170,o),
(1012,1008,cs),
(1012,846,o),
(924,700,o),
(758,668,cs),
(726,662,o),
(692,660,o),
(670,660,cs),
(224,660,l)
);
}
);
width = 1162;
},
{
layerId = "0DA27741-1AFD-43F2-A947-40AFBF8D6498";
shapes = (
{
closed = 1;
nodes = (
(412,0,l),
(412,488,l),
(748,488,ls),
(774,488,o),
(830,490,o),
(868,496,cs),
(1124,536,o),
(1240,722,o),
(1240,964,cs),
(1240,1206,o),
(1126,1392,o),
(868,1432,cs),
(830,1438,o),
(776,1440,o),
(748,1440,cs),
(140,1440,l),
(140,0,l)
);
},
{
closed = 1;
nodes = (
(412,1186,l),
(736,1186,ls),
(764,1186,o),
(800,1184,o),
(828,1176,cs),
(938,1146,o),
(966,1042,o),
(966,964,cs),
(966,886,o),
(938,782,o),
(828,752,cs),
(800,744,o),
(764,742,o),
(736,742,cs),
(412,742,l)
);
}
);
width = 1300;
},
{
associatedMasterId = "0DA27741-1AFD-43F2-A947-40AFBF8D6498";
layerId = "A2873047-0ED6-4C67-9B4D-3870B51BD5C6";
width = 1200;
},
{
associatedMasterId = "0DA27741-1AFD-43F2-A947-40AFBF8D6498";
layerId = "55314CA7-5524-4D70-B802-98D4FAE25636";
width = 1128;
},
{
associatedMasterId = "0DA27741-1AFD-43F2-A947-40AFBF8D6498";
layerId = "13A3DD5D-E91B-4961-8595-F8141D3FA442";
width = 1188;
}
);
metricLeft = H;
note = P;
unicode = 80;
},
{
glyphname = Q;
kernLeft = O;
kernRight = O;
lastChange = "2020-02-20 18:21:12 +0000";
layers = (
{
layerId = "CAA188E2-8C62-414B-93AE-B576BEB044DB";
shapes = (
{
closed = 1;
nodes = (
(1338,38,l),
(974,402,l),
(908,336,l),
(1274,-28,l)
);
},
{
ref = O;
}
);
width = 1412;
},
{
layerId = "0DA27741-1AFD-43F2-A947-40AFBF8D6498";
shapes = (
{
closed = 1;
nodes = (
(1432,138,l),
(1014,556,l),
(846,388,l),
(1266,-30,l)
);
},
{
ref = O;
}
);
width = 1516;
},
{
associatedMasterId = "0DA27741-1AFD-43F2-A947-40AFBF8D6498";
layerId = "A2873047-0ED6-4C67-9B4D-3870B51BD5C6";
width = 1200;
},
{
associatedMasterId = "0DA27741-1AFD-43F2-A947-40AFBF8D6498";
layerId = "55314CA7-5524-4D70-B802-98D4FAE25636";
width = 1468;
},
{
associatedMasterId = "0DA27741-1AFD-43F2-A947-40AFBF8D6498";
layerId = "13A3DD5D-E91B-4961-8595-F8141D3FA442";
width = 1242;
}
);
metricLeft = O;
metricRight = O;
note = Q;
unicode = 81;
},
{
glyphname = R;
kernLeft = P;
kernRight = R;
lastChange = "2020-03-09 05:30:34 +0000";
layers = (
{
background = {
shapes = (
{
closed = 1;
nodes = (
(224,0,l),
(224,576,l),
(670,576,ls),
(698,576,o),
(726,578,o),
(762,584,cs),
(970,616,o),
(1102,792,o),
(1102,1008,cs),
(1102,1224,o),
(970,1400,o),
(762,1432,cs),
(726,1438,o),
(698,1440,o),
(670,1440,cs),
(140,1440,l),
(140,0,l)
);
},
{
closed = 1;
nodes = (
(1142,0,l),
(830,640,l),
(758,586,l),
(1042,0,l)
);
},
{
closed = 1;
nodes = (
(224,1356,l),
(670,1356,ls),
(692,1356,o),
(726,1354,o),
(758,1348,cs),
(924,1316,o),
(1012,1170,o),
(1012,1008,cs),
(1012,846,o),
(924,700,o),
(758,668,cs),
(726,662,o),
(692,660,o),
(670,660,cs),
(224,660,l)
);
}
);
};
layerId = "CAA188E2-8C62-414B-93AE-B576BEB044DB";
shapes = (
{
closed = 1;
nodes = (
(224,0,l),
(224,576,l),
(774,576,l),
(790,590,l),
(982,632,o),
(1102,802,o),
(1102,1008,cs),
(1102,1224,o),
(970,1400,o),
(762,1432,cs),
(726,1438,o),
(698,1440,o),
(670,1440,cs),
(140,1440,l),
(140,0,l)
);
},
{
closed = 1;
nodes = (
(1142,0,l),
(830,640,l),
(758,586,l),
(1042,0,l)
);
},
{
closed = 1;
nodes = (
(224,1356,l),
(670,1356,ls),
(692,1356,o),
(726,1354,o),
(758,1348,cs),
(924,1316,o),
(1012,1170,o),
(1012,1008,cs),
(1012,846,o),
(924,700,o),
(758,668,cs),
(726,662,o),
(692,660,o),
(670,660,cs),
(224,660,l)
);
}
);
width = 1222;
},
{
layerId = "0DA27741-1AFD-43F2-A947-40AFBF8D6498";
shapes = (
{
closed = 1;
nodes = (
(412,0,l),
(412,488,l),
(748,488,l),
(868,496,l),
(1124,536,o),
(1240,722,o),
(1240,964,cs),
(1240,1206,o),
(1126,1392,o),
(868,1432,cs),
(830,1438,o),
(776,1440,o),
(748,1440,cs),
(140,1440,l),
(140,0,l)
);
},
{
closed = 1;
nodes = (
(1260,0,l),
(948,640,l),
(668,586,l),
(952,0,l)
);
},
{
closed = 1;
nodes = (
(412,1186,l),
(736,1186,ls),
(764,1186,o),
(800,1184,o),
(828,1176,cs),
(938,1146,o),
(966,1042,o),
(966,964,cs),
(966,886,o),
(938,782,o),
(828,752,cs),
(800,744,o),
(764,742,o),
(736,742,cs),
(412,742,l)
);
}
);
width = 1340;
},
{
associatedMasterId = "0DA27741-1AFD-43F2-A947-40AFBF8D6498";
layerId = "A2873047-0ED6-4C67-9B4D-3870B51BD5C6";
width = 1200;
},
{
associatedMasterId = "0DA27741-1AFD-43F2-A947-40AFBF8D6498";
layerId = "55314CA7-5524-4D70-B802-98D4FAE25636";
width = 1102;
},
{
associatedMasterId = "0DA27741-1AFD-43F2-A947-40AFBF8D6498";
layerId = "13A3DD5D-E91B-4961-8595-F8141D3FA442";
width = 1184;
}
);
metricLeft = H;
note = R;
unicode = 82;
},
{
glyphname = S;
kernLeft = S;
kernRight = S;
lastChange = "2020-02-20 18:21:12 +0000";
layers = (
{
background = {
shapes = (
{
closed = 1;
nodes = (
(1086,1226,o),
(994,1326,o),
(890,1392,cs),
(808,1444,o),
(680,1470,o),
(576,1470,cs),
(486,1470,o),
(384,1450,o),
(302,1402,cs),
(190,1336,o),
(116,1222,o),
(116,1084,cs),
(116,1002,o),
(146,926,o),
(212,866,cs),
(290,794,o),
(382,772,o),
(470,746,cs),
(732,668,ls),
(824,640,o),
(910,616,o),
(970,554,cs),
(1016,508,o),
(1036,442,o),
(1036,382,cs),
(1036,268,o),
(988,190,o),
(910,134,cs),
(834,78,o),
(720,54,o),
(612,54,cs),
(464,54,o),
(352,98,o),
(262,178,cs),
(194,238,o),
(162,306,o),
(144,374,c),
(60,358,l),
(76,282,o),
(114,202,o),
(176,136,cs),
(296,12,o),
(464,-30,o),
(610,-30,cs),
(756,-30,o),
(866,-2,o),
(964,66,cs),
(1062,134,o),
(1118,248,o),
(1118,382,cs),
(1118,476,o),
(1094,550,o),
(1026,618,cs),
(954,688,o),
(850,724,o),
(756,752,cs),
(494,830,ls),
(402,858,o),
(330,884,o),
(270,936,cs),
(222,978,o),
(206,1046,o),
(206,1090,cs),
(206,1208,o),
(278,1282,o),
(346,1326,cs),
(412,1368,o),
(496,1386,o),
(578,1386,cs),
(664,1386,o),
(764,1362,o),
(832,1324,cs),
(932,1268,o),
(1006,1180,o),
(1028,1034,c),
(1112,1050,l)
);
}
);
};
layerId = "CAA188E2-8C62-414B-93AE-B576BEB044DB";
shapes = (
{
closed = 1;
nodes = (
(922,-30,o),
(1118,128,o),
(1118,376,cs),
(1118,640,o),
(894,710,o),
(792,740,cs),
(494,830,ls),
(372,866,o),
(206,922,o),
(206,1094,cs),
(206,1258,o),
(360,1386,o),
(586,1386,cs),
(822,1386,o),
(1000,1244,o),
(1028,1034,c),
(1112,1050,l),
(1076,1304,o),
(868,1470,o),
(586,1470,cs),
(308,1470,o),
(116,1312,o),
(116,1092,cs),
(116,940,o),
(206,824,o),
(414,762,cs),
(774,654,ls),
(868,626,o),
(1036,570,o),
(1036,376,cs),
(1036,182,o),
(870,54,o),
(618,54,cs),
(376,54,o),
(196,176,o),
(144,374,c),
(60,358,l),
(112,120,o),
(326,-30,o),
(618,-30,cs)
);
}
);
width = 1178;
},
{
background = {
shapes = (
{
closed = 1;
nodes = (
(1206,1224,o),
(1098,1334,o),
(976,1400,cs),
(880,1452,o),
(772,1468,o),
(674,1470,cs),
(540,1470,o),
(404,1442,o),
(300,1366,cs),
(202,1294,o),
(136,1180,o),
(136,1048,cs),
(136,942,o),
(160,850,o),
(240,774,cs),
(310,706,o),
(410,676,o),
(536,640,cs),
(804,562,ls),
(860,546,o),
(900,532,o),
(932,504,cs),
(962,478,o),
(976,442,o),
(976,404,cs),
(976,364,o),
(956,320,o),
(910,284,cs),
(858,244,o),
(770,224,o),
(694,224,cs),
(598,224,o),
(506,266,o),
(444,330,cs),
(400,374,o),
(374,440,o),
(364,482,c),
(80,440,l),
(94,348,o),
(128,252,o),
(206,164,cs),
(330,26,o),
(492,-30,o),
(684,-30,cs),
(848,-30,o),
(996,4,o),
(1114,108,cs),
(1202,186,o),
(1262,286,o),
(1262,396,cs),
(1262,522,o),
(1244,602,o),
(1166,684,cs),
(1112,742,o),
(994,794,o),
(864,830,cs),
(614,898,ls),
(536,920,o),
(476,946,o),
(450,976,cs),
(428,1000,o),
(422,1028,o),
(422,1056,cs),
(422,1104,o),
(456,1148,o),
(500,1174,cs),
(544,1200,o),
(602,1216,o),
(670,1214,cs),
(736,1214,o),
(794,1192,o),
(840,1162,cs),
(896,1124,o),
(942,1062,o),
(956,996,c),
(1250,1046,l)
);
}
);
};
layerId = "0DA27741-1AFD-43F2-A947-40AFBF8D6498";
shapes = (
{
closed = 1;
nodes = (
(978,-30,o),
(1262,118,o),
(1262,428,cs),
(1262,718,o),
(1012,790,o),
(864,830,cs),
(614,898,ls),
(522,922,o),
(422,958,o),
(422,1052,cs),
(422,1154,o),
(542,1218,o),
(670,1214,cs),
(800,1210,o),
(924,1136,o),
(956,996,c),
(1250,1046,l),
(1180,1316,o),
(972,1464,o),
(674,1468,cs),
(378,1470,o),
(136,1328,o),
(136,1038,cs),
(136,764,o),
(350,694,o),
(462,662,cs),
(836,552,ls),
(948,518,o),
(976,466,o),
(976,408,cs),
(976,288,o),
(836,224,o),
(702,224,cs),
(542,224,o),
(404,316,o),
(364,482,c),
(80,440,l),
(124,148,o),
(364,-30,o),
(684,-30,cs)
);
}
);
width = 1342;
},
{
associatedMasterId = "0DA27741-1AFD-43F2-A947-40AFBF8D6498";
layerId = "A2873047-0ED6-4C67-9B4D-3870B51BD5C6";
width = 1200;
},
{
associatedMasterId = "0DA27741-1AFD-43F2-A947-40AFBF8D6498";
layerId = "55314CA7-5524-4D70-B802-98D4FAE25636";
width = 1232;
},
{
associatedMasterId = "0DA27741-1AFD-43F2-A947-40AFBF8D6498";
layerId = "13A3DD5D-E91B-4961-8595-F8141D3FA442";
width = 1206;
}
);
note = S;
unicode = 83;
},
{
glyphname = T;
kernLeft = T;
kernRight = T;
lastChange = "2020-03-06 05:47:16 +0000";
layers = (
{
layerId = "CAA188E2-8C62-414B-93AE-B576BEB044DB";
shapes = (
{
closed = 1;
nodes = (
(632,0,l),
(632,1356,l),
(1160,1356,l),
(1160,1440,l),
(20,1440,l),
(20,1356,l),
(548,1356,l),
(548,0,l)
);
}
);
width = 1180;
},
{
layerId = "0DA27741-1AFD-43F2-A947-40AFBF8D6498";
shapes = (
{
closed = 1;
nodes = (
(746,0,l),
(746,1186,l),
(1200,1186,l),
(1200,1440,l),
(20,1440,l),
(20,1186,l),
(474,1186,l),
(474,0,l)
);
}
);
width = 1220;
},
{
associatedMasterId = "0DA27741-1AFD-43F2-A947-40AFBF8D6498";
layerId = "A2873047-0ED6-4C67-9B4D-3870B51BD5C6";
width = 1200;
},
{
associatedMasterId = "0DA27741-1AFD-43F2-A947-40AFBF8D6498";
layerId = "55314CA7-5524-4D70-B802-98D4FAE25636";
width = 1026;
},
{
associatedMasterId = "0DA27741-1AFD-43F2-A947-40AFBF8D6498";
layerId = "13A3DD5D-E91B-4961-8595-F8141D3FA442";
width = 1172;
}
);
note = T;
unicode = 84;
},
{
glyphname = U;
kernLeft = U;
kernRight = U;
lastChange = "2020-02-20 18:21:12 +0000";
layers = (
{
background = {
shapes = (
{
closed = 1;
nodes = (
(1156,1440,l),
(1156,610,ls),
(1156,524,o),
(1152,452,o),
(1136,386,cs),
(1090,194,o),
(902,50,o),
(690,50,cs),
(478,50,o),
(290,194,o),
(244,386,cs),
(228,452,o),
(224,524,o),
(224,610,cs),
(224,1440,l),
(140,1440,l),
(140,506,ls),
(140,426,o),
(152,356,o),
(178,294,cs),
(258,100,o),
(434,-30,o),
(690,-30,cs),
(946,-30,o),
(1122,100,o),
(1202,294,cs),
(1228,356,o),
(1240,426,o),
(1240,506,cs),
(1240,1440,l)
);
}
);
};
layerId = "CAA188E2-8C62-414B-93AE-B576BEB044DB";
shapes = (
{
closed = 1;
nodes = (
(1010,-30,o),
(1240,186,o),
(1240,510,cs),
(1240,1440,l),
(1156,1440,l),
(1156,538,ls),
(1156,182,o),
(882,50,o),
(690,50,cs),
(498,50,o),
(224,182,o),
(224,538,cs),
(224,1440,l),
(140,1440,l),
(140,510,ls),
(140,184,o),
(370,-30,o),
(690,-30,cs)
);
}
);
width = 1380;
},
{
background = {
shapes = (
{
closed = 1;
nodes = (
(1036,1440,l),
(1036,544,ls),
(1036,512,o),
(1034,480,o),
(1024,444,cs),
(988,316,o),
(868,226,o),
(726,226,cs),
(584,226,o),
(464,316,o),
(428,444,cs),
(418,480,o),
(416,512,o),
(416,544,cs),
(416,1440,l),
(140,1438,l),
(140,540,ls),
(140,492,o),
(144,446,o),
(154,400,cs),
(212,128,o),
(434,-30,o),
(726,-30,cs),
(1018,-30,o),
(1240,128,o),
(1298,400,cs),
(1308,446,o),
(1312,492,o),
(1312,540,cs),
(1312,1440,l)
);
}
);
};
layerId = "0DA27741-1AFD-43F2-A947-40AFBF8D6498";
shapes = (
{
closed = 1;
nodes = (
(1074,-30,o),
(1312,194,o),
(1312,540,cs),
(1312,1440,l),
(1036,1440,l),
(1036,542,ls),
(1036,356,o),
(902,226,o),
(726,226,cs),
(554,226,o),
(416,352,o),
(416,542,cs),
(416,1440,l),
(140,1438,l),
(140,540,ls),
(140,194,o),
(378,-30,o),
(726,-30,cs)
);
}
);
width = 1452;
},
{
associatedMasterId = "0DA27741-1AFD-43F2-A947-40AFBF8D6498";
layerId = "A2873047-0ED6-4C67-9B4D-3870B51BD5C6";
width = 1200;
},
{
associatedMasterId = "0DA27741-1AFD-43F2-A947-40AFBF8D6498";
layerId = "55314CA7-5524-4D70-B802-98D4FAE25636";
width = 1450;
},
{
associatedMasterId = "0DA27741-1AFD-43F2-A947-40AFBF8D6498";
layerId = "13A3DD5D-E91B-4961-8595-F8141D3FA442";
width = 1240;
}
);
metricLeft = H;
metricRight = H;
note = U;
unicode = 85;
},
{
glyphname = V;
kernLeft = V;
kernRight = V;
lastChange = "2020-02-20 18:21:12 +0000";
layers = (
{
layerId = "CAA188E2-8C62-414B-93AE-B576BEB044DB";
shapes = (
{
closed = 1;
nodes = (
(624,0,l),
(1148,1440,l),
(1058,1440,l),
(578,122,l),
(100,1440,l),
(10,1440,l),
(534,0,l)
);
}
);
width = 1158;
},
{
layerId = "0DA27741-1AFD-43F2-A947-40AFBF8D6498";
shapes = (
{
closed = 1;
nodes = (
(856,0,l),
(1296,1440,l),
(1016,1440,l),
(650,256,l),
(290,1440,l),
(10,1440,l),
(450,0,l)
);
}
);
width = 1306;
},
{
associatedMasterId = "0DA27741-1AFD-43F2-A947-40AFBF8D6498";
layerId = "A2873047-0ED6-4C67-9B4D-3870B51BD5C6";
width = 1200;
},
{
associatedMasterId = "0DA27741-1AFD-43F2-A947-40AFBF8D6498";
layerId = "55314CA7-5524-4D70-B802-98D4FAE25636";
width = 1246;
},
{
associatedMasterId = "0DA27741-1AFD-43F2-A947-40AFBF8D6498";
layerId = "13A3DD5D-E91B-4961-8595-F8141D3FA442";
width = 1208;
}
);
note = V;
unicode = 86;
},
{
glyphname = W;
kernLeft = V;
kernRight = V;
lastChange = "2020-03-10 05:32:26 +0000";
layers = (
{
layerId = "CAA188E2-8C62-414B-93AE-B576BEB044DB";
shapes = (
{
closed = 1;
nodes = (
(540,0,l),
(908,1286,l),
(1278,0,l),
(1366,0,l),
(1778,1440,l),
(1690,1440,l),
(1322,152,l),
(952,1440,l),
(864,1440,l),
(496,152,l),
(126,1440,l),
(40,1440,l),
(452,0,l)
);
}
);
width = 1818;
},
{
layerId = "0DA27741-1AFD-43F2-A947-40AFBF8D6498";
shapes = (
{
closed = 1;
nodes = (
(710,0,l),
(989,972,l),
(1268,0,l),
(1536,0,l),
(1958,1440,l),
(1672,1440,l),
(1402,450,l),
(1132,1440,l),
(846,1438,l),
(576,450,l),
(306,1440,l),
(20,1440,l),
(442,0,l)
);
}
);
width = 1978;
},
{
associatedMasterId = "0DA27741-1AFD-43F2-A947-40AFBF8D6498";
layerId = "A2873047-0ED6-4C67-9B4D-3870B51BD5C6";
width = 1200;
},
{
associatedMasterId = "0DA27741-1AFD-43F2-A947-40AFBF8D6498";
layerId = "55314CA7-5524-4D70-B802-98D4FAE25636";
width = 1812;
},
{
associatedMasterId = "0DA27741-1AFD-43F2-A947-40AFBF8D6498";
layerId = "13A3DD5D-E91B-4961-8595-F8141D3FA442";
width = 1298;
}
);
note = W;
unicode = 87;
},
{
glyphname = X;
kernLeft = X;
kernRight = X;
lastChange = "2020-02-20 18:21:12 +0000";
layers = (
{
layerId = "CAA188E2-8C62-414B-93AE-B576BEB044DB";
shapes = (
{
closed = 1;
nodes = (
(120,0,l),
(572,660,l),
(1026,0,l),
(1126,0,l),
(620,730,l),
(1114,1440,l),
(1014,1440,l),
(572,798,l),
(132,1440,l),
(32,1440,l),
(526,730,l),
(20,0,l)
);
}
);
width = 1146;
},
{
layerId = "0DA27741-1AFD-43F2-A947-40AFBF8D6498";
shapes = (
{
closed = 1;
nodes = (
(356,0,l),
(674,496,l),
(990,0,l),
(1324,0,l),
(842,728,l),
(1312,1440,l),
(976,1440,l),
(674,960,l),
(368,1440,l),
(34,1440,l),
(504,728,l),
(20,0,l)
);
}
);
width = 1344;
},
{
associatedMasterId = "0DA27741-1AFD-43F2-A947-40AFBF8D6498";
layerId = "A2873047-0ED6-4C67-9B4D-3870B51BD5C6";
width = 1200;
},
{
associatedMasterId = "0DA27741-1AFD-43F2-A947-40AFBF8D6498";
layerId = "55314CA7-5524-4D70-B802-98D4FAE25636";
width = 1532;
},
{
associatedMasterId = "0DA27741-1AFD-43F2-A947-40AFBF8D6498";
layerId = "13A3DD5D-E91B-4961-8595-F8141D3FA442";
width = 1254;
}
);
note = X;
unicode = 88;
},
{
glyphname = Y;
kernLeft = Y;
kernRight = Y;
lastChange = "2020-02-20 18:21:12 +0000";
layers = (
{
layerId = "CAA188E2-8C62-414B-93AE-B576BEB044DB";
shapes = (
{
closed = 1;
nodes = (
(562,0,l),
(562,612,l),
(1038,1440,l),
(942,1440,l),
(520,708,l),
(96,1440,l),
(0,1440,l),
(478,612,l),
(478,0,l)
);
}
);
width = 1038;
},
{
layerId = "0DA27741-1AFD-43F2-A947-40AFBF8D6498";
shapes = (
{
closed = 1;
nodes = (
(768,0,l),
(768,586,l),
(1260,1440,l),
(942,1440,l),
(630,898,l),
(318,1440,l),
(0,1440,l),
(492,586,l),
(492,0,l)
);
}
);
width = 1260;
},
{
associatedMasterId = "0DA27741-1AFD-43F2-A947-40AFBF8D6498";
layerId = "A2873047-0ED6-4C67-9B4D-3870B51BD5C6";
width = 1200;
},
{
associatedMasterId = "0DA27741-1AFD-43F2-A947-40AFBF8D6498";
layerId = "55314CA7-5524-4D70-B802-98D4FAE25636";
width = 1138;
},
{
associatedMasterId = "0DA27741-1AFD-43F2-A947-40AFBF8D6498";
layerId = "13A3DD5D-E91B-4961-8595-F8141D3FA442";
width = 1190;
}
);
note = Y;
unicode = 89;
},
{
glyphname = Z;
kernLeft = Z;
kernRight = Z;
lastChange = "2020-02-20 18:21:12 +0000";
layers = (
{
layerId = "CAA188E2-8C62-414B-93AE-B576BEB044DB";
shapes = (
{
closed = 1;
nodes = (
(1062,0,l),
(1062,82,l),
(228,82,l),
(1062,1406,l),
(1062,1440,l),
(100,1440,l),
(100,1356,l),
(938,1356,l),
(100,30,l),
(100,0,l)
);
}
);
width = 1162;
},
{
layerId = "0DA27741-1AFD-43F2-A947-40AFBF8D6498";
shapes = (
{
closed = 1;
nodes = (
(1240,0,l),
(1240,256,l),
(580,256,l),
(1260,1406,l),
(1260,1440,l),
(160,1440,l),
(160,1186,l),
(784,1186,l),
(100,34,l),
(100,0,l)
);
}
);
width = 1360;
},
{
associatedMasterId = "0DA27741-1AFD-43F2-A947-40AFBF8D6498";
layerId = "A2873047-0ED6-4C67-9B4D-3870B51BD5C6";
width = 1200;
},
{
associatedMasterId = "0DA27741-1AFD-43F2-A947-40AFBF8D6498";
layerId = "55314CA7-5524-4D70-B802-98D4FAE25636";
width = 1200;
},
{
associatedMasterId = "0DA27741-1AFD-43F2-A947-40AFBF8D6498";
layerId = "13A3DD5D-E91B-4961-8595-F8141D3FA442";
width = 1200;
}
);
note = Z;
unicode = 90;
},
{
glyphname = a;
kernLeft = a;
kernRight = a;
lastChange = "2022-10-20 08:11:05 +0000";
layers = (
{
background = {
shapes = (
{
closed = 1;
nodes = (
(628,-30,o),
(796,36,o),
(886,196,c),
(886,0,l),
(964,0,l),
(964,676,l),
(964,732,o),
(960,782,o),
(946,834,cs),
(898,1008,o),
(766,1110,o),
(566,1110,cs),
(336,1110,o),
(166,1020,o),
(122,822,c),
(210,794,l),
(254,964,o),
(382,1026,o),
(560,1026,cs),
(772,1026,o),
(880,896,o),
(880,664,c),
(676,638,o),
(508,624,o),
(352,588,cs),
(156,542,o),
(80,426,o),
(80,292,cs),
(80,92,o),
(234,-30,o),
(434,-30,cs)
);
},
{
closed = 1;
nodes = (
(280,54,o),
(168,140,o),
(168,292,cs),
(168,404,o),
(250,476,o),
(380,512,cs),
(528,554,o),
(688,562,o),
(880,582,c),
(880,502,o),
(878,362,o),
(832,268,cs),
(760,122,o),
(618,54,o),
(436,54,cs)
);
}
);
};
hints = (
{
horizontal = 1;
origin = (0,32);
target = (1,15);
type = Stem;
},
{
horizontal = 1;
place = (580, 84);
place = (580, 84);
type = Stem;
},
{
horizontal = 1;
origin = (0,12);
target = (0,19);
type = Stem;
},
{
horizontal = 1;
origin = (0,4);
target = up;
type = BottomGhost;
},
{
origin = (0,29);
target = (1,2);
type = Stem;
},
{
origin = (1,12);
target = (0,5);
type = Stem;
},
{
origin = (0,4);
target = (0,5);
type = Stem;
}
);
layerId = "CAA188E2-8C62-414B-93AE-B576BEB044DB";
shapes = (
{
closed = 1;
nodes = (
(684,-30,o),
(868,88,o),
(926,294,c),
(886,296,l),
(886,0,l),
(964,0,l),
(964,676,ls),
(964,748,o),
(956,830,o),
(938,884,cs),
(890,1022,o),
(752,1110,o),
(552,1110,cs),
(324,1110,o),
(170,1004,o),
(122,804,c),
(214,780,l),
(258,946,o),
(366,1026,o),
(548,1026,cs),
(798,1026,o),
(886,902,o),
(880,648,c),
(910,668,l),
(820,656,o),
(562,632,o),
(374,594,cs),
(220,562,o),
(80,476,o),
(80,286,cs),
(80,118,o),
(202,-30,o),
(454,-30,cs)
);
},
{
closed = 1;
nodes = (
(236,54,o),
(168,180,o),
(168,284,cs),
(168,432,o),
(294,492,o),
(392,516,cs),
(560,558,o),
(818,576,o),
(924,586,c),
(880,620,l),
(880,582,o),
(882,482,o),
(872,408,cs),
(842,186,o),
(684,54,o),
(450,54,cs)
);
}
);
width = 1084;
},
{
background = {
shapes = (
{
closed = 1;
nodes = (
(620,-30,o),
(714,24,o),
(808,132,c),
(808,0,l),
(1046,0,l),
(1046,644,ls),
(1046,718,o),
(1040,784,o),
(1022,840,cs),
(964,1018,o),
(814,1110,o),
(588,1110,c),
(348,1110,o),
(190,968,o),
(118,804,c),
(362,730,l),
(400,820,o),
(486,862,o),
(580,862,cs),
(674,862,o),
(762,824,o),
(776,714,c),
(600,688,o),
(414,668,o),
(274,606,cs),
(162,556,o),
(80,466,o),
(80,308,cs),
(80,106,o),
(218,-30,o),
(436,-30,cs)
);
},
{
closed = 1;
nodes = (
(394,182,o),
(346,244,o),
(346,302,cs),
(346,374,o),
(404,412,o),
(484,434,cs),
(568,458,o),
(632,470,o),
(776,494,c),
(776,444,o),
(772,366,o),
(740,312,cs),
(696,240,o),
(600,182,o),
(500,182,cs)
);
}
);
};
hints = (
{
horizontal = 1;
origin = (0,32);
target = (0,29);
type = Stem;
},
{
horizontal = 1;
place = (494, 194);
place = (494, 194);
type = Stem;
},
{
horizontal = 1;
origin = (0,12);
target = (0,19);
type = Stem;
},
{
horizontal = 1;
origin = (0,4);
target = up;
type = BottomGhost;
},
{
origin = (0,4);
target = (0,5);
type = Stem;
},
{
origin = (0,29);
target = (1,2);
type = Stem;
},
{
origin = (0,22);
target = (0,5);
type = Stem;
},
{
origin = (1,12);
target = (0,5);
type = Stem;
}
);
layerId = "0DA27741-1AFD-43F2-A947-40AFBF8D6498";
shapes = (
{
closed = 1;
nodes = (
(626,-15,o),
(747,57,o),
(832,228,c),
(808,222,l),
(808,0,l),
(1046,0,l),
(1046,565,ls),
(1046,683,o),
(1044,799,o),
(1002,879,cs),
(926,1023,o),
(757,1075,o),
(580,1075,cs),
(320,1075,o),
(122,951,o),
(98,733,c),
(364,732,l),
(392,832,o),
(480,865,o),
(580,865,cs),
(732,865,o),
(780,763,o),
(780,641,c),
(878,654,l),
(626,654,o),
(449,659,o),
(327,620,cs),
(153,565,o),
(80,448,o),
(80,298,cs),
(80,118,o),
(208,-15,o),
(440,-15,cs)
);
},
{
closed = 1;
nodes = (
(404,184,o),
(346,228,o),
(346,302,cs),
(346,356,o),
(362,411,o),
(442,443,cs),
(512,469,o),
(653,464,o),
(852,464,c),
(776,528,l),
(776,476,o),
(776,386,o),
(748,328,cs),
(726,282,o),
(648,184,o),
(498,184,cs)
);
}
);
width = 1166;
},
{
associatedMasterId = "0DA27741-1AFD-43F2-A947-40AFBF8D6498";
layerId = "A2873047-0ED6-4C67-9B4D-3870B51BD5C6";
width = 1200;
},
{
associatedMasterId = "0DA27741-1AFD-43F2-A947-40AFBF8D6498";
layerId = "55314CA7-5524-4D70-B802-98D4FAE25636";
width = 1070;
},
{
associatedMasterId = "0DA27741-1AFD-43F2-A947-40AFBF8D6498";
layerId = "13A3DD5D-E91B-4961-8595-F8141D3FA442";
width = 1180;
}
);
metricRight = n;
note = a;
unicode = 97;
},
{
glyphname = b;
kernLeft = n;
kernRight = o;
lastChange = "2020-02-20 18:21:12 +0000";
layers = (
{
layerId = "CAA188E2-8C62-414B-93AE-B576BEB044DB";
shapes = (
{
closed = 1;
nodes = (
(908,-30,o),
(1072,218,o),
(1072,542,cs),
(1072,860,o),
(908,1110,o),
(618,1110,cs),
(316,1110,o),
(154,870,o),
(154,542,cs),
(154,220,o),
(316,-30,o),
(602,-30,cs)
);
},
{
closed = 1;
nodes = (
(218,0,l),
(218,850,l),
(224,850,l),
(224,1440,l),
(140,1440,l),
(140,0,l)
);
},
{
closed = 1;
nodes = (
(348,54,o),
(218,264,o),
(218,542,cs),
(218,824,o),
(350,1026,o),
(602,1026,cs),
(860,1026,o),
(982,818,o),
(982,542,cs),
(982,264,o),
(852,54,o),
(602,54,cs)
);
}
);
width = 1152;
},
{
layerId = "0DA27741-1AFD-43F2-A947-40AFBF8D6498";
shapes = (
{
closed = 1;
nodes = (
(968,-30,o),
(1168,216,o),
(1168,540,cs),
(1168,870,o),
(966,1110,o),
(656,1110,cs),
(348,1110,o),
(184,864,o),
(184,540,cs),
(184,216,o),
(348,-30,o),
(670,-30,cs)
);
},
{
closed = 1;
nodes = (
(378,0,l),
(378,740,l),
(412,740,l),
(412,1440,l),
(138,1440,l),
(138,0,l)
);
},
{
closed = 1;
nodes = (
(444,212,o),
(378,344,o),
(378,540,cs),
(378,736,o),
(446,868,o),
(616,868,cs),
(798,868,o),
(880,720,o),
(880,540,cs),
(880,358,o),
(802,212,o),
(626,212,cs)
);
}
);
width = 1248;
},
{
associatedMasterId = "0DA27741-1AFD-43F2-A947-40AFBF8D6498";
layerId = "A2873047-0ED6-4C67-9B4D-3870B51BD5C6";
width = 1200;
},
{
associatedMasterId = "0DA27741-1AFD-43F2-A947-40AFBF8D6498";
layerId = "55314CA7-5524-4D70-B802-98D4FAE25636";
width = 1150;
},
{
associatedMasterId = "0DA27741-1AFD-43F2-A947-40AFBF8D6498";
layerId = "13A3DD5D-E91B-4961-8595-F8141D3FA442";
width = 1192;
}
);
metricLeft = n;
metricRight = o;
note = b;
unicode = 98;
},
{
glyphname = c;
kernLeft = o;
kernRight = c;
lastChange = "2020-02-20 18:21:12 +0000";
layers = (
{
layerId = "CAA188E2-8C62-414B-93AE-B576BEB044DB";
shapes = (
{
closed = 1;
nodes = (
(770,-30,o),
(918,60,o),
(1008,234,c),
(926,270,l),
(860,128,o),
(732,54,o),
(574,54,cs),
(308,54,o),
(174,246,o),
(170,540,cs),
(174,828,o),
(302,1026,o),
(574,1026,cs),
(736,1026,o),
(868,946,o),
(928,808,c),
(1008,842,l),
(942,1008,o),
(774,1110,o),
(574,1110,cs),
(254,1110,o),
(86,886,o),
(80,540,cs),
(86,202,o),
(252,-30,o),
(574,-30,cs)
);
}
);
width = 1078;
},
{
layerId = "0DA27741-1AFD-43F2-A947-40AFBF8D6498";
shapes = (
{
closed = 1;
nodes = (
(866,-30,o),
(1044,98,o),
(1106,328,c),
(828,386,l),
(796,282,o),
(738,224,o),
(616,224,cs),
(452,224,o),
(368,352,o),
(368,540,cs),
(368,720,o),
(444,856,o),
(616,856,cs),
(716,856,o),
(802,790,o),
(834,678,c),
(1106,750,l),
(1058,972,o),
(874,1110,o),
(620,1110,cs),
(290,1110,o),
(80,868,o),
(80,540,cs),
(80,216,o),
(280,-30,o),
(616,-30,cs)
);
}
);
width = 1166;
},
{
associatedMasterId = "0DA27741-1AFD-43F2-A947-40AFBF8D6498";
layerId = "A2873047-0ED6-4C67-9B4D-3870B51BD5C6";
width = 1200;
},
{
associatedMasterId = "0DA27741-1AFD-43F2-A947-40AFBF8D6498";
layerId = "55314CA7-5524-4D70-B802-98D4FAE25636";
width = 1132;
},
{
associatedMasterId = "0DA27741-1AFD-43F2-A947-40AFBF8D6498";
layerId = "13A3DD5D-E91B-4961-8595-F8141D3FA442";
width = 1190;
}
);
metricLeft = o;
note = c;
unicode = 99;
},
{
glyphname = d;
kernLeft = o;
kernRight = u;
lastChange = "2022-10-20 08:18:34 +0000";
layers = (
{
layerId = "CAA188E2-8C62-414B-93AE-B576BEB044DB";
shapes = (
{
closed = 1;
nodes = (
(836,-30,o),
(998,220,o),
(998,542,cs),
(998,870,o),
(836,1110,o),
(534,1110,cs),
(244,1110,o),
(80,860,o),
(80,542,cs),
(80,218,o),
(244,-30,o),
(550,-30,cs)
);
},
{
closed = 1;
nodes = (
(300,54,o),
(170,264,o),
(170,542,cs),
(170,818,o),
(292,1026,o),
(550,1026,cs),
(802,1026,o),
(934,824,o),
(934,542,cs),
(934,264,o),
(804,54,o),
(550,54,cs)
);
},
{
closed = 1;
nodes = (
(1012,0,l),
(1012,1440,l),
(928,1440,l),
(928,850,l),
(934,850,l),
(934,0,l)
);
}
);
width = 1152;
},
{
layerId = "0DA27741-1AFD-43F2-A947-40AFBF8D6498";
shapes = (
{
closed = 1;
nodes = (
(880,-15,o),
(994,266,o),
(994,530,cs),
(994,794,o),
(880,1075,o),
(572,1075,cs),
(282,1075,o),
(80,860,o),
(80,530,cs),
(80,206,o),
(268,-15,o),
(558,-15,cs)
);
},
{
closed = 1;
nodes = (
(457,225,o),
(368,348,o),
(368,530,cs),
(368,710,o),
(467,835,o),
(637,835,cs),
(782,835,o),
(885,722,o),
(885,530,cs),
(885,338,o),
(784,225,o),
(627,225,cs)
);
},
{
closed = 1;
nodes = (
(1156,0,l),
(1156,1440,l),
(882,1440,l),
(882,810,l),
(936,530,l),
(875,221,l),
(917,0,l)
);
}
);
width = 1250;
},
{
associatedMasterId = "0DA27741-1AFD-43F2-A947-40AFBF8D6498";
layerId = "A2873047-0ED6-4C67-9B4D-3870B51BD5C6";
width = 1200;
},
{
associatedMasterId = "0DA27741-1AFD-43F2-A947-40AFBF8D6498";
layerId = "55314CA7-5524-4D70-B802-98D4FAE25636";
width = 1150;
},
{
associatedMasterId = "0DA27741-1AFD-43F2-A947-40AFBF8D6498";
layerId = "13A3DD5D-E91B-4961-8595-F8141D3FA442";
width = 1192;
}
);
note = d;
unicode = 100;
},
{
glyphname = e;
kernLeft = o;
kernRight = e;
lastChange = "2022-10-20 08:07:34 +0000";
layers = (
{
layerId = "CAA188E2-8C62-414B-93AE-B576BEB044DB";
shapes = (
{
closed = 1;
nodes = (
(784,-30,o),
(952,74,o),
(1040,258,c),
(970,298,l),
(890,140,o),
(752,54,o),
(574,54,cs),
(318,54,o),
(170,232,o),
(170,540,cs),
(170,848,o),
(318,1026,o),
(574,1026,cs),
(826,1026,o),
(968,854,o),
(976,544,c),
(976,516,l),
(1066,516,l),
(1066,892,o),
(884,1110,o),
(574,1110,cs),
(266,1110,o),
(80,894,o),
(80,540,cs),
(80,188,o),
(268,-30,o),
(574,-30,cs)
);
},
{
closed = 1;
nodes = (
(1014,516,l),
(1014,600,l),
(134,600,l),
(134,516,l)
);
}
);
width = 1146;
},
{
background = {
shapes = (
{
closed = 1;
nodes = (
(854,-30,o),
(1046,94,o),
(1122,282,c),
(850,360,l),
(810,272,o),
(730,224,o),
(626,224,cs),
(462,224,o),
(368,338,o),
(368,540,cs),
(368,762,o),
(454,874,o),
(626,874,cs),
(798,874,o),
(862,790,o),
(862,564,cs),
(862,464,l),
(1131,464,l),
(1164,856,o),
(966,1110,o),
(626,1110,cs),
(298,1110,o),
(80,876,o),
(80,526,cs),
(80,198,o),
(310,-30,o),
(642,-30,cs)
);
},
{
closed = 1;
nodes = (
(1000,464,l),
(1000,666,l),
(284,666,l),
(284,464,l)
);
}
);
};
layerId = "0DA27741-1AFD-43F2-A947-40AFBF8D6498";
shapes = (
{
closed = 1;
nodes = (
(850,-30,o),
(1040,84,o),
(1122,282,c),
(850,360,l),
(810,272,o),
(732,224,o),
(626,224,cs),
(456,224,o),
(368,338,o),
(368,540,cs),
(368,760,o),
(452,874,o),
(638,874,cs),
(796,874,o),
(862,784,o),
(862,564,cs),
(862,464,l),
(1131,464,l),
(1164,856,o),
(966,1110,o),
(626,1110,cs),
(306,1110,o),
(80,880,o),
(80,526,cs),
(80,202,o),
(310,-30,o),
(642,-30,cs)
);
},
{
closed = 1;
nodes = (
(1000,464,l),
(1000,654,l),
(284,654,l),
(284,464,l)
);
}
);
width = 1216;
},
{
associatedMasterId = "0DA27741-1AFD-43F2-A947-40AFBF8D6498";
layerId = "A2873047-0ED6-4C67-9B4D-3870B51BD5C6";
width = 1200;
},
{
associatedMasterId = "0DA27741-1AFD-43F2-A947-40AFBF8D6498";
layerId = "55314CA7-5524-4D70-B802-98D4FAE25636";
width = 1168;
},
{
associatedMasterId = "0DA27741-1AFD-43F2-A947-40AFBF8D6498";
layerId = "13A3DD5D-E91B-4961-8595-F8141D3FA442";
width = 1194;
}
);
metricLeft = o;
note = e;
unicode = 101;
},
{
glyphname = f;
kernLeft = f;
kernRight = f;
lastChange = "2020-03-06 05:46:42 +0000";
layers = (
{
layerId = "CAA188E2-8C62-414B-93AE-B576BEB044DB";
shapes = (
{
closed = 1;
nodes = (
(340,0,l),
(340,1194,ls),
(340,1340,o),
(402,1394,o),
(528,1394,cs),
(658,1394,l),
(658,1470,l),
(518,1470,ls),
(432,1470,o),
(368,1452,o),
(320,1402,cs),
(270,1348,o),
(256,1286,o),
(256,1202,cs),
(256,0,l)
);
},
{
closed = 1;
nodes = (
(658,996,l),
(658,1080,l),
(60,1080,l),
(60,996,l)
);
}
);
width = 678;
},
{
layerId = "0DA27741-1AFD-43F2-A947-40AFBF8D6498";
shapes = (
{
closed = 1;
nodes = (
(502,0,l),
(502,1140,ls),
(502,1200,o),
(542,1250,o),
(628,1250,c),
(752,1250,l),
(752,1470,l),
(618,1470,l),
(540,1470,o),
(402,1482,o),
(302,1370,cs),
(224,1284,o),
(230,1158,o),
(230,1076,cs),
(230,0,l)
);
},
{
closed = 1;
nodes = (
(752,870,l),
(752,1080,l),
(60,1080,l),
(60,870,l)
);
}
);
width = 772;
},
{
associatedMasterId = "0DA27741-1AFD-43F2-A947-40AFBF8D6498";
layerId = "A2873047-0ED6-4C67-9B4D-3870B51BD5C6";
width = 1200;
},
{
associatedMasterId = "0DA27741-1AFD-43F2-A947-40AFBF8D6498";
layerId = "55314CA7-5524-4D70-B802-98D4FAE25636";
width = 596;
},
{
associatedMasterId = "0DA27741-1AFD-43F2-A947-40AFBF8D6498";
layerId = "13A3DD5D-E91B-4961-8595-F8141D3FA442";
width = 1104;
}
);
note = f;
unicode = 102;
},
{
glyphname = g;
kernLeft = g;
kernRight = g;
lastChange = "2020-02-20 18:21:12 +0000";
layers = (
{
layerId = "CAA188E2-8C62-414B-93AE-B576BEB044DB";
shapes = (
{
closed = 1;
nodes = (
(830,-510,o),
(970,-388,o),
(1002,-126,cs),
(1010,-66,o),
(1012,-6,o),
(1012,60,cs),
(1012,1080,l),
(934,1080,l),
(934,336,l),
(926,336,l),
(926,60,ls),
(926,-260,o),
(842,-424,o),
(552,-424,cs),
(418,-424,o),
(274,-368,o),
(202,-220,c),
(128,-270,l),
(226,-452,o),
(396,-510,o),
(552,-510,cs)
);
},
{
closed = 1;
nodes = (
(836,-30,o),
(998,220,o),
(998,542,cs),
(998,870,o),
(836,1110,o),
(534,1110,cs),
(244,1110,o),
(80,860,o),
(80,542,cs),
(80,218,o),
(244,-30,o),
(550,-30,cs)
);
},
{
closed = 1;
nodes = (
(300,54,o),
(170,264,o),
(170,542,cs),
(170,818,o),
(292,1026,o),
(550,1026,cs),
(802,1026,o),
(934,824,o),
(934,542,cs),
(934,264,o),
(804,54,o),
(550,54,cs)
);
}
);
width = 1152;
},
{
layerId = "0DA27741-1AFD-43F2-A947-40AFBF8D6498";
shapes = (
{
closed = 1;
nodes = (
(840,-510,o),
(1040,-418,o),
(1092,-220,cs),
(1104,-174,o),
(1108,-128,o),
(1108,-74,cs),
(1108,1080,l),
(870,1080,l),
(870,244,l),
(836,244,l),
(836,-70,ls),
(840,-190,o),
(726,-252,o),
(604,-252,cs),
(528,-252,o),
(458,-218,o),
(424,-154,c),
(172,-276,l),
(254,-416,o),
(418,-510,o),
(602,-510,cs)
);
},
{
closed = 1;
nodes = (
(900,-30,o),
(1064,216,o),
(1064,540,cs),
(1064,864,o),
(900,1110,o),
(592,1110,cs),
(282,1110,o),
(80,870,o),
(80,540,cs),
(80,216,o),
(280,-30,o),
(578,-30,cs)
);
},
{
closed = 1;
nodes = (
(446,212,o),
(368,358,o),
(368,540,cs),
(368,720,o),
(450,868,o),
(632,868,cs),
(802,868,o),
(870,736,o),
(870,540,cs),
(870,344,o),
(804,212,o),
(622,212,cs)
);
}
);
width = 1248;
},
{
associatedMasterId = "0DA27741-1AFD-43F2-A947-40AFBF8D6498";
layerId = "A2873047-0ED6-4C67-9B4D-3870B51BD5C6";
width = 1200;
},
{
associatedMasterId = "0DA27741-1AFD-43F2-A947-40AFBF8D6498";
layerId = "55314CA7-5524-4D70-B802-98D4FAE25636";
width = 1150;
},
{
associatedMasterId = "0DA27741-1AFD-43F2-A947-40AFBF8D6498";
layerId = "13A3DD5D-E91B-4961-8595-F8141D3FA442";
width = 1192;
}
);
metricLeft = o;
metricRight = u;
note = g;
unicode = 103;
},
{
glyphname = h;
kernLeft = h;
kernRight = h;
lastChange = "2020-02-20 18:21:12 +0000";
layers = (
{
background = {
shapes = (
{
closed = 1;
nodes = (
(1026,0,l),
(1026,526,ls),
(1030,730,o),
(998,922,o),
(834,1034,cs),
(750,1090,o),
(650,1110,o),
(556,1102,cs),
(460,1098,o),
(362,1064,o),
(290,996,cs),
(218,928,o),
(178,834,o),
(160,744,cs),
(146,676,o),
(148,670,o),
(146,474,c),
(224,474,l),
(224,562,o),
(220,648,o),
(238,728,cs),
(252,808,o),
(288,884,o),
(346,936,cs),
(402,990,o),
(480,1018,o),
(560,1022,cs),
(642,1026,o),
(722,1008,o),
(788,966,cs),
(924,874,o),
(942,720,o),
(942,526,cs),
(942,0,l)
);
},
{
closed = 1;
nodes = (
(224,0,l),
(224,590,l),
(218,590,l),
(218,1440,l),
(140,1440,l),
(140,0,l)
);
}
);
};
layerId = "CAA188E2-8C62-414B-93AE-B576BEB044DB";
shapes = (
{
closed = 1;
nodes = (
(1026,0,l),
(1026,588,ls),
(1026,908,o),
(862,1104,o),
(588,1104,cs),
(350,1104,o),
(146,958,o),
(146,588,c),
(224,590,l),
(224,822,o),
(324,1022,o),
(588,1022,cs),
(812,1022,o),
(942,880,o),
(942,572,cs),
(942,0,l)
);
},
{
closed = 1;
nodes = (
(224,0,l),
(224,590,l),
(218,590,l),
(218,1440,l),
(140,1440,l),
(140,0,l)
);
}
);
width = 1146;
},
{
background = {
shapes = (
{
closed = 1;
nodes = (
(1152,0,l),
(1152,522,l),
(1152,690,o),
(1152,878,o),
(1034,994,cs),
(930,1096,o),
(800,1118,o),
(672,1110,cs),
(574,1104,o),
(464,1068,o),
(394,984,cs),
(314,890,o),
(282,820,o),
(264,714,c),
(258,668,o),
(258,506,o),
(258,470,c),
(414,470,l),
(414,544,o),
(416,628,o),
(426,676,c),
(438,736,o),
(466,784,o),
(506,814,cs),
(542,840,o),
(584,854,o),
(634,856,cs),
(708,858,o),
(766,836,o),
(804,794,cs),
(860,734,o),
(876,622,o),
(876,510,c),
(876,0,l)
);
},
{
closed = 1;
nodes = (
(414,0,l),
(414,700,l),
(380,700,l),
(380,1440,l),
(140,1440,l),
(140,0,l)
);
}
);
};
layerId = "0DA27741-1AFD-43F2-A947-40AFBF8D6498";
shapes = (
{
closed = 1;
nodes = (
(1152,0,l),
(1152,606,ls),
(1152,696,o),
(1152,1112,o),
(730,1112,cs),
(412,1112,o),
(258,878,o),
(258,622,c),
(414,548,l),
(414,816,o),
(550,856,o),
(644,856,cs),
(876,856,o),
(876,608,o),
(876,510,cs),
(876,0,l)
);
},
{
closed = 1;
nodes = (
(414,0,l),
(414,700,l),
(380,700,l),
(380,1440,l),
(138,1440,l),
(138,0,l)
);
}
);
width = 1272;
},
{
associatedMasterId = "0DA27741-1AFD-43F2-A947-40AFBF8D6498";
layerId = "A2873047-0ED6-4C67-9B4D-3870B51BD5C6";
width = 1200;
},
{
associatedMasterId = "0DA27741-1AFD-43F2-A947-40AFBF8D6498";
layerId = "55314CA7-5524-4D70-B802-98D4FAE25636";
width = 1128;
},
{
associatedMasterId = "0DA27741-1AFD-43F2-A947-40AFBF8D6498";
layerId = "13A3DD5D-E91B-4961-8595-F8141D3FA442";
width = 1188;
}
);
metricLeft = n;
metricRight = n;
note = h;
unicode = 104;
},
{
glyphname = i;
kernLeft = i;
kernRight = i;
lastChange = "2022-10-20 07:54:24 +0000";
layers = (
{
layerId = "CAA188E2-8C62-414B-93AE-B576BEB044DB";
shapes = (
{
closed = 1;
nodes = (
(244,1312,l),
(244,1440,l),
(160,1440,l),
(160,1312,l)
);
}
);
width = 404;
},
{
layerId = "0DA27741-1AFD-43F2-A947-40AFBF8D6498";
shapes = (
{
closed = 1;
nodes = (
(432,1230,l),
(432,1470,l),
(160,1470,l),
(160,1230,l)
);
}
);
width = 592;
},
{
associatedMasterId = "0DA27741-1AFD-43F2-A947-40AFBF8D6498";
layerId = "A2873047-0ED6-4C67-9B4D-3870B51BD5C6";
width = 1200;
},
{
associatedMasterId = "0DA27741-1AFD-43F2-A947-40AFBF8D6498";
layerId = "55314CA7-5524-4D70-B802-98D4FAE25636";
width = 326;
},
{
associatedMasterId = "0DA27741-1AFD-43F2-A947-40AFBF8D6498";
layerId = "13A3DD5D-E91B-4961-8595-F8141D3FA442";
width = 1060;
}
);
metricLeft = l;
metricRight = l;
note = i;
unicode = 105;
},
{
glyphname = j;
kernLeft = j;
kernRight = j;
lastChange = "2020-03-14 00:18:01 +0000";
layers = (
{
layerId = "CAA188E2-8C62-414B-93AE-B576BEB044DB";
shapes = (
{
closed = 1;
nodes = (
(46,-480,ls),
(220,-480,o),
(290,-404,o),
(290,-220,cs),
(290,1080,l),
(206,1080,l),
(206,-230,ls),
(206,-354,o),
(132,-394,o),
(48,-394,cs),
(-20,-394,l),
(-20,-480,l)
);
},
{
closed = 1;
nodes = (
(290,1312,l),
(290,1440,l),
(206,1440,l),
(206,1312,l)
);
}
);
width = 450;
},
{
layerId = "0DA27741-1AFD-43F2-A947-40AFBF8D6498";
shapes = (
{
closed = 1;
nodes = (
(164,-480,ls),
(346,-480,o),
(462,-368,o),
(462,-196,cs),
(462,1080,l),
(190,1080,l),
(190,-64,ls),
(190,-168,o),
(152,-226,o),
(28,-226,cs),
(-20,-226,l),
(-20,-480,l)
);
},
{
closed = 1;
nodes = (
(462,1230,l),
(462,1470,l),
(190,1470,l),
(190,1230,l)
);
}
);
width = 602;
},
{
associatedMasterId = "0DA27741-1AFD-43F2-A947-40AFBF8D6498";
layerId = "A2873047-0ED6-4C67-9B4D-3870B51BD5C6";
width = 1200;
},
{
associatedMasterId = "0DA27741-1AFD-43F2-A947-40AFBF8D6498";
layerId = "55314CA7-5524-4D70-B802-98D4FAE25636";
width = 378;
},
{
associatedMasterId = "0DA27741-1AFD-43F2-A947-40AFBF8D6498";
layerId = "13A3DD5D-E91B-4961-8595-F8141D3FA442";
width = 1068;
}
);
note = j;
unicode = 106;
},
{
glyphname = k;
kernLeft = k;
kernRight = k;
lastChange = "2020-02-20 18:21:12 +0000";
layers = (
{
layerId = "CAA188E2-8C62-414B-93AE-B576BEB044DB";
shapes = (
{
closed = 1;
nodes = (
(224,0,l),
(224,520,l),
(832,0,l),
(976,0,l),
(326,540,l),
(890,1080,l),
(764,1080,l),
(224,560,l),
(224,1440,l),
(140,1440,l),
(140,0,l)
);
}
);
width = 936;
},
{
layerId = "0DA27741-1AFD-43F2-A947-40AFBF8D6498";
shapes = (
{
closed = 1;
nodes = (
(416,0,l),
(416,520,l),
(790,0,l),
(1144,0,l),
(728,540,l),
(1118,1080,l),
(782,1080,l),
(416,560,l),
(416,1440,l),
(140,1440,l),
(138,0,l)
);
}
);
width = 1104;
},
{
associatedMasterId = "0DA27741-1AFD-43F2-A947-40AFBF8D6498";
layerId = "A2873047-0ED6-4C67-9B4D-3870B51BD5C6";
width = 1200;
},
{
associatedMasterId = "0DA27741-1AFD-43F2-A947-40AFBF8D6498";
layerId = "55314CA7-5524-4D70-B802-98D4FAE25636";
width = 1000;
},
{
associatedMasterId = "0DA27741-1AFD-43F2-A947-40AFBF8D6498";
layerId = "13A3DD5D-E91B-4961-8595-F8141D3FA442";
width = 1168;
}
);
metricLeft = n;
note = k;
unicode = 107;
},
{
glyphname = l;
kernLeft = i;
kernRight = i;
lastChange = "2021-12-21 12:30:04 +0000";
layers = (
{
layerId = "CAA188E2-8C62-414B-93AE-B576BEB044DB";
shapes = (
{
closed = 1;
nodes = (
(244,0,l),
(244,1440,l),
(160,1440,l),
(160,0,l)
);
}
);
width = 404;
},
{
layerId = "0DA27741-1AFD-43F2-A947-40AFBF8D6498";
shapes = (
{
closed = 1;
nodes = (
(432,0,l),
(432,1440,l),
(160,1440,l),
(160,0,l)
);
}
);
width = 592;
},
{
associatedMasterId = "0DA27741-1AFD-43F2-A947-40AFBF8D6498";
layerId = "A2873047-0ED6-4C67-9B4D-3870B51BD5C6";
width = 1200;
},
{
associatedMasterId = "0DA27741-1AFD-43F2-A947-40AFBF8D6498";
layerId = "55314CA7-5524-4D70-B802-98D4FAE25636";
width = 326;
},
{
associatedMasterId = "0DA27741-1AFD-43F2-A947-40AFBF8D6498";
layerId = "13A3DD5D-E91B-4961-8595-F8141D3FA442";
width = 1060;
}
);
note = l;
unicode = 108;
},
{
glyphname = m;
kernLeft = m;
kernRight = m;
lastChange = "2020-02-20 18:21:12 +0000";
layers = (
{
background = {
shapes = (
{
closed = 1;
nodes = (
(140,0,l),
(224,0,l),
(224,860,l),
(218,860,l),
(218,1080,l),
(140,1080,l)
);
},
{
closed = 1;
nodes = (
(864,0,l),
(866,668,ls),
(866,834,o),
(862,944,o),
(732,1042,cs),
(668,1090,o),
(588,1110,o),
(512,1110,cs),
(402,1110,o),
(296,1064,o),
(226,980,cs),
(168,910,o),
(146,812,o),
(150,718,c),
(224,718,l),
(224,794,o),
(232,860,o),
(284,928,cs),
(336,998,o),
(420,1034,o),
(510,1034,cs),
(570,1034,o),
(632,1014,o),
(678,976,cs),
(780,894,o),
(782,808,o),
(782,668,cs),
(780,0,l)
);
},
{
closed = 1;
nodes = (
(1506,0,l),
(1508,668,ls),
(1508,834,o),
(1504,944,o),
(1374,1042,cs),
(1310,1090,o),
(1230,1110,o),
(1154,1110,cs),
(1044,1110,o),
(938,1064,o),
(868,980,cs),
(810,910,o),
(788,812,o),
(792,718,c),
(866,718,l),
(866,794,o),
(874,860,o),
(926,928,cs),
(978,998,o),
(1062,1034,o),
(1152,1034,cs),
(1212,1034,o),
(1274,1014,o),
(1320,976,cs),
(1422,894,o),
(1424,808,o),
(1424,668,cs),
(1422,0,l)
);
}
);
};
layerId = "CAA188E2-8C62-414B-93AE-B576BEB044DB";
shapes = (
{
closed = 1;
nodes = (
(1506,0,l),
(1508,750,ls),
(1508,974,o),
(1360,1110,o),
(1156,1110,cs),
(940,1110,o),
(782,956,o),
(792,718,c),
(866,718,l),
(866,958,o),
(1022,1034,o),
(1150,1034,cs),
(1304,1034,o),
(1424,924,o),
(1424,744,cs),
(1422,0,l)
);
},
{
closed = 1;
nodes = (
(224,0,l),
(224,860,l),
(218,860,l),
(218,1080,l),
(140,1080,l),
(140,0,l)
);
},
{
closed = 1;
nodes = (
(864,0,l),
(866,744,ls),
(866,998,o),
(698,1110,o),
(516,1110,cs),
(302,1110,o),
(150,958,o),
(150,750,c),
(224,718,l),
(224,910,o),
(338,1034,o),
(506,1034,cs),
(670,1034,o),
(784,916,o),
(784,730,cs),
(782,0,l)
);
}
);
width = 1628;
},
{
background = {
shapes = (
{
closed = 1;
nodes = (
(138,0,l),
(412,0,l),
(412,722,l),
(378,722,l),
(378,1080,l),
(138,1080,l)
);
},
{
closed = 1;
nodes = (
(1062,0,l),
(1062,658,ls),
(1062,796,o),
(1052,908,o),
(958,1006,cs),
(890,1078,o),
(776,1106,o),
(686,1106,cs),
(544,1106,o),
(414,1034,o),
(342,914,cs),
(292,830,o),
(298,746,o),
(298,654,c),
(412,654,l),
(412,708,o),
(420,756,o),
(462,804,cs),
(496,842,o),
(548,864,o),
(600,864,cs),
(652,864,o),
(704,844,o),
(738,806,cs),
(776,764,o),
(790,716,o),
(790,638,cs),
(790,0,l)
);
},
{
closed = 1;
nodes = (
(1712,0,l),
(1712,658,ls),
(1712,796,o),
(1702,908,o),
(1608,1006,cs),
(1540,1078,o),
(1426,1106,o),
(1336,1106,cs),
(1194,1106,o),
(1064,1034,o),
(992,914,cs),
(942,830,o),
(948,746,o),
(948,654,c),
(1062,654,l),
(1062,708,o),
(1070,756,o),
(1112,804,cs),
(1146,842,o),
(1198,864,o),
(1250,864,cs),
(1302,864,o),
(1354,844,o),
(1388,806,cs),
(1426,764,o),
(1440,716,o),
(1440,638,cs),
(1440,0,l)
);
}
);
};
layerId = "0DA27741-1AFD-43F2-A947-40AFBF8D6498";
shapes = (
{
closed = 1;
nodes = (
(1712,0,l),
(1712,710,ls),
(1712,946,o),
(1584,1106,o),
(1338,1106,cs),
(1122,1106,o),
(948,952,o),
(948,730,c),
(1062,654,l),
(1062,778,o),
(1136,864,o),
(1250,864,cs),
(1368,864,o),
(1440,780,o),
(1440,638,cs),
(1440,0,l)
);
},
{
closed = 1;
nodes = (
(412,0,l),
(412,722,l),
(378,722,l),
(378,1080,l),
(138,1080,l),
(138,0,l)
);
},
{
closed = 1;
nodes = (
(1062,0,l),
(1062,710,ls),
(1062,926,o),
(948,1106,o),
(694,1106,cs),
(472,1106,o),
(298,946,o),
(298,734,c),
(412,654,l),
(412,778,o),
(486,864,o),
(600,864,cs),
(718,864,o),
(790,780,o),
(790,638,cs),
(790,0,l)
);
}
);
width = 1832;
},
{
associatedMasterId = "0DA27741-1AFD-43F2-A947-40AFBF8D6498";
layerId = "A2873047-0ED6-4C67-9B4D-3870B51BD5C6";
width = 1200;
},
{
associatedMasterId = "0DA27741-1AFD-43F2-A947-40AFBF8D6498";
layerId = "55314CA7-5524-4D70-B802-98D4FAE25636";
width = 1716;
},
{
associatedMasterId = "0DA27741-1AFD-43F2-A947-40AFBF8D6498";
layerId = "13A3DD5D-E91B-4961-8595-F8141D3FA442";
width = 1282;
}
);
metricLeft = n;
metricRight = n;
note = m;
unicode = 109;
},
{
glyphname = n;
kernLeft = m;
kernRight = m;
lastChange = "2020-02-20 18:21:12 +0000";
layers = (
{
layerId = "CAA188E2-8C62-414B-93AE-B576BEB044DB";
shapes = (
{
closed = 1;
nodes = (
(1026,0,l),
(1026,588,ls),
(1026,908,o),
(862,1104,o),
(588,1104,cs),
(350,1104,o),
(146,958,o),
(146,588,c),
(224,590,l),
(224,822,o),
(324,1022,o),
(588,1022,cs),
(812,1022,o),
(942,880,o),
(942,572,cs),
(942,0,l)
);
},
{
closed = 1;
nodes = (
(224,0,l),
(224,860,l),
(218,860,l),
(218,1080,l),
(140,1080,l),
(140,0,l)
);
}
);
width = 1146;
},
{
layerId = "0DA27741-1AFD-43F2-A947-40AFBF8D6498";
shapes = (
{
closed = 1;
nodes = (
(1152,0,l),
(1152,606,ls),
(1152,696,o),
(1152,1112,o),
(730,1112,cs),
(412,1112,o),
(258,878,o),
(258,622,c),
(414,548,l),
(414,816,o),
(550,856,o),
(644,856,cs),
(876,856,o),
(876,608,o),
(876,510,cs),
(876,0,l)
);
},
{
closed = 1;
nodes = (
(414,0,l),
(414,722,l),
(380,722,l),
(380,1080,l),
(138,1080,l),
(138,0,l)
);
}
);
width = 1272;
},
{
associatedMasterId = "0DA27741-1AFD-43F2-A947-40AFBF8D6498";
layerId = "A2873047-0ED6-4C67-9B4D-3870B51BD5C6";
width = 1200;
},
{
associatedMasterId = "0DA27741-1AFD-43F2-A947-40AFBF8D6498";
layerId = "55314CA7-5524-4D70-B802-98D4FAE25636";
width = 1128;
},
{
associatedMasterId = "0DA27741-1AFD-43F2-A947-40AFBF8D6498";
layerId = "13A3DD5D-E91B-4961-8595-F8141D3FA442";
width = 1188;
}
);
note = n;
unicode = 110;
},
{
glyphname = o;
kernLeft = o;
kernRight = o;
lastChange = "2020-02-20 18:21:12 +0000";
layers = (
{
layerId = "CAA188E2-8C62-414B-93AE-B576BEB044DB";
shapes = (
{
closed = 1;
nodes = (
(892,-30,o),
(1068,200,o),
(1068,542,cs),
(1068,876,o),
(896,1110,o),
(574,1110,cs),
(260,1110,o),
(80,882,o),
(80,542,cs),
(80,206,o),
(254,-30,o),
(574,-30,cs)
);
},
{
closed = 1;
nodes = (
(308,54,o),
(170,248,o),
(170,542,cs),
(170,826,o),
(300,1026,o),
(574,1026,cs),
(844,1026,o),
(978,836,o),
(978,542,cs),
(978,252,o),
(846,54,o),
(574,54,cs)
);
}
);
width = 1148;
},
{
layerId = "0DA27741-1AFD-43F2-A947-40AFBF8D6498";
shapes = (
{
closed = 1;
nodes = (
(950,-30,o),
(1174,204,o),
(1174,540,cs),
(1174,874,o),
(952,1110,o),
(626,1110,cs),
(306,1110,o),
(80,878,o),
(80,540,cs),
(80,206,o),
(300,-30,o),
(626,-30,cs)
);
},
{
closed = 1;
nodes = (
(456,224,o),
(368,346,o),
(368,540,cs),
(368,728,o),
(448,856,o),
(626,856,cs),
(798,856,o),
(886,732,o),
(886,540,cs),
(886,354,o),
(800,224,o),
(626,224,cs)
);
}
);
width = 1254;
},
{
associatedMasterId = "0DA27741-1AFD-43F2-A947-40AFBF8D6498";
layerId = "A2873047-0ED6-4C67-9B4D-3870B51BD5C6";
width = 1200;
},
{
associatedMasterId = "0DA27741-1AFD-43F2-A947-40AFBF8D6498";
layerId = "55314CA7-5524-4D70-B802-98D4FAE25636";
width = 1178;
},
{
associatedMasterId = "0DA27741-1AFD-43F2-A947-40AFBF8D6498";
layerId = "13A3DD5D-E91B-4961-8595-F8141D3FA442";
width = 1196;
}
);
note = o;
unicode = 111;
},
{
glyphname = p;
kernLeft = m;
kernRight = o;
lastChange = "2020-02-20 18:21:12 +0000";
layers = (
{
layerId = "CAA188E2-8C62-414B-93AE-B576BEB044DB";
shapes = (
{
closed = 1;
nodes = (
(908,-30,o),
(1072,218,o),
(1072,542,cs),
(1072,860,o),
(908,1110,o),
(618,1110,cs),
(316,1110,o),
(154,870,o),
(154,542,cs),
(154,220,o),
(316,-30,o),
(602,-30,cs)
);
},
{
closed = 1;
nodes = (
(224,-480,l),
(224,230,l),
(218,230,l),
(218,1080,l),
(140,1080,l),
(140,-480,l)
);
},
{
closed = 1;
nodes = (
(348,54,o),
(218,264,o),
(218,542,cs),
(218,824,o),
(350,1026,o),
(602,1026,cs),
(860,1026,o),
(982,818,o),
(982,542,cs),
(982,264,o),
(852,54,o),
(602,54,cs)
);
}
);
width = 1152;
},
{
layerId = "0DA27741-1AFD-43F2-A947-40AFBF8D6498";
shapes = (
{
closed = 1;
nodes = (
(968,-30,o),
(1168,216,o),
(1168,540,cs),
(1168,870,o),
(966,1110,o),
(656,1110,cs),
(348,1110,o),
(184,864,o),
(184,540,cs),
(184,216,o),
(348,-30,o),
(670,-30,cs)
);
},
{
closed = 1;
nodes = (
(412,-480,l),
(412,340,l),
(378,340,l),
(378,1080,l),
(138,1080,l),
(138,-480,l)
);
},
{
closed = 1;
nodes = (
(444,212,o),
(378,344,o),
(378,540,cs),
(378,736,o),
(446,868,o),
(616,868,cs),
(798,868,o),
(880,720,o),
(880,540,cs),
(880,358,o),
(802,212,o),
(626,212,cs)
);
}
);
width = 1248;
},
{
associatedMasterId = "0DA27741-1AFD-43F2-A947-40AFBF8D6498";
layerId = "A2873047-0ED6-4C67-9B4D-3870B51BD5C6";
width = 1200;
},
{
associatedMasterId = "0DA27741-1AFD-43F2-A947-40AFBF8D6498";
layerId = "55314CA7-5524-4D70-B802-98D4FAE25636";
width = 1146;
},
{
associatedMasterId = "0DA27741-1AFD-43F2-A947-40AFBF8D6498";
layerId = "13A3DD5D-E91B-4961-8595-F8141D3FA442";
width = 1192;
}
);
metricLeft = n;
metricRight = o;
note = p;
unicode = 112;
},
{
glyphname = q;
kernLeft = q;
kernRight = q;
lastChange = "2020-02-20 18:21:12 +0000";
layers = (
{
layerId = "CAA188E2-8C62-414B-93AE-B576BEB044DB";
shapes = (
{
closed = 1;
nodes = (
(836,-30,o),
(998,220,o),
(998,542,cs),
(998,870,o),
(836,1110,o),
(534,1110,cs),
(244,1110,o),
(80,860,o),
(80,542,cs),
(80,218,o),
(244,-30,o),
(550,-30,cs)
);
},
{
closed = 1;
nodes = (
(300,54,o),
(170,264,o),
(170,542,cs),
(170,818,o),
(292,1026,o),
(550,1026,cs),
(802,1026,o),
(934,824,o),
(934,542,cs),
(934,264,o),
(804,54,o),
(550,54,cs)
);
},
{
closed = 1;
nodes = (
(1012,-480,l),
(1012,1080,l),
(934,1080,l),
(934,230,l),
(928,230,l),
(928,-480,l)
);
}
);
width = 1152;
},
{
layerId = "0DA27741-1AFD-43F2-A947-40AFBF8D6498";
shapes = (
{
closed = 1;
nodes = (
(900,-30,o),
(1064,216,o),
(1064,540,cs),
(1064,864,o),
(900,1110,o),
(592,1110,cs),
(282,1110,o),
(80,870,o),
(80,540,cs),
(80,216,o),
(280,-30,o),
(578,-30,cs)
);
},
{
closed = 1;
nodes = (
(446,212,o),
(368,358,o),
(368,540,cs),
(368,720,o),
(450,868,o),
(632,868,cs),
(802,868,o),
(870,736,o),
(870,540,cs),
(870,344,o),
(804,212,o),
(622,212,cs)
);
},
{
closed = 1;
nodes = (
(1110,-480,l),
(1110,1080,l),
(870,1080,l),
(870,340,l),
(836,340,l),
(836,-480,l)
);
}
);
width = 1250;
},
{
associatedMasterId = "0DA27741-1AFD-43F2-A947-40AFBF8D6498";
layerId = "A2873047-0ED6-4C67-9B4D-3870B51BD5C6";
width = 1200;
},
{
associatedMasterId = "0DA27741-1AFD-43F2-A947-40AFBF8D6498";
layerId = "55314CA7-5524-4D70-B802-98D4FAE25636";
width = 1146;
},
{
associatedMasterId = "0DA27741-1AFD-43F2-A947-40AFBF8D6498";
layerId = "13A3DD5D-E91B-4961-8595-F8141D3FA442";
width = 1192;
}
);
metricRight = u;
note = q;
unicode = 113;
},
{
glyphname = r;
kernLeft = r;
kernRight = r;
lastChange = "2020-02-20 18:21:12 +0000";
layers = (
{
layerId = "CAA188E2-8C62-414B-93AE-B576BEB044DB";
shapes = (
{
closed = 1;
nodes = (
(224,0,l),
(224,532,ls),
(224,664,o),
(224,830,o),
(338,936,cs),
(424,1016,o),
(530,1020,o),
(620,1000,c),
(620,1080,l),
(526,1110,o),
(374,1086,o),
(286,1000,cs),
(252,968,o),
(214,914,o),
(192,856,c),
(218,822,l),
(218,1080,l),
(140,1080,l),
(140,0,l)
);
}
);
width = 670;
},
{
layerId = "0DA27741-1AFD-43F2-A947-40AFBF8D6498";
shapes = (
{
closed = 1;
nodes = (
(414,0,l),
(414,552,ls),
(414,676,o),
(466,764,o),
(562,808,cs),
(626,838,o),
(714,844,o),
(774,826,c),
(774,1080,l),
(676,1092,o),
(574,1076,o),
(496,1028,cs),
(428,988,o),
(382,924,o),
(354,850,c),
(380,816,l),
(380,1080,l),
(140,1080,l),
(140,0,l)
);
}
);
width = 824;
},
{
associatedMasterId = "0DA27741-1AFD-43F2-A947-40AFBF8D6498";
layerId = "A2873047-0ED6-4C67-9B4D-3870B51BD5C6";
width = 1200;
},
{
associatedMasterId = "0DA27741-1AFD-43F2-A947-40AFBF8D6498";
layerId = "55314CA7-5524-4D70-B802-98D4FAE25636";
width = 648;
},
{
associatedMasterId = "0DA27741-1AFD-43F2-A947-40AFBF8D6498";
layerId = "13A3DD5D-E91B-4961-8595-F8141D3FA442";
width = 1112;
}
);
note = r;
unicode = 114;
},
{
glyphname = s;
kernLeft = s;
kernRight = s;
lastChange = "2020-02-20 18:21:12 +0000";
layers = (
{
background = {
shapes = (
{
closed = 1;
nodes = (
(930,976,o),
(758,1110,o),
(508,1110,cs),
(306,1110,o),
(112,1012,o),
(112,820,cs),
(112,660,o),
(248,598,o),
(404,554,cs),
(488,530,o),
(552,512,o),
(602,498,cs),
(742,460,o),
(856,426,o),
(856,284,cs),
(856,138,o),
(716,56,o),
(544,56,cs),
(378,56,o),
(208,116,o),
(166,276,c),
(80,260,l),
(124,56,o),
(322,-28,o),
(536,-28,cs),
(776,-28,o),
(946,78,o),
(946,292,cs),
(946,460,o),
(812,532,o),
(636,578,cs),
(530,606,o),
(456,624,o),
(404,640,cs),
(272,676,o),
(200,732,o),
(200,820,cs),
(200,942,o),
(326,1030,o),
(506,1026,cs),
(672,1022,o),
(830,964,o),
(862,782,c),
(948,798,l)
);
}
);
};
layerId = "CAA188E2-8C62-414B-93AE-B576BEB044DB";
shapes = (
{
closed = 1;
nodes = (
(790,-28,o),
(946,90,o),
(946,286,cs),
(946,452,o),
(854,524,o),
(530,606,cs),
(274,670,o),
(200,720,o),
(200,822,cs),
(200,944,o),
(326,1028,o),
(506,1026,cs),
(698,1026,o),
(836,932,o),
(862,782,c),
(948,798,l),
(930,982,o),
(750,1110,o),
(512,1110,cs),
(276,1110,o),
(112,990,o),
(112,818,cs),
(112,674,o),
(198,610,o),
(506,526,cs),
(800,446,o),
(856,408,o),
(856,290,cs),
(856,146,o),
(732,56,o),
(536,56,cs),
(344,56,o),
(202,142,o),
(166,276,c),
(80,260,l),
(118,80,o),
(290,-28,o),
(534,-28,cs)
);
}
);
width = 1028;
},
{
background = {
shapes = (
{
closed = 1;
nodes = (
(974,1004,o),
(776,1110,o),
(544,1110,cs),
(320,1110,o),
(116,1000,o),
(116,780,cs),
(116,628,o),
(204,528,o),
(346,488,cs),
(422,466,o),
(512,442,o),
(614,414,cs),
(692,392,o),
(736,364,o),
(736,308,cs),
(736,238,o),
(668,204,o),
(582,204,cs),
(466,204,o),
(380,260,o),
(358,366,c),
(80,324,l),
(122,78,o),
(304,-30,o),
(576,-30,cs),
(822,-30,o),
(1014,96,o),
(1014,320,cs),
(1014,504,o),
(904,588,o),
(674,646,cs),
(596,666,o),
(544,680,o),
(490,696,cs),
(424,716,o),
(386,740,o),
(386,794,cs),
(386,848,o),
(460,880,o),
(552,876,cs),
(650,872,o),
(716,816,o),
(726,740,c),
(1004,790,l)
);
}
);
};
layerId = "0DA27741-1AFD-43F2-A947-40AFBF8D6498";
shapes = (
{
closed = 1;
nodes = (
(844,-30,o),
(1014,104,o),
(1014,326,cs),
(1014,494,o),
(920,582,o),
(674,646,cs),
(422,710,o),
(386,728,o),
(386,784,cs),
(386,846,o),
(452,882,o),
(552,876,cs),
(654,868,o),
(716,820,o),
(726,740,c),
(1004,790,l),
(976,986,o),
(800,1110,o),
(546,1110,cs),
(284,1110,o),
(116,978,o),
(116,770,cs),
(116,604,o),
(212,520,o),
(476,452,cs),
(710,390,o),
(736,376,o),
(736,312,cs),
(736,244,o),
(680,204,o),
(582,204,cs),
(462,204,o),
(380,264,o),
(358,366,c),
(80,324,l),
(116,98,o),
(290,-30,o),
(562,-30,cs)
);
}
);
width = 1094;
},
{
associatedMasterId = "0DA27741-1AFD-43F2-A947-40AFBF8D6498";
layerId = "A2873047-0ED6-4C67-9B4D-3870B51BD5C6";
width = 1200;
},
{
associatedMasterId = "0DA27741-1AFD-43F2-A947-40AFBF8D6498";
layerId = "55314CA7-5524-4D70-B802-98D4FAE25636";
width = 1032;
},
{
associatedMasterId = "0DA27741-1AFD-43F2-A947-40AFBF8D6498";
layerId = "13A3DD5D-E91B-4961-8595-F8141D3FA442";
width = 1174;
}
);
note = s;
unicode = 115;
},
{
glyphname = t;
kernLeft = t;
kernRight = t;
lastChange = "2020-03-06 05:46:35 +0000";
layers = (
{
layerId = "CAA188E2-8C62-414B-93AE-B576BEB044DB";
shapes = (
{
closed = 1;
nodes = (
(698,80,l),
(530,52,o),
(428,68,o),
(380,164,cs),
(354,214,o),
(358,264,o),
(358,358,cs),
(358,1380,l),
(274,1380,l),
(274,358,ls),
(274,264,o),
(272,196,o),
(304,126,cs),
(366,-10,o),
(536,-36,o),
(698,0,c)
);
},
{
closed = 1;
nodes = (
(698,996,l),
(698,1080,l),
(20,1080,l),
(20,996,l)
);
}
);
width = 758;
},
{
layerId = "0DA27741-1AFD-43F2-A947-40AFBF8D6498";
shapes = (
{
closed = 1;
nodes = (
(788,226,l),
(660,208,o),
(546,204,o),
(498,280,cs),
(472,320,o),
(476,390,o),
(476,474,cs),
(476,1380,l),
(204,1380,l),
(204,458,ls),
(204,328,o),
(194,232,o),
(248,134,cs),
(336,-24,o),
(564,-42,o),
(788,0,c)
);
},
{
closed = 1;
nodes = (
(788,870,l),
(788,1080,l),
(20,1080,l),
(20,870,l)
);
}
);
width = 888;
},
{
associatedMasterId = "0DA27741-1AFD-43F2-A947-40AFBF8D6498";
layerId = "A2873047-0ED6-4C67-9B4D-3870B51BD5C6";
width = 1200;
},
{
associatedMasterId = "0DA27741-1AFD-43F2-A947-40AFBF8D6498";
layerId = "55314CA7-5524-4D70-B802-98D4FAE25636";
width = 632;
},
{
associatedMasterId = "0DA27741-1AFD-43F2-A947-40AFBF8D6498";
layerId = "13A3DD5D-E91B-4961-8595-F8141D3FA442";
width = 1110;
}
);
note = t;
unicode = 116;
},
{
glyphname = u;
kernLeft = u;
kernRight = u;
lastChange = "2020-02-20 18:21:12 +0000";
layers = (
{
layerId = "CAA188E2-8C62-414B-93AE-B576BEB044DB";
shapes = (
{
closed = 1;
nodes = (
(796,-24,o),
(1000,122,o),
(1000,492,c),
(922,490,l),
(922,258,o),
(822,58,o),
(558,58,cs),
(334,58,o),
(204,200,o),
(204,508,cs),
(204,1080,l),
(120,1080,l),
(120,492,ls),
(120,172,o),
(284,-24,o),
(558,-24,cs)
);
},
{
closed = 1;
nodes = (
(1006,0,l),
(1006,1080,l),
(922,1080,l),
(922,220,l),
(928,220,l),
(928,0,l)
);
}
);
width = 1146;
},
{
layerId = "0DA27741-1AFD-43F2-A947-40AFBF8D6498";
shapes = (
{
closed = 1;
nodes = (
(860,-32,o),
(1014,202,o),
(1014,458,c),
(858,532,l),
(858,264,o),
(722,224,o),
(628,224,cs),
(396,224,o),
(396,472,o),
(396,570,cs),
(396,1080,l),
(120,1080,l),
(120,474,ls),
(120,384,o),
(120,-32,o),
(542,-32,cs)
);
},
{
closed = 1;
nodes = (
(1132,0,l),
(1132,1080,l),
(858,1080,l),
(858,358,l),
(892,358,l),
(892,0,l)
);
}
);
width = 1272;
},
{
associatedMasterId = "0DA27741-1AFD-43F2-A947-40AFBF8D6498";
layerId = "A2873047-0ED6-4C67-9B4D-3870B51BD5C6";
width = 1200;
},
{
associatedMasterId = "0DA27741-1AFD-43F2-A947-40AFBF8D6498";
layerId = "55314CA7-5524-4D70-B802-98D4FAE25636";
width = 1128;
},
{
associatedMasterId = "0DA27741-1AFD-43F2-A947-40AFBF8D6498";
layerId = "13A3DD5D-E91B-4961-8595-F8141D3FA442";
width = 1188;
}
);
note = u;
unicode = 117;
},
{
glyphname = v;
kernLeft = v;
kernRight = v;
lastChange = "2020-02-20 18:21:12 +0000";
layers = (
{
layerId = "CAA188E2-8C62-414B-93AE-B576BEB044DB";
shapes = (
{
closed = 1;
nodes = (
(524,0,l),
(916,1080,l),
(826,1080,l),
(478,122,l),
(128,1080,l),
(40,1080,l),
(432,0,l)
);
}
);
width = 956;
},
{
layerId = "0DA27741-1AFD-43F2-A947-40AFBF8D6498";
shapes = (
{
closed = 1;
nodes = (
(704,0,l),
(1096,1080,l),
(824,1080,l),
(568,332,l),
(312,1080,l),
(40,1080,l),
(432,0,l)
);
}
);
width = 1136;
},
{
associatedMasterId = "0DA27741-1AFD-43F2-A947-40AFBF8D6498";
layerId = "A2873047-0ED6-4C67-9B4D-3870B51BD5C6";
width = 1200;
},
{
associatedMasterId = "0DA27741-1AFD-43F2-A947-40AFBF8D6498";
layerId = "55314CA7-5524-4D70-B802-98D4FAE25636";
width = 952;
},
{
associatedMasterId = "0DA27741-1AFD-43F2-A947-40AFBF8D6498";
layerId = "13A3DD5D-E91B-4961-8595-F8141D3FA442";
width = 1160;
}
);
unicode = 118;
},
{
glyphname = w;
kernLeft = v;
kernRight = v;
lastChange = "2020-03-10 05:44:50 +0000";
layers = (
{
layerId = "CAA188E2-8C62-414B-93AE-B576BEB044DB";
shapes = (
{
closed = 1;
nodes = (
(458,0,l),
(744,938,l),
(1030,0,l),
(1118,0,l),
(1448,1080,l),
(1362,1080,l),
(1074,144,l),
(788,1080,l),
(700,1080,l),
(414,144,l),
(128,1080,l),
(40,1080,l),
(370,0,l)
);
}
);
width = 1488;
},
{
layerId = "0DA27741-1AFD-43F2-A947-40AFBF8D6498";
shapes = (
{
closed = 1;
nodes = (
(578,0,l),
(814,704,l),
(1050,0,l),
(1258,0,l),
(1588,1080,l),
(1322,1080,l),
(1126,436,l),
(927,1080,l),
(701,1080,l),
(502,436,l),
(306,1080,l),
(40,1082,l),
(370,0,l)
);
}
);
width = 1628;
},
{
associatedMasterId = "0DA27741-1AFD-43F2-A947-40AFBF8D6498";
layerId = "A2873047-0ED6-4C67-9B4D-3870B51BD5C6";
width = 1200;
},
{
associatedMasterId = "0DA27741-1AFD-43F2-A947-40AFBF8D6498";
layerId = "55314CA7-5524-4D70-B802-98D4FAE25636";
width = 1618;
},
{
associatedMasterId = "0DA27741-1AFD-43F2-A947-40AFBF8D6498";
layerId = "13A3DD5D-E91B-4961-8595-F8141D3FA442";
width = 1266;
}
);
note = w;
unicode = 119;
},
{
glyphname = x;
kernLeft = x;
kernRight = x;
lastChange = "2020-02-20 18:21:12 +0000";
layers = (
{
layerId = "CAA188E2-8C62-414B-93AE-B576BEB044DB";
shapes = (
{
closed = 1;
nodes = (
(126,0,l),
(510,484,l),
(892,0,l),
(998,0,l),
(558,546,l),
(988,1080,l),
(884,1080,l),
(510,608,l),
(134,1080,l),
(30,1080,l),
(460,546,l),
(20,0,l)
);
}
);
width = 1018;
},
{
layerId = "0DA27741-1AFD-43F2-A947-40AFBF8D6498";
shapes = (
{
closed = 1;
nodes = (
(340,0,l),
(564,332,l),
(786,0,l),
(1106,0,l),
(718,546,l),
(1096,1080,l),
(776,1080,l),
(564,760,l),
(348,1080,l),
(28,1080,l),
(406,546,l),
(20,0,l)
);
}
);
width = 1126;
},
{
associatedMasterId = "0DA27741-1AFD-43F2-A947-40AFBF8D6498";
layerId = "A2873047-0ED6-4C67-9B4D-3870B51BD5C6";
width = 1200;
},
{
associatedMasterId = "0DA27741-1AFD-43F2-A947-40AFBF8D6498";
layerId = "55314CA7-5524-4D70-B802-98D4FAE25636";
width = 968;
},
{
associatedMasterId = "0DA27741-1AFD-43F2-A947-40AFBF8D6498";
layerId = "13A3DD5D-E91B-4961-8595-F8141D3FA442";
width = 1162;
}
);
note = x;
unicode = 120;
},
{
glyphname = y;
kernLeft = y;
kernRight = y;
lastChange = "2022-10-20 08:34:08 +0000";
layers = (
{
layerId = "CAA188E2-8C62-414B-93AE-B576BEB044DB";
shapes = (
{
closed = 1;
nodes = (
(396,-480,l),
(962,1080,l),
(872,1080,l),
(492,32,l),
(556,32,l),
(132,1080,l),
(40,1080,l),
(514,-84,l),
(512,84,l),
(302,-480,l)
);
}
);
width = 1012;
},
{
layerId = "0DA27741-1AFD-43F2-A947-40AFBF8D6498";
shapes = (
{
closed = 1;
nodes = (
(118,-415,l),
(375,-415,ls),
(596,-415,o),
(621,-314,o),
(700,-112,cs),
(1157,1060,l),
(845,1060,l),
(569,232,l),
(618,232,l),
(335,1060,l),
(25,1060,l),
(461,-76,l),
(459,61,l),
(393,-112,o),
(392,-170,o),
(282,-170,cs),
(118,-170,l)
);
}
);
width = 1182;
},
{
associatedMasterId = "0DA27741-1AFD-43F2-A947-40AFBF8D6498";
layerId = "A2873047-0ED6-4C67-9B4D-3870B51BD5C6";
width = 1200;
},
{
associatedMasterId = "0DA27741-1AFD-43F2-A947-40AFBF8D6498";
layerId = "55314CA7-5524-4D70-B802-98D4FAE25636";
width = 912;
},
{
associatedMasterId = "0DA27741-1AFD-43F2-A947-40AFBF8D6498";
layerId = "13A3DD5D-E91B-4961-8595-F8141D3FA442";
width = 1154;
},
{
associatedMasterId = "0DA27741-1AFD-43F2-A947-40AFBF8D6498";
layerId = "0945A77F-B33F-4B17-8B55-225B30755A13";
name = "Dec 28 18, 16:43";
shapes = (
{
closed = 1;
nodes = (
(606,314,l),
(338,1080,l),
(66,1080,l),
(480,-30,l),
(286,-480,l),
(558,-480,l),
(1152,1080,l),
(880,1080,l)
);
},
{
pos = (26,0);
ref = y2.alt;
}
);
width = 1172;
}
);
note = y;
unicode = 121;
},
{
glyphname = z;
kernLeft = z;
kernRight = z;
lastChange = "2020-02-20 18:21:12 +0000";
layers = (
{
layerId = "CAA188E2-8C62-414B-93AE-B576BEB044DB";
shapes = (
{
closed = 1;
nodes = (
(926,0,l),
(926,88,l),
(194,88,l),
(974,1046,l),
(974,1080,l),
(88,1080,l),
(88,992,l),
(820,992,l),
(40,30,l),
(40,0,l)
);
}
);
width = 1054;
},
{
layerId = "0DA27741-1AFD-43F2-A947-40AFBF8D6498";
shapes = (
{
closed = 1;
nodes = (
(970,0,l),
(970,236,l),
(462,236,l),
(990,1046,l),
(990,1080,l),
(100,1080,l),
(100,844,l),
(570,844,l),
(40,34,l),
(40,0,l)
);
}
);
width = 1070;
},
{
associatedMasterId = "0DA27741-1AFD-43F2-A947-40AFBF8D6498";
layerId = "A2873047-0ED6-4C67-9B4D-3870B51BD5C6";
width = 1200;
},
{
associatedMasterId = "0DA27741-1AFD-43F2-A947-40AFBF8D6498";
layerId = "55314CA7-5524-4D70-B802-98D4FAE25636";
width = 1070;
},
{
associatedMasterId = "0DA27741-1AFD-43F2-A947-40AFBF8D6498";
layerId = "13A3DD5D-E91B-4961-8595-F8141D3FA442";
width = 1180;
}
);
note = z;
unicode = 122;
},
{
glyphname = d.001;
kernLeft = o;
kernRight = u;
lastChange = "2022-10-20 08:23:14 +0000";
layers = (
{
layerId = "CAA188E2-8C62-414B-93AE-B576BEB044DB";
shapes = (
{
closed = 1;
nodes = (
(836,-30,o),
(998,220,o),
(998,542,cs),
(998,870,o),
(836,1110,o),
(534,1110,cs),
(244,1110,o),
(80,860,o),
(80,542,cs),
(80,218,o),
(244,-30,o),
(550,-30,cs)
);
},
{
closed = 1;
nodes = (
(300,54,o),
(170,264,o),
(170,542,cs),
(170,818,o),
(292,1026,o),
(550,1026,cs),
(802,1026,o),
(934,824,o),
(934,542,cs),
(934,264,o),
(804,54,o),
(550,54,cs)
);
},
{
closed = 1;
nodes = (
(1012,0,l),
(1012,1440,l),
(928,1440,l),
(928,850,l),
(934,850,l),
(934,0,l)
);
}
);
width = 1152;
},
{
layerId = "0DA27741-1AFD-43F2-A947-40AFBF8D6498";
width = 1250;
},
{
associatedMasterId = "0DA27741-1AFD-43F2-A947-40AFBF8D6498";
layerId = "A2873047-0ED6-4C67-9B4D-3870B51BD5C6";
width = 1200;
},
{
associatedMasterId = "0DA27741-1AFD-43F2-A947-40AFBF8D6498";
layerId = "55314CA7-5524-4D70-B802-98D4FAE25636";
width = 1150;
},
{
associatedMasterId = "0DA27741-1AFD-43F2-A947-40AFBF8D6498";
layerId = "13A3DD5D-E91B-4961-8595-F8141D3FA442";
width = 1192;
}
);
note = d;
},
{
glyphname = a.ss01;
kernLeft = a;
kernRight = a;
lastChange = "2022-10-20 08:34:14 +0000";
layers = (
{
background = {
shapes = (
{
closed = 1;
nodes = (
(628,-30,o),
(796,36,o),
(886,196,c),
(886,0,l),
(964,0,l),
(964,676,l),
(964,732,o),
(960,782,o),
(946,834,cs),
(898,1008,o),
(766,1110,o),
(566,1110,cs),
(336,1110,o),
(166,1020,o),
(122,822,c),
(210,794,l),
(254,964,o),
(382,1026,o),
(560,1026,cs),
(772,1026,o),
(880,896,o),
(880,664,c),
(676,638,o),
(508,624,o),
(352,588,cs),
(156,542,o),
(80,426,o),
(80,292,cs),
(80,92,o),
(234,-30,o),
(434,-30,cs)
);
},
{
closed = 1;
nodes = (
(280,54,o),
(168,140,o),
(168,292,cs),
(168,404,o),
(250,476,o),
(380,512,cs),
(528,554,o),
(688,562,o),
(880,582,c),
(880,502,o),
(878,362,o),
(832,268,cs),
(760,122,o),
(618,54,o),
(436,54,cs)
);
}
);
};
hints = (
{
horizontal = 1;
place = (-30, 84);
place = (-30, 84);
type = Stem;
},
{
horizontal = 1;
place = (580, 84);
place = (580, 84);
type = Stem;
},
{
horizontal = 1;
place = (1110, 84);
place = (1110, 84);
type = Stem;
},
{
horizontal = 1;
place = (0, 21);
target = up;
type = BottomGhost;
},
{
place = (80, 88);
place = (80, 88);
type = Stem;
},
{
place = (872, 92);
place = (872, 92);
type = Stem;
},
{
place = (886, 78);
place = (886, 78);
type = Stem;
}
);
layerId = "CAA188E2-8C62-414B-93AE-B576BEB044DB";
width = 1192;
},
{
background = {
shapes = (
{
closed = 1;
nodes = (
(620,-30,o),
(714,24,o),
(808,132,c),
(808,0,l),
(1046,0,l),
(1046,644,ls),
(1046,718,o),
(1040,784,o),
(1022,840,cs),
(964,1018,o),
(814,1110,o),
(588,1110,c),
(348,1110,o),
(190,968,o),
(118,804,c),
(362,730,l),
(400,820,o),
(486,862,o),
(580,862,cs),
(674,862,o),
(762,824,o),
(776,714,c),
(600,688,o),
(414,668,o),
(274,606,cs),
(162,556,o),
(80,466,o),
(80,308,cs),
(80,106,o),
(218,-30,o),
(436,-30,cs)
);
},
{
closed = 1;
nodes = (
(394,182,o),
(346,244,o),
(346,302,cs),
(346,374,o),
(404,412,o),
(484,434,cs),
(568,458,o),
(632,470,o),
(776,494,c),
(776,444,o),
(772,366,o),
(740,312,cs),
(696,240,o),
(600,182,o),
(500,182,cs)
);
}
);
};
hints = (
{
horizontal = 1;
place = (-30, 328);
place = (-30, 328);
type = Stem;
},
{
horizontal = 1;
place = (494, 194);
place = (494, 194);
type = Stem;
},
{
horizontal = 1;
place = (1073, 248);
place = (1073, 248);
type = Stem;
},
{
horizontal = 1;
place = (0, 21);
target = up;
type = BottomGhost;
},
{
place = (808, 238);
place = (808, 238);
type = Stem;
},
{
place = (80, 266);
place = (80, 266);
type = Stem;
},
{
place = (780, 266);
place = (780, 266);
type = Stem;
},
{
place = (748, 298);
place = (748, 298);
type = Stem;
}
);
layerId = "0DA27741-1AFD-43F2-A947-40AFBF8D6498";
width = 1270;
},
{
associatedMasterId = "0DA27741-1AFD-43F2-A947-40AFBF8D6498";
layerId = "A2873047-0ED6-4C67-9B4D-3870B51BD5C6";
width = 1200;
},
{
associatedMasterId = "0DA27741-1AFD-43F2-A947-40AFBF8D6498";
layerId = "55314CA7-5524-4D70-B802-98D4FAE25636";
width = 1070;
},
{
associatedMasterId = "0DA27741-1AFD-43F2-A947-40AFBF8D6498";
layerId = "13A3DD5D-E91B-4961-8595-F8141D3FA442";
width = 1180;
}
);
metricRight = n;
note = a;
},
{
glyphname = l.tall;
kernLeft = i;
kernRight = i;
lastChange = "2021-12-21 12:29:50 +0000";
layers = (
{
layerId = "CAA188E2-8C62-414B-93AE-B576BEB044DB";
shapes = (
{
closed = 1;
nodes = (
(244,0,l),
(244,1560,l),
(160,1560,l),
(160,0,l)
);
}
);
width = 404;
},
{
layerId = "0DA27741-1AFD-43F2-A947-40AFBF8D6498";
shapes = (
{
closed = 1;
nodes = (
(432,0,l),
(432,1560,l),
(160,1560,l),
(160,0,l)
);
}
);
width = 592;
},
{
associatedMasterId = "0DA27741-1AFD-43F2-A947-40AFBF8D6498";
layerId = "A2873047-0ED6-4C67-9B4D-3870B51BD5C6";
width = 1200;
},
{
associatedMasterId = "0DA27741-1AFD-43F2-A947-40AFBF8D6498";
layerId = "55314CA7-5524-4D70-B802-98D4FAE25636";
width = 326;
},
{
associatedMasterId = "0DA27741-1AFD-43F2-A947-40AFBF8D6498";
layerId = "13A3DD5D-E91B-4961-8595-F8141D3FA442";
width = 1060;
}
);
note = l;
},
{
glyphname = y.001;
kernLeft = y;
kernRight = y;
lastChange = "2022-10-20 08:33:56 +0000";
layers = (
{
layerId = "CAA188E2-8C62-414B-93AE-B576BEB044DB";
shapes = (
{
closed = 1;
nodes = (
(396,-480,l),
(962,1080,l),
(872,1080,l),
(492,32,l),
(556,32,l),
(132,1080,l),
(40,1080,l),
(514,-84,l),
(512,84,l),
(302,-480,l)
);
}
);
width = 1012;
},
{
layerId = "0DA27741-1AFD-43F2-A947-40AFBF8D6498";
width = 1140;
},
{
associatedMasterId = "0DA27741-1AFD-43F2-A947-40AFBF8D6498";
layerId = "A2873047-0ED6-4C67-9B4D-3870B51BD5C6";
width = 1200;
},
{
associatedMasterId = "0DA27741-1AFD-43F2-A947-40AFBF8D6498";
layerId = "55314CA7-5524-4D70-B802-98D4FAE25636";
width = 912;
},
{
associatedMasterId = "0DA27741-1AFD-43F2-A947-40AFBF8D6498";
layerId = "13A3DD5D-E91B-4961-8595-F8141D3FA442";
width = 1154;
},
{
associatedMasterId = "0DA27741-1AFD-43F2-A947-40AFBF8D6498";
layerId = "0945A77F-B33F-4B17-8B55-225B30755A13";
name = "Dec 28 18, 16:43";
shapes = (
{
closed = 1;
nodes = (
(606,314,l),
(338,1080,l),
(66,1080,l),
(480,-30,l),
(286,-480,l),
(558,-480,l),
(1152,1080,l),
(880,1080,l)
);
},
{
pos = (26,0);
ref = y2.alt;
}
);
width = 1172;
}
);
note = y;
},
{
glyphname = fl;
kernLeft = f;
kernRight = l;
lastChange = "2020-02-20 18:21:12 +0000";
layers = (
{
layerId = "CAA188E2-8C62-414B-93AE-B576BEB044DB";
shapes = (
{
closed = 1;
nodes = (
(938,996,l),
(938,1080,l),
(618,1080,l),
(618,996,l)
);
},
{
ref = f;
},
{
pos = (758,0);
ref = l;
}
);
width = 1162;
},
{
layerId = "0DA27741-1AFD-43F2-A947-40AFBF8D6498";
shapes = (
{
closed = 1;
nodes = (
(1000,870,l),
(1000,1080,l),
(740,1080,l),
(740,870,l)
);
},
{
ref = f;
},
{
pos = (830,0);
ref = l;
}
);
width = 1422;
},
{
associatedMasterId = "0DA27741-1AFD-43F2-A947-40AFBF8D6498";
layerId = "A2873047-0ED6-4C67-9B4D-3870B51BD5C6";
width = 1200;
},
{
associatedMasterId = "0DA27741-1AFD-43F2-A947-40AFBF8D6498";
layerId = "55314CA7-5524-4D70-B802-98D4FAE25636";
width = 1320;
},
{
associatedMasterId = "0DA27741-1AFD-43F2-A947-40AFBF8D6498";
layerId = "13A3DD5D-E91B-4961-8595-F8141D3FA442";
width = 1220;
}
);
metricLeft = f;
metricRight = l;
unicode = 64258;
},
{
glyphname = ordfeminine;
lastChange = "2020-10-22 02:52:33 +0000";
layers = (
{
hints = (
{
horizontal = 1;
place = (-30, 84);
place = (-30, 84);
type = Stem;
},
{
horizontal = 1;
place = (580, 84);
place = (580, 84);
type = Stem;
},
{
horizontal = 1;
place = (1110, 84);
place = (1110, 84);
type = Stem;
},
{
horizontal = 1;
place = (0, 21);
target = up;
type = BottomGhost;
},
{
place = (80, 88);
place = (80, 88);
type = Stem;
},
{
place = (872, 92);
place = (872, 92);
type = Stem;
},
{
place = (886, 78);
place = (886, 78);
type = Stem;
}
);
layerId = "CAA188E2-8C62-414B-93AE-B576BEB044DB";
shapes = (
{
closed = 1;
nodes = (
(366,540,o),
(438,582,o),
(479,666,c),
(464,684,l),
(464,555,l),
(543,555,l),
(543,889,ls),
(543,932,o),
(540,971,o),
(525,1005,cs),
(494,1075,o),
(421,1110,o),
(323,1110,cs),
(201,1110,o),
(126,1053,o),
(100,958,c),
(185,933,l),
(204,999,o),
(257,1027,o),
(322,1027,cs),
(429,1027,o),
(462,974,o),
(454,861,c),
(484,904,l),
(399,892,o),
(288,880,o),
(213,860,cs),
(131,836,o),
(80,786,o),
(80,701,cs),
(80,614,o),
(143,540,o),
(264,540,cs)
);
},
{
closed = 1;
nodes = (
(200,615,o),
(169,657,o),
(169,702,cs),
(169,752,o),
(208,777,o),
(253,791,cs),
(313,808,o),
(400,816,o),
(488,829,c),
(454,844,l),
(454,826,o),
(456,774,o),
(445,739,c),
(432,672,o),
(373,615,o),
(277,615,cs)
);
}
);
width = 623;
},
{
hints = (
{
horizontal = 1;
origin = (0,32);
target = (0,29);
type = Stem;
},
{
horizontal = 1;
place = (494, 194);
place = (494, 194);
type = Stem;
},
{
horizontal = 1;
origin = (0,12);
target = (0,19);
type = Stem;
},
{
horizontal = 1;
origin = (0,4);
target = up;
type = BottomGhost;
},
{
origin = (0,4);
target = (0,5);
type = Stem;
},
{
origin = (0,29);
target = (1,2);
type = Stem;
},
{
origin = (0,22);
target = (0,5);
type = Stem;
},
{
origin = (1,12);
target = (0,5);
type = Stem;
}
);
layerId = "0DA27741-1AFD-43F2-A947-40AFBF8D6498";
shapes = (
{
closed = 1;
nodes = (
(353,540,o),
(408,570,o),
(461,643,c),
(444,666,l),
(444,555,l),
(563,555,l),
(563,885,ls),
(563,934,o),
(562,972,o),
(541,1012,cs),
(503,1084,o),
(425,1110,o),
(330,1110,cs),
(200,1110,o),
(126,1048,o),
(99,959,c),
(222,920,l),
(239,969,o),
(290,986,o),
(330,986,cs),
(402,986,o),
(430,957,o),
(430,893,c),
(479,920,l),
(353,901,o),
(258,889,o),
(198,867,cs),
(111,835,o),
(80,779,o),
(80,704,cs),
(80,614,o),
(144,540,o),
(260,540,cs)
);
},
{
closed = 1;
nodes = (
(242,647,o),
(213,669,o),
(213,706,cs),
(213,733,o),
(229,752,o),
(269,768,cs),
(304,781,o),
(347,789,o),
(468,809,c),
(428,819,l),
(428,793,o),
(428,748,o),
(414,719,cs),
(403,696,o),
(364,647,o),
(289,647,cs)
);
}
);
width = 643;
}
);
unicode = 170;
},
{
glyphname = ordmasculine;
lastChange = "2020-10-22 02:59:40 +0000";
layers = (
{
layerId = "CAA188E2-8C62-414B-93AE-B576BEB044DB";
shapes = (
{
closed = 1;
nodes = (
(501,540,o),
(601,656,o),
(601,826,cs),
(601,993,o),
(502,1110,o),
(340,1110,cs),
(182,1110,o),
(80,995,o),
(80,826,cs),
(80,658,o),
(179,540,o),
(340,540,cs)
);
},
{
closed = 1;
nodes = (
(231,625,o),
(175,704,o),
(175,826,cs),
(175,944,o),
(227,1026,o),
(340,1026,cs),
(451,1026,o),
(506,947,o),
(506,826,cs),
(506,707,o),
(452,625,o),
(340,625,cs)
);
}
);
width = 681;
},
{
layerId = "0DA27741-1AFD-43F2-A947-40AFBF8D6498";
shapes = (
{
closed = 1;
nodes = (
(515,540,o),
(627,657,o),
(627,825,cs),
(627,992,o),
(516,1110,o),
(353,1110,cs),
(193,1110,o),
(80,994,o),
(80,825,cs),
(80,658,o),
(190,540,o),
(353,540,cs)
);
},
{
closed = 1;
nodes = (
(268,667,o),
(224,728,o),
(224,825,cs),
(224,919,o),
(264,983,o),
(353,983,cs),
(439,983,o),
(483,921,o),
(483,825,cs),
(483,732,o),
(440,667,o),
(353,667,cs)
);
}
);
width = 707;
}
);
unicode = 186;
},
{
glyphname = zero;
lastChange = "2020-02-20 18:21:12 +0000";
layers = (
{
layerId = "0DA27741-1AFD-43F2-A947-40AFBF8D6498";
shapes = (
{
closed = 1;
nodes = (
(994,-30,o),
(1208,184,o),
(1208,504,cs),
(1208,936,ls),
(1208,1256,o),
(994,1470,o),
(674,1470,cs),
(354,1470,o),
(140,1256,o),
(140,936,cs),
(140,504,ls),
(140,184,o),
(354,-30,o),
(674,-30,cs)
);
},
{
closed = 1;
nodes = (
(530,228,o),
(418,340,o),
(418,484,cs),
(418,958,ls),
(418,1102,o),
(530,1214,o),
(674,1214,cs),
(818,1214,o),
(930,1102,o),
(930,958,cs),
(930,484,ls),
(930,340,o),
(818,228,o),
(674,228,cs)
);
}
);
width = 1348;
},
{
layerId = "CAA188E2-8C62-414B-93AE-B576BEB044DB";
shapes = (
{
closed = 1;
nodes = (
(818,-30,o),
(1016,168,o),
(1016,408,cs),
(1016,1032,ls),
(1016,1272,o),
(818,1470,o),
(578,1470,cs),
(338,1470,o),
(140,1272,o),
(140,1032,cs),
(140,408,ls),
(140,168,o),
(338,-30,o),
(578,-30,cs)
);
},
{
closed = 1;
nodes = (
(384,54,o),
(224,214,o),
(224,408,cs),
(224,1032,ls),
(224,1226,o),
(384,1386,o),
(578,1386,cs),
(772,1386,o),
(932,1226,o),
(932,1032,cs),
(932,408,ls),
(932,214,o),
(772,54,o),
(578,54,cs)
);
}
);
width = 1156;
}
);
unicode = 48;
},
{
glyphname = one;
lastChange = "2020-02-20 18:21:12 +0000";
layers = (
{
layerId = "CAA188E2-8C62-414B-93AE-B576BEB044DB";
shapes = (
{
closed = 1;
nodes = (
(476,0,l),
(476,1440,l),
(392,1440,l),
(120,1278,l),
(120,1180,l),
(392,1342,l),
(392,0,l)
);
}
);
width = 716;
},
{
layerId = "0DA27741-1AFD-43F2-A947-40AFBF8D6498";
shapes = (
{
closed = 1;
nodes = (
(668,0,l),
(668,1440,l),
(390,1440,l),
(120,1278,l),
(120,978,l),
(390,1144,l),
(390,0,l)
);
}
);
width = 908;
},
{
associatedMasterId = "0DA27741-1AFD-43F2-A947-40AFBF8D6498";
layerId = "A2873047-0ED6-4C67-9B4D-3870B51BD5C6";
width = 1200;
},
{
associatedMasterId = "0DA27741-1AFD-43F2-A947-40AFBF8D6498";
layerId = "55314CA7-5524-4D70-B802-98D4FAE25636";
width = 682;
},
{
associatedMasterId = "0DA27741-1AFD-43F2-A947-40AFBF8D6498";
layerId = "13A3DD5D-E91B-4961-8595-F8141D3FA442";
width = 1118;
}
);
note = one;
unicode = 49;
},
{
glyphname = two;
lastChange = "2020-02-20 18:21:12 +0000";
layers = (
{
layerId = "CAA188E2-8C62-414B-93AE-B576BEB044DB";
shapes = (
{
closed = 1;
nodes = (
(1006,0,l),
(1006,84,l),
(136,84,l),
(160,24,l),
(832,636,ls),
(956,748,o),
(1006,860,o),
(1006,1024,cs),
(1006,1264,o),
(812,1470,o),
(560,1470,cs),
(314,1470,o),
(114,1270,o),
(114,1024,c),
(198,1024,l),
(198,1218,o),
(354,1386,o),
(560,1386,cs),
(760,1386,o),
(922,1224,o),
(922,1024,cs),
(922,904,o),
(898,808,o),
(776,698,cs),
(102,84,l),
(100,0,l)
);
}
);
width = 1106;
},
{
layerId = "0DA27741-1AFD-43F2-A947-40AFBF8D6498";
shapes = (
{
closed = 1;
nodes = (
(1108,2,l),
(1108,258,l),
(432,258,l),
(454,198,l),
(844,540,ls),
(1016,690,o),
(1108,768,o),
(1108,982,cs),
(1108,1272,o),
(898,1470,o),
(616,1470,cs),
(308,1470,o),
(100,1284,o),
(100,988,c),
(380,988,l),
(376,1108,o),
(472,1214,o),
(610,1214,cs),
(742,1214,o),
(828,1118,o),
(828,986,cs),
(828,924,o),
(794,854,o),
(704,774,cs),
(100,238,l),
(100,2,l)
);
}
);
width = 1208;
},
{
associatedMasterId = "0DA27741-1AFD-43F2-A947-40AFBF8D6498";
layerId = "A2873047-0ED6-4C67-9B4D-3870B51BD5C6";
width = 1200;
},
{
associatedMasterId = "0DA27741-1AFD-43F2-A947-40AFBF8D6498";
layerId = "55314CA7-5524-4D70-B802-98D4FAE25636";
width = 1022;
},
{
associatedMasterId = "0DA27741-1AFD-43F2-A947-40AFBF8D6498";
layerId = "13A3DD5D-E91B-4961-8595-F8141D3FA442";
width = 1172;
}
);
note = two;
unicode = 50;
},
{
glyphname = three;
lastChange = "2020-02-20 18:21:12 +0000";
layers = (
{
layerId = "CAA188E2-8C62-414B-93AE-B576BEB044DB";
shapes = (
{
closed = 1;
nodes = (
(772,-30,o),
(948,152,o),
(948,432,cs),
(948,758,o),
(704,952,o),
(380,876,c),
(382,826,l),
(936,1354,l),
(936,1440,l),
(138,1440,l),
(138,1356,l),
(904,1356,l),
(878,1418,l),
(268,832,l),
(318,764,l),
(374,790,o),
(446,808,o),
(504,808,cs),
(718,808,o),
(858,664,o),
(858,432,cs),
(858,204,o),
(734,60,o),
(508,54,cs),
(348,50,o),
(216,132,o),
(158,294,c),
(80,266,l),
(140,80,o),
(298,-30,o),
(510,-30,cs)
);
}
);
width = 1068;
},
{
layerId = "0DA27741-1AFD-43F2-A947-40AFBF8D6498";
shapes = (
{
closed = 1;
nodes = (
(832,-26,o),
(1062,182,o),
(1062,454,cs),
(1062,676,o),
(926,878,o),
(678,916,c),
(680,840,l),
(1036,1184,l),
(1036,1440,l),
(136,1440,l),
(136,1184,l),
(804,1184,l),
(784,1242,l),
(326,862,l),
(448,648,l),
(482,668,o),
(520,680,o),
(560,680,cs),
(692,680,o),
(786,578,o),
(786,454,cs),
(786,330,o),
(684,230,o),
(560,230,cs),
(464,230,o),
(372,290,o),
(344,396,c),
(80,326,l),
(142,112,o),
(344,-26,o),
(560,-26,cs)
);
}
);
width = 1182;
},
{
associatedMasterId = "0DA27741-1AFD-43F2-A947-40AFBF8D6498";
layerId = "A2873047-0ED6-4C67-9B4D-3870B51BD5C6";
width = 1200;
},
{
associatedMasterId = "0DA27741-1AFD-43F2-A947-40AFBF8D6498";
layerId = "55314CA7-5524-4D70-B802-98D4FAE25636";
width = 1088;
},
{
associatedMasterId = "0DA27741-1AFD-43F2-A947-40AFBF8D6498";
layerId = "13A3DD5D-E91B-4961-8595-F8141D3FA442";
width = 1182;
}
);
note = three;
unicode = 51;
},
{
glyphname = four;
kernLeft = A;
kernRight = o;
lastChange = "2020-02-20 18:21:12 +0000";
layers = (
{
layerId = "CAA188E2-8C62-414B-93AE-B576BEB044DB";
shapes = (
{
closed = 1;
nodes = (
(882,0,l),
(882,306,l),
(1054,306,l),
(1054,390,l),
(882,390,l),
(882,840,l),
(798,840,l),
(798,390,l),
(192,390,l),
(688,1440,l),
(596,1440,l),
(100,390,l),
(100,306,l),
(798,306,l),
(798,0,l)
);
}
);
width = 1154;
},
{
layerId = "0DA27741-1AFD-43F2-A947-40AFBF8D6498";
shapes = (
{
closed = 1;
nodes = (
(1002,0,l),
(1002,224,l),
(1130,224,l),
(1130,478,l),
(1002,478,l),
(1002,838,l),
(726,838,l),
(726,478,l),
(412,478,l),
(866,1440,l),
(554,1440,l),
(100,478,l),
(100,224,l),
(726,224,l),
(726,0,l)
);
}
);
width = 1230;
},
{
associatedMasterId = "0DA27741-1AFD-43F2-A947-40AFBF8D6498";
layerId = "A2873047-0ED6-4C67-9B4D-3870B51BD5C6";
width = 1200;
},
{
associatedMasterId = "0DA27741-1AFD-43F2-A947-40AFBF8D6498";
layerId = "55314CA7-5524-4D70-B802-98D4FAE25636";
width = 1062;
},
{
associatedMasterId = "0DA27741-1AFD-43F2-A947-40AFBF8D6498";
layerId = "13A3DD5D-E91B-4961-8595-F8141D3FA442";
width = 1178;
}
);
note = four;
unicode = 52;
},
{
glyphname = five;
lastChange = "2020-02-20 18:21:12 +0000";
layers = (
{
layerId = "CAA188E2-8C62-414B-93AE-B576BEB044DB";
shapes = (
{
closed = 1;
nodes = (
(828,-30,o),
(1044,192,o),
(1044,452,cs),
(1044,716,o),
(826,932,o),
(564,932,cs),
(410,932,o),
(274,860,o),
(188,748,c),
(220,702,l),
(264,1414,l),
(202,1356,l),
(940,1356,l),
(940,1440,l),
(180,1440,l),
(136,700,l),
(222,650,l),
(294,770,o),
(412,848,o),
(564,848,cs),
(776,848,o),
(960,676,o),
(960,452,cs),
(960,238,o),
(790,56,o),
(564,56,cs),
(390,56,o),
(226,170,o),
(180,352,c),
(100,330,l),
(156,122,o),
(336,-30,o),
(564,-30,cs)
);
}
);
width = 1144;
},
{
layerId = "0DA27741-1AFD-43F2-A947-40AFBF8D6498";
shapes = (
{
closed = 1;
nodes = (
(840,-30,o),
(1078,182,o),
(1078,454,cs),
(1078,726,o),
(890,922,o),
(618,922,cs),
(538,922,o),
(438,896,o),
(366,838,c),
(412,782,l),
(442,1276,l),
(346,1186,l),
(982,1186,l),
(982,1440,l),
(196,1440,l),
(152,674,l),
(382,604,l),
(414,634,o),
(476,678,o),
(578,678,cs),
(702,678,o),
(804,578,o),
(804,454,cs),
(804,330,o),
(702,230,o),
(578,230,cs),
(484,230,o),
(388,294,o),
(362,396,c),
(100,326,l),
(160,114,o),
(350,-30,o),
(568,-30,cs)
);
}
);
width = 1178;
},
{
associatedMasterId = "0DA27741-1AFD-43F2-A947-40AFBF8D6498";
layerId = "A2873047-0ED6-4C67-9B4D-3870B51BD5C6";
width = 1200;
},
{
associatedMasterId = "0DA27741-1AFD-43F2-A947-40AFBF8D6498";
layerId = "55314CA7-5524-4D70-B802-98D4FAE25636";
width = 1052;
},
{
associatedMasterId = "0DA27741-1AFD-43F2-A947-40AFBF8D6498";
layerId = "13A3DD5D-E91B-4961-8595-F8141D3FA442";
width = 1176;
}
);
note = five;
unicode = 53;
},
{
glyphname = six;
lastChange = "2020-02-20 18:21:12 +0000";
layers = (
{
layerId = "CAA188E2-8C62-414B-93AE-B576BEB044DB";
shapes = (
{
closed = 1;
nodes = (
(884,-30,o),
(1100,186,o),
(1100,450,cs),
(1100,714,o),
(884,930,o),
(620,930,cs),
(434,930,o),
(276,820,o),
(192,664,c),
(224,626,l),
(224,990,ls),
(224,1202,o),
(394,1386,o),
(620,1386,cs),
(766,1386,o),
(894,1306,o),
(962,1188,c),
(1034,1230,l),
(952,1374,o),
(796,1470,o),
(620,1470,cs),
(354,1470,o),
(140,1254,o),
(140,990,cs),
(140,450,ls),
(140,186,o),
(356,-30,o),
(620,-30,cs)
);
},
{
closed = 1;
nodes = (
(400,54,o),
(224,230,o),
(224,450,cs),
(224,670,o),
(400,846,o),
(620,846,cs),
(840,846,o),
(1016,670,o),
(1016,450,cs),
(1016,230,o),
(840,54,o),
(620,54,cs)
);
}
);
width = 1240;
},
{
layerId = "0DA27741-1AFD-43F2-A947-40AFBF8D6498";
shapes = (
{
closed = 1;
nodes = (
(914,-30,o),
(1144,182,o),
(1144,454,cs),
(1144,726,o),
(956,924,o),
(684,924,cs),
(568,924,o),
(454,878,o),
(372,794,c),
(418,744,l),
(418,958,ls),
(418,1090,o),
(518,1214,o),
(674,1214,cs),
(740,1214,o),
(806,1186,o),
(854,1138,c),
(1048,1332,l),
(942,1430,o),
(814,1468,o),
(674,1468,cs),
(350,1468,o),
(140,1258,o),
(140,918,cs),
(140,500,ls),
(140,186,o),
(356,-30,o),
(642,-30,cs)
);
},
{
closed = 1;
nodes = (
(518,230,o),
(418,334,o),
(418,454,cs),
(418,578,o),
(520,680,o),
(644,680,cs),
(768,680,o),
(868,578,o),
(868,454,cs),
(868,330,o),
(766,230,o),
(642,230,cs)
);
}
);
width = 1244;
},
{
associatedMasterId = "0DA27741-1AFD-43F2-A947-40AFBF8D6498";
layerId = "A2873047-0ED6-4C67-9B4D-3870B51BD5C6";
width = 1200;
},
{
associatedMasterId = "0DA27741-1AFD-43F2-A947-40AFBF8D6498";
layerId = "55314CA7-5524-4D70-B802-98D4FAE25636";
width = 1162;
},
{
associatedMasterId = "0DA27741-1AFD-43F2-A947-40AFBF8D6498";
layerId = "13A3DD5D-E91B-4961-8595-F8141D3FA442";
width = 1194;
}
);
note = six;
unicode = 54;
},
{
glyphname = seven;
lastChange = "2020-02-20 18:21:12 +0000";
layers = (
{
layerId = "CAA188E2-8C62-414B-93AE-B576BEB044DB";
shapes = (
{
closed = 1;
nodes = (
(310,0,l),
(862,1354,l),
(862,1440,l),
(80,1440,l),
(80,1354,l),
(772,1354,l),
(220,0,l)
);
}
);
width = 962;
},
{
layerId = "0DA27741-1AFD-43F2-A947-40AFBF8D6498";
shapes = (
{
closed = 1;
nodes = (
(506,0,l),
(988,1184,l),
(988,1440,l),
(80,1440,l),
(80,1184,l),
(696,1184,l),
(212,0,l)
);
}
);
width = 1088;
},
{
associatedMasterId = "0DA27741-1AFD-43F2-A947-40AFBF8D6498";
layerId = "A2873047-0ED6-4C67-9B4D-3870B51BD5C6";
width = 1200;
},
{
associatedMasterId = "0DA27741-1AFD-43F2-A947-40AFBF8D6498";
layerId = "55314CA7-5524-4D70-B802-98D4FAE25636";
width = 1050;
},
{
associatedMasterId = "0DA27741-1AFD-43F2-A947-40AFBF8D6498";
layerId = "13A3DD5D-E91B-4961-8595-F8141D3FA442";
width = 1176;
}
);
note = seven;
unicode = 55;
},
{
glyphname = eight;
lastChange = "2020-02-20 18:21:12 +0000";
layers = (
{
layerId = "CAA188E2-8C62-414B-93AE-B576BEB044DB";
shapes = (
{
closed = 1;
nodes = (
(818,-30,o),
(998,130,o),
(998,390,cs),
(998,582,o),
(900,730,o),
(698,796,c),
(706,752,l),
(880,788,o),
(964,936,o),
(964,1096,cs),
(964,1332,o),
(794,1470,o),
(558,1470,cs),
(322,1470,o),
(152,1332,o),
(152,1096,cs),
(152,936,o),
(240,786,o),
(414,750,c),
(414,796,l),
(212,730,o),
(120,582,o),
(120,390,cs),
(120,130,o),
(298,-30,o),
(558,-30,cs)
);
},
{
closed = 1;
nodes = (
(350,54,o),
(208,174,o),
(208,390,cs),
(208,610,o),
(346,726,o),
(558,726,cs),
(770,726,o),
(908,610,o),
(908,390,cs),
(908,174,o),
(766,54,o),
(558,54,cs)
);
},
{
closed = 1;
nodes = (
(370,810,o),
(242,908,o),
(242,1096,cs),
(242,1284,o),
(370,1380,o),
(558,1380,cs),
(746,1380,o),
(874,1284,o),
(874,1096,cs),
(874,908,o),
(746,810,o),
(558,810,cs)
);
}
);
width = 1118;
},
{
layerId = "0DA27741-1AFD-43F2-A947-40AFBF8D6498";
shapes = (
{
closed = 1;
nodes = (
(914,-30,o),
(1126,164,o),
(1126,432,cs),
(1126,584,o),
(1054,730,o),
(928,810,c),
(928,726,l),
(1034,824,o),
(1086,924,o),
(1086,1056,cs),
(1086,1306,o),
(894,1470,o),
(622,1470,cs),
(350,1470,o),
(158,1306,o),
(158,1056,cs),
(158,924,o),
(216,822,o),
(314,728,c),
(320,812,l),
(190,726,o),
(120,584,o),
(120,432,cs),
(120,164,o),
(330,-30,o),
(622,-30,cs)
);
},
{
closed = 1;
nodes = (
(494,226,o),
(408,296,o),
(408,432,cs),
(408,566,o),
(494,640,o),
(622,640,cs),
(750,640,o),
(838,566,o),
(838,432,cs),
(838,296,o),
(750,226,o),
(622,226,cs)
);
},
{
closed = 1;
nodes = (
(518,898,o),
(446,948,o),
(446,1056,cs),
(446,1164,o),
(518,1216,o),
(622,1216,cs),
(726,1216,o),
(798,1164,o),
(798,1056,cs),
(798,948,o),
(726,898,o),
(622,898,cs)
);
}
);
width = 1246;
},
{
associatedMasterId = "0DA27741-1AFD-43F2-A947-40AFBF8D6498";
layerId = "A2873047-0ED6-4C67-9B4D-3870B51BD5C6";
width = 1200;
},
{
associatedMasterId = "0DA27741-1AFD-43F2-A947-40AFBF8D6498";
layerId = "55314CA7-5524-4D70-B802-98D4FAE25636";
width = 1088;
},
{
associatedMasterId = "0DA27741-1AFD-43F2-A947-40AFBF8D6498";
layerId = "13A3DD5D-E91B-4961-8595-F8141D3FA442";
width = 1182;
}
);
note = eight;
unicode = 56;
},
{
glyphname = fraction;
lastChange = "2020-02-20 18:21:12 +0000";
layers = (
{
layerId = "CAA188E2-8C62-414B-93AE-B576BEB044DB";
shapes = (
{
closed = 1;
nodes = (
(766,1382,l),
(694,1440,l),
(-400,60,l),
(-326,0,l)
);
}
);
width = 366;
},
{
layerId = "0DA27741-1AFD-43F2-A947-40AFBF8D6498";
shapes = (
{
closed = 1;
nodes = (
(832,1338,l),
(678,1454,l),
(-286,114,l),
(-132,0,l)
);
}
);
width = 546;
},
{
associatedMasterId = "0DA27741-1AFD-43F2-A947-40AFBF8D6498";
layerId = "A2873047-0ED6-4C67-9B4D-3870B51BD5C6";
width = 1200;
},
{
associatedMasterId = "0DA27741-1AFD-43F2-A947-40AFBF8D6498";
layerId = "55314CA7-5524-4D70-B802-98D4FAE25636";
width = 1400;
},
{
associatedMasterId = "0DA27741-1AFD-43F2-A947-40AFBF8D6498";
layerId = "13A3DD5D-E91B-4961-8595-F8141D3FA442";
width = 1232;
}
);
unicode = 8260;
},
{
glyphname = zerosuperior;
lastChange = "2020-02-20 18:21:12 +0000";
layers = (
{
layerId = "0DA27741-1AFD-43F2-A947-40AFBF8D6498";
shapes = (
{
closed = 1;
nodes = (
(690,518,o),
(812,652,o),
(812,876,cs),
(812,1100,ls),
(812,1326,o),
(680,1458,o),
(476,1458,cs),
(270,1458,o),
(140,1320,o),
(140,1100,cs),
(140,876,ls),
(140,650,o),
(270,518,o),
(476,518,cs)
);
},
{
closed = 1;
nodes = (
(366,678,o),
(316,756,o),
(316,876,cs),
(316,1100,ls),
(316,1226,o),
(374,1298,o),
(476,1298,cs),
(584,1298,o),
(638,1220,o),
(638,1100,cs),
(638,876,ls),
(638,748,o),
(580,678,o),
(476,678,cs)
);
}
);
width = 952;
},
{
layerId = "CAA188E2-8C62-414B-93AE-B576BEB044DB";
shapes = (
{
closed = 1;
nodes = (
(594,516,o),
(720,642,o),
(720,806,cs),
(720,1168,ls),
(720,1332,o),
(594,1458,o),
(430,1458,cs),
(266,1458,o),
(140,1332,o),
(140,1168,cs),
(140,806,ls),
(140,642,o),
(266,516,o),
(430,516,cs)
);
},
{
closed = 1;
nodes = (
(316,596,o),
(222,690,o),
(222,804,cs),
(222,1172,ls),
(222,1286,o),
(316,1378,o),
(430,1378,cs),
(544,1378,o),
(638,1286,o),
(638,1172,cs),
(638,804,ls),
(638,690,o),
(544,596,o),
(430,596,cs)
);
}
);
width = 860;
}
);
metricLeft = zero;
metricRight = zero;
unicode = 8304;
},
{
glyphname = onesuperior;
lastChange = "2020-02-20 18:21:12 +0000";
layers = (
{
layerId = "0DA27741-1AFD-43F2-A947-40AFBF8D6498";
shapes = (
{
closed = 1;
nodes = (
(463,540,l),
(463,1440,l),
(289,1440,l),
(120,1339,l),
(120,1151,l),
(289,1255,l),
(289,540,l)
);
}
);
width = 703;
},
{
layerId = "CAA188E2-8C62-414B-93AE-B576BEB044DB";
shapes = (
{
closed = 1;
nodes = (
(372,540,l),
(372,1440,l),
(290,1440,l),
(120,1338,l),
(120,1246,l),
(290,1348,l),
(290,540,l)
);
}
);
width = 612;
}
);
metricLeft = one;
metricRight = one;
unicode = 185;
},
{
glyphname = twosuperior;
lastChange = "2020-02-20 18:21:12 +0000";
layers = (
{
layerId = "0DA27741-1AFD-43F2-A947-40AFBF8D6498";
shapes = (
{
closed = 1;
nodes = (
(732,540,l),
(732,700,l),
(308,700,l),
(322,662,l),
(566,878,ls),
(674,972,o),
(732,1020,o),
(732,1154,cs),
(732,1336,o),
(600,1460,o),
(424,1460,cs),
(230,1460,o),
(100,1344,o),
(100,1158,c),
(276,1158,l),
(272,1234,o),
(334,1300,o),
(420,1300,cs),
(502,1300,o),
(556,1240,o),
(556,1156,cs),
(556,1118,o),
(534,1074,o),
(478,1024,cs),
(100,688,l),
(100,540,l)
);
}
);
width = 832;
},
{
layerId = "CAA188E2-8C62-414B-93AE-B576BEB044DB";
shapes = (
{
closed = 1;
nodes = (
(684,540,l),
(684,620,l),
(136,620,l),
(160,560,l),
(560,924,ls),
(644,1000,o),
(684,1064,o),
(684,1174,cs),
(684,1332,o),
(560,1460,o),
(396,1460,cs),
(232,1460,o),
(106,1338,o),
(106,1176,c),
(190,1176,l),
(188,1284,o),
(278,1382,o),
(396,1382,cs),
(510,1382,o),
(600,1290,o),
(600,1174,cs),
(600,1110,o),
(584,1054,o),
(512,990,cs),
(102,616,l),
(100,540,l)
);
}
);
width = 784;
}
);
metricLeft = two;
metricRight = two;
unicode = 178;
},
{
glyphname = threesuperior;
lastChange = "2020-02-20 18:21:12 +0000";
layers = (
{
layerId = "0DA27741-1AFD-43F2-A947-40AFBF8D6498";
shapes = (
{
closed = 1;
nodes = (
(552,518,o),
(698,648,o),
(698,820,cs),
(698,960,o),
(612,1086,o),
(456,1110,c),
(458,1062,l),
(682,1278,l),
(682,1440,l),
(116,1440,l),
(116,1278,l),
(536,1278,l),
(522,1316,l),
(234,1076,l),
(312,942,l),
(332,954,o),
(356,962,o),
(382,962,cs),
(464,962,o),
(524,898,o),
(524,820,cs),
(524,742,o),
(460,680,o),
(382,680,cs),
(322,680,o),
(264,716,o),
(246,784,c),
(80,740,l),
(118,604,o),
(246,518,o),
(382,518,cs)
);
}
);
width = 818;
},
{
layerId = "CAA188E2-8C62-414B-93AE-B576BEB044DB";
shapes = (
{
closed = 1;
nodes = (
(524,520,o),
(640,638,o),
(640,812,cs),
(640,1008,o),
(494,1134,o),
(286,1090,c),
(290,1036,l),
(632,1360,l),
(632,1440,l),
(116,1440,l),
(116,1362,l),
(614,1362,l),
(590,1424,l),
(206,1064,l),
(248,1000,l),
(282,1014,o),
(320,1024,o),
(354,1024,cs),
(476,1024,o),
(556,940,o),
(556,812,cs),
(556,686,o),
(482,602,o),
(356,600,cs),
(266,598,o),
(190,646,o),
(158,740,c),
(80,716,l),
(118,594,o),
(224,520,o),
(356,520,cs)
);
}
);
width = 760;
}
);
metricLeft = three;
metricRight = three;
unicode = 179;
},
{
glyphname = foursuperior;
lastChange = "2020-02-20 18:21:12 +0000";
layers = (
{
layerId = "0DA27741-1AFD-43F2-A947-40AFBF8D6498";
shapes = (
{
closed = 1;
nodes = (
(664,540,l),
(664,680,l),
(744,680,l),
(744,840,l),
(664,840,l),
(664,1064,l),
(492,1064,l),
(492,840,l),
(296,840,l),
(580,1440,l),
(384,1440,l),
(100,840,l),
(100,680,l),
(492,680,l),
(492,540,l)
);
}
);
width = 844;
},
{
layerId = "CAA188E2-8C62-414B-93AE-B576BEB044DB";
shapes = (
{
closed = 1;
nodes = (
(608,540,l),
(608,718,l),
(708,718,l),
(708,798,l),
(608,798,l),
(608,1066,l),
(526,1066,l),
(526,798,l),
(192,798,l),
(496,1440,l),
(404,1440,l),
(100,798,l),
(100,718,l),
(526,718,l),
(526,540,l)
);
}
);
width = 808;
}
);
metricLeft = four;
metricRight = four;
unicode = 8308;
},
{
glyphname = fivesuperior;
lastChange = "2020-02-20 18:21:12 +0000";
layers = (
{
layerId = "0DA27741-1AFD-43F2-A947-40AFBF8D6498";
shapes = (
{
closed = 1;
nodes = (
(564,520,o),
(712,652,o),
(712,822,cs),
(712,994,o),
(594,1116,o),
(424,1116,cs),
(374,1116,o),
(312,1100,o),
(266,1064,c),
(296,1028,l),
(314,1338,l),
(254,1282,l),
(652,1282,l),
(652,1440,l),
(160,1440,l),
(132,960,l),
(276,916,l),
(296,936,o),
(336,964,o),
(400,964,cs),
(476,964,o),
(540,900,o),
(540,822,cs),
(540,746,o),
(476,682,o),
(400,682,cs),
(340,682,o),
(280,722,o),
(264,786,c),
(100,742,l),
(138,610,o),
(256,520,o),
(392,520,cs)
);
}
);
width = 812;
},
{
layerId = "CAA188E2-8C62-414B-93AE-B576BEB044DB";
shapes = (
{
closed = 1;
nodes = (
(558,520,o),
(696,658,o),
(696,822,cs),
(696,988,o),
(564,1120,o),
(400,1120,cs),
(304,1120,o),
(220,1078,o),
(170,1004,c),
(202,958,l),
(224,1394,l),
(186,1362,l),
(632,1362,l),
(632,1440,l),
(152,1440,l),
(126,974,l),
(202,938,l),
(240,1000,o),
(306,1044,o),
(392,1044,cs),
(512,1044,o),
(614,946,o),
(614,822,cs),
(614,702,o),
(518,602,o),
(392,602,cs),
(296,602,o),
(204,666,o),
(178,766,c),
(100,746,l),
(136,614,o),
(250,520,o),
(392,520,cs)
);
}
);
width = 796;
}
);
metricLeft = five;
metricRight = five;
unicode = 8309;
},
{
glyphname = sixsuperior;
lastChange = "2020-02-20 18:31:41 +0000";
layers = (
{
layerId = "0DA27741-1AFD-43F2-A947-40AFBF8D6498";
shapes = (
{
closed = 1;
nodes = (
(630,514,o),
(774,646,o),
(774,818,cs),
(774,990,o),
(656,1114,o),
(484,1114,cs),
(410,1114,o),
(338,1086,o),
(286,1032,c),
(316,1000,l),
(316,1136,ls),
(316,1220,o),
(378,1298,o),
(478,1298,cs),
(520,1298,o),
(560,1280,o),
(592,1250,c),
(714,1372,l),
(646,1434,o),
(566,1458,o),
(478,1458,cs),
(272,1458,o),
(140,1326,o),
(140,1110,cs),
(140,846,ls),
(140,648,o),
(276,514,o),
(458,514,cs)
);
},
{
closed = 1;
nodes = (
(378,676,o),
(316,742,o),
(316,818,cs),
(316,896,o),
(380,960,o),
(458,960,cs),
(536,960,o),
(600,896,o),
(600,818,cs),
(600,738,o),
(536,676,o),
(458,676,cs)
);
}
);
width = 874;
},
{
layerId = "CAA188E2-8C62-414B-93AE-B576BEB044DB";
shapes = (
{
closed = 1;
nodes = (
(614,514,o),
(752,650,o),
(752,818,cs),
(752,984,o),
(620,1116,o),
(452,1116,cs),
(340,1116,o),
(242,1050,o),
(192,950,c),
(224,912,l),
(224,1150,ls),
(224,1272,o),
(320,1378,o),
(450,1378,cs),
(530,1378,o),
(600,1336,o),
(640,1272,c),
(706,1324,l),
(650,1406,o),
(556,1458,o),
(450,1458,cs),
(274,1458,o),
(140,1324,o),
(140,1144,cs),
(140,824,ls),
(140,650,o),
(276,514,o),
(446,514,cs)
);
},
{
closed = 1;
nodes = (
(322,594,o),
(224,694,o),
(224,818,cs),
(224,940,o),
(322,1038,o),
(446,1038,cs),
(570,1038,o),
(668,940,o),
(668,818,cs),
(668,694,o),
(570,594,o),
(446,594,cs)
);
}
);
width = 892;
}
);
metricLeft = six;
metricRight = six;
unicode = 8310;
},
{
glyphname = sevensuperior;
lastChange = "2020-02-20 18:21:12 +0000";
layers = (
{
layerId = "0DA27741-1AFD-43F2-A947-40AFBF8D6498";
shapes = (
{
closed = 1;
nodes = (
(346,540,l),
(648,1280,l),
(648,1440,l),
(80,1440,l),
(80,1280,l),
(466,1280,l),
(162,540,l)
);
}
);
width = 748;
},
{
layerId = "CAA188E2-8C62-414B-93AE-B576BEB044DB";
shapes = (
{
closed = 1;
nodes = (
(256,540,l),
(590,1360,l),
(590,1440,l),
(80,1440,l),
(80,1360,l),
(502,1360,l),
(166,540,l)
);
}
);
width = 690;
}
);
metricLeft = seven;
metricRight = seven;
unicode = 8311;
},
{
glyphname = eightsuperior;
lastChange = "2020-02-20 18:21:12 +0000";
layers = (
{
layerId = "0DA27741-1AFD-43F2-A947-40AFBF8D6498";
shapes = (
{
closed = 1;
nodes = (
(620,514,o),
(754,636,o),
(754,804,cs),
(754,900,o),
(708,992,o),
(628,1042,c),
(628,990,l),
(696,1052,o),
(728,1114,o),
(728,1198,cs),
(728,1354,o),
(608,1458,o),
(436,1458,cs),
(264,1458,o),
(144,1354,o),
(144,1198,cs),
(144,1114,o),
(180,1050,o),
(242,992,c),
(246,1044,l),
(164,990,o),
(120,900,o),
(120,804,cs),
(120,636,o),
(252,514,o),
(436,514,cs)
);
},
{
closed = 1;
nodes = (
(356,676,o),
(302,720,o),
(302,804,cs),
(302,890,o),
(356,936,o),
(436,936,cs),
(516,936,o),
(572,890,o),
(572,804,cs),
(572,720,o),
(516,676,o),
(436,676,cs)
);
},
{
closed = 1;
nodes = (
(370,1098,o),
(326,1130,o),
(326,1198,cs),
(326,1266,o),
(370,1298,o),
(436,1298,cs),
(502,1298,o),
(546,1266,o),
(546,1198,cs),
(546,1130,o),
(502,1098,o),
(436,1098,cs)
);
}
);
width = 874;
},
{
layerId = "CAA188E2-8C62-414B-93AE-B576BEB044DB";
shapes = (
{
closed = 1;
nodes = (
(574,514,o),
(692,620,o),
(692,784,cs),
(692,908,o),
(628,1002,o),
(498,1046,c),
(496,996,l),
(614,1020,o),
(670,1114,o),
(670,1216,cs),
(670,1368,o),
(560,1458,o),
(406,1458,cs),
(252,1458,o),
(142,1368,o),
(142,1216,cs),
(142,1114,o),
(198,1022,o),
(312,992,c),
(312,1044,l),
(182,1004,o),
(120,908,o),
(120,784,cs),
(120,620,o),
(238,514,o),
(406,514,cs)
);
},
{
closed = 1;
nodes = (
(288,594,o),
(206,662,o),
(206,784,cs),
(206,910,o),
(286,976,o),
(406,976,cs),
(526,976,o),
(604,910,o),
(604,784,cs),
(604,662,o),
(524,594,o),
(406,594,cs)
);
},
{
closed = 1;
nodes = (
(302,1056,o),
(230,1110,o),
(230,1216,cs),
(230,1322,o),
(302,1376,o),
(406,1376,cs),
(512,1376,o),
(584,1322,o),
(584,1216,cs),
(584,1110,o),
(512,1056,o),
(406,1056,cs)
);
}
);
width = 812;
}
);
metricLeft = eight;
metricRight = eight;
unicode = 8312;
},
{
glyphname = .notdef;
lastChange = "2020-02-20 18:21:12 +0000";
layers = (
{
layerId = "CAA188E2-8C62-414B-93AE-B576BEB044DB";
shapes = (
{
closed = 1;
nodes = (
(1280,0,l),
(1280,114,l),
(200,114,l),
(200,0,l)
);
},
{
closed = 1;
nodes = (
(1280,144,l),
(1280,224,l),
(200,224,l),
(200,144,l)
);
},
{
closed = 1;
nodes = (
(1280,260,l),
(1280,334,l),
(200,334,l),
(200,260,l)
);
},
{
closed = 1;
nodes = (
(1280,374,l),
(1280,444,l),
(200,444,l),
(200,374,l)
);
},
{
closed = 1;
nodes = (
(1280,490,l),
(1280,556,l),
(200,556,l),
(200,490,l)
);
},
{
closed = 1;
nodes = (
(1280,606,l),
(1280,666,l),
(200,666,l),
(200,606,l)
);
},
{
closed = 1;
nodes = (
(1280,720,l),
(1280,776,l),
(200,776,l),
(200,720,l)
);
},
{
closed = 1;
nodes = (
(1280,838,l),
(1280,886,l),
(200,886,l),
(200,838,l)
);
},
{
closed = 1;
nodes = (
(1280,952,l),
(1280,996,l),
(200,996,l),
(200,952,l)
);
},
{
closed = 1;
nodes = (
(1280,1066,l),
(1280,1108,l),
(200,1108,l),
(200,1066,l)
);
},
{
closed = 1;
nodes = (
(1280,1184,l),
(1280,1220,l),
(200,1220,l),
(200,1184,l)
);
},
{
closed = 1;
nodes = (
(1280,1298,l),
(1280,1330,l),
(200,1330,l),
(200,1298,l)
);
},
{
closed = 1;
nodes = (
(1280,1414,l),
(1280,1440,l),
(200,1440,l),
(200,1414,l)
);
}
);
width = 1480;
},
{
layerId = "0DA27741-1AFD-43F2-A947-40AFBF8D6498";
shapes = (
{
closed = 1;
nodes = (
(1280,0,l),
(1280,114,l),
(200,114,l),
(200,0,l)
);
},
{
closed = 1;
nodes = (
(1280,144,l),
(1280,224,l),
(200,224,l),
(200,144,l)
);
},
{
closed = 1;
nodes = (
(1280,260,l),
(1280,334,l),
(200,334,l),
(200,260,l)
);
},
{
closed = 1;
nodes = (
(1280,374,l),
(1280,444,l),
(200,444,l),
(200,374,l)
);
},
{
closed = 1;
nodes = (
(1280,490,l),
(1280,556,l),
(200,556,l),
(200,490,l)
);
},
{
closed = 1;
nodes = (
(1280,606,l),
(1280,666,l),
(200,666,l),
(200,606,l)
);
},
{
closed = 1;
nodes = (
(1280,720,l),
(1280,776,l),
(200,776,l),
(200,720,l)
);
},
{
closed = 1;
nodes = (
(1280,838,l),
(1280,886,l),
(200,886,l),
(200,838,l)
);
},
{
closed = 1;
nodes = (
(1280,952,l),
(1280,996,l),
(200,996,l),
(200,952,l)
);
},
{
closed = 1;
nodes = (
(1280,1066,l),
(1280,1108,l),
(200,1108,l),
(200,1066,l)
);
},
{
closed = 1;
nodes = (
(1280,1184,l),
(1280,1220,l),
(200,1220,l),
(200,1184,l)
);
},
{
closed = 1;
nodes = (
(1280,1298,l),
(1280,1330,l),
(200,1330,l),
(200,1298,l)
);
},
{
closed = 1;
nodes = (
(1280,1414,l),
(1280,1440,l),
(200,1440,l),
(200,1414,l)
);
}
);
width = 1480;
},
{
associatedMasterId = "0DA27741-1AFD-43F2-A947-40AFBF8D6498";
layerId = "A2873047-0ED6-4C67-9B4D-3870B51BD5C6";
width = 1200;
},
{
associatedMasterId = "0DA27741-1AFD-43F2-A947-40AFBF8D6498";
layerId = "55314CA7-5524-4D70-B802-98D4FAE25636";
width = 1580;
},
{
associatedMasterId = "0DA27741-1AFD-43F2-A947-40AFBF8D6498";
layerId = "13A3DD5D-E91B-4961-8595-F8141D3FA442";
width = 1260;
}
);
note = ".notdef";
},
{
glyphname = period;
kernLeft = comma;
lastChange = "2020-02-20 18:21:12 +0000";
layers = (
{
layerId = "CAA188E2-8C62-414B-93AE-B576BEB044DB";
shapes = (
{
closed = 1;
nodes = (
(280,0,l),
(280,120,l),
(160,120,l),
(160,0,l)
);
}
);
width = 440;
},
{
layerId = "0DA27741-1AFD-43F2-A947-40AFBF8D6498";
shapes = (
{
closed = 1;
nodes = (
(456,0,l),
(456,272,l),
(184,272,l),
(184,0,l)
);
}
);
width = 640;
},
{
associatedMasterId = "0DA27741-1AFD-43F2-A947-40AFBF8D6498";
layerId = "A2873047-0ED6-4C67-9B4D-3870B51BD5C6";
width = 1200;
},
{
associatedMasterId = "0DA27741-1AFD-43F2-A947-40AFBF8D6498";
layerId = "55314CA7-5524-4D70-B802-98D4FAE25636";
width = 226;
},
{
associatedMasterId = "0DA27741-1AFD-43F2-A947-40AFBF8D6498";
layerId = "13A3DD5D-E91B-4961-8595-F8141D3FA442";
width = 1044;
}
);
note = period;
unicode = 46;
},
{
glyphname = comma;
kernLeft = comma;
lastChange = "2020-02-20 18:21:12 +0000";
layers = (
{
layerId = "CAA188E2-8C62-414B-93AE-B576BEB044DB";
shapes = (
{
closed = 1;
nodes = (
(184,-194,o),
(240,-148,o),
(240,-60,cs),
(240,180,l),
(120,180,l),
(120,0,l),
(186,0,l),
(186,-64,o),
(196,-130,o),
(126,-126,c),
(120,-178,l)
);
}
);
width = 480;
},
{
layerId = "0DA27741-1AFD-43F2-A947-40AFBF8D6498";
shapes = (
{
closed = 1;
nodes = (
(304,-300,o),
(392,-192,o),
(392,0,cs),
(392,272,l),
(120,272,l),
(120,0,l),
(260,0,l),
(274,-96,o),
(232,-164,o),
(136,-156,c),
(120,-270,l)
);
}
);
width = 632;
},
{
associatedMasterId = "0DA27741-1AFD-43F2-A947-40AFBF8D6498";
layerId = "A2873047-0ED6-4C67-9B4D-3870B51BD5C6";
width = 1200;
},
{
associatedMasterId = "0DA27741-1AFD-43F2-A947-40AFBF8D6498";
layerId = "55314CA7-5524-4D70-B802-98D4FAE25636";
width = 300;
},
{
associatedMasterId = "0DA27741-1AFD-43F2-A947-40AFBF8D6498";
layerId = "13A3DD5D-E91B-4961-8595-F8141D3FA442";
width = 1056;
}
);
note = comma;
unicode = 44;
},
{
glyphname = exclam;
lastChange = "2022-10-20 07:54:24 +0000";
layers = (
{
layerId = "CAA188E2-8C62-414B-93AE-B576BEB044DB";
shapes = (
{
closed = 1;
nodes = (
(324,0,l),
(324,128,l),
(240,128,l),
(240,0,l)
);
}
);
width = 564;
},
{
layerId = "0DA27741-1AFD-43F2-A947-40AFBF8D6498";
shapes = (
{
closed = 1;
nodes = (
(512,0,l),
(512,240,l),
(240,240,l),
(240,0,l)
);
}
);
width = 752;
},
{
associatedMasterId = "0DA27741-1AFD-43F2-A947-40AFBF8D6498";
layerId = "A2873047-0ED6-4C67-9B4D-3870B51BD5C6";
width = 1200;
},
{
associatedMasterId = "0DA27741-1AFD-43F2-A947-40AFBF8D6498";
layerId = "55314CA7-5524-4D70-B802-98D4FAE25636";
width = 526;
},
{
associatedMasterId = "0DA27741-1AFD-43F2-A947-40AFBF8D6498";
layerId = "13A3DD5D-E91B-4961-8595-F8141D3FA442";
width = 1092;
}
);
note = exclam;
unicode = 33;
},
{
glyphname = question;
lastChange = "2020-02-20 18:21:12 +0000";
layers = (
{
layerId = "CAA188E2-8C62-414B-93AE-B576BEB044DB";
shapes = (
{
closed = 1;
nodes = (
(526,394,l),
(526,488,o),
(518,550,o),
(552,614,cs),
(602,710,o),
(744,772,o),
(816,850,cs),
(878,912,o),
(908,1004,o),
(908,1096,cs),
(908,1198,o),
(880,1284,o),
(814,1354,cs),
(738,1436,o),
(624,1470,o),
(504,1470,cs),
(390,1470,o),
(272,1436,o),
(192,1354,cs),
(126,1286,o),
(100,1188,o),
(100,1100,c),
(184,1100,l),
(184,1174,o),
(204,1246,o),
(254,1296,cs),
(308,1356,o),
(398,1386,o),
(500,1386,cs),
(594,1386,o),
(690,1364,o),
(754,1290,cs),
(796,1244,o),
(818,1180,o),
(818,1098,cs),
(818,1030,o),
(804,966,o),
(754,908,cs),
(678,826,o),
(540,774,o),
(476,654,cs),
(432,570,o),
(436,506,o),
(436,394,c)
);
},
{
closed = 1;
nodes = (
(526,0,l),
(526,150,l),
(436,150,l),
(436,0,l)
);
}
);
width = 1008;
},
{
layerId = "0DA27741-1AFD-43F2-A947-40AFBF8D6498";
shapes = (
{
closed = 1;
nodes = (
(682,390,l),
(682,464,o),
(684,488,o),
(722,550,cs),
(752,596,o),
(794,632,o),
(856,698,cs),
(952,800,o),
(1026,916,o),
(1026,1062,cs),
(1026,1152,o),
(992,1248,o),
(934,1316,cs),
(846,1424,o),
(704,1468,o),
(552,1468,cs),
(460,1468,o),
(364,1440,o),
(288,1390,cs),
(184,1322,o),
(116,1196,o),
(100,1054,c),
(388,1054,l),
(386,1106,o),
(404,1150,o),
(442,1178,cs),
(472,1202,o),
(518,1212,o),
(564,1212,cs),
(624,1212,o),
(680,1194,o),
(712,1150,cs),
(732,1124,o),
(738,1090,o),
(738,1054,cs),
(738,984,o),
(724,930,o),
(670,870,cs),
(564,758,o),
(506,744,o),
(456,642,cs),
(414,570,o),
(394,478,o),
(394,390,c)
);
},
{
closed = 1;
nodes = (
(682,0,l),
(682,288,l),
(396,288,l),
(396,0,l)
);
}
);
width = 1126;
},
{
associatedMasterId = "0DA27741-1AFD-43F2-A947-40AFBF8D6498";
layerId = "A2873047-0ED6-4C67-9B4D-3870B51BD5C6";
width = 1200;
},
{
associatedMasterId = "0DA27741-1AFD-43F2-A947-40AFBF8D6498";
layerId = "55314CA7-5524-4D70-B802-98D4FAE25636";
width = 948;
},
{
associatedMasterId = "0DA27741-1AFD-43F2-A947-40AFBF8D6498";
layerId = "13A3DD5D-E91B-4961-8595-F8141D3FA442";
width = 1160;
}
);
note = question;
unicode = 63;
},
{
glyphname = periodcentered;
lastChange = "2020-02-20 18:21:12 +0000";
layers = (
{
layerId = "CAA188E2-8C62-414B-93AE-B576BEB044DB";
shapes = (
{
closed = 1;
nodes = (
(244,550,o),
(280,584,o),
(280,630,cs),
(280,676,o),
(244,710,o),
(202,710,cs),
(156,710,o),
(120,676,o),
(120,630,cs),
(120,584,o),
(156,550,o),
(202,550,cs)
);
}
);
width = 400;
},
{
layerId = "0DA27741-1AFD-43F2-A947-40AFBF8D6498";
shapes = (
{
closed = 1;
nodes = (
(368,470,o),
(440,538,o),
(440,630,cs),
(440,722,o),
(368,790,o),
(284,790,cs),
(192,790,o),
(120,722,o),
(120,630,cs),
(120,538,o),
(192,470,o),
(284,470,cs)
);
}
);
width = 560;
},
{
associatedMasterId = "0DA27741-1AFD-43F2-A947-40AFBF8D6498";
layerId = "A2873047-0ED6-4C67-9B4D-3870B51BD5C6";
width = 1200;
},
{
associatedMasterId = "0DA27741-1AFD-43F2-A947-40AFBF8D6498";
layerId = "55314CA7-5524-4D70-B802-98D4FAE25636";
width = 1200;
},
{
associatedMasterId = "0DA27741-1AFD-43F2-A947-40AFBF8D6498";
layerId = "13A3DD5D-E91B-4961-8595-F8141D3FA442";
width = 1200;
}
);
unicode = 183;
},
{
glyphname = bullet;
lastChange = "2020-02-20 18:21:12 +0000";
layers = (
{
layerId = "CAA188E2-8C62-414B-93AE-B576BEB044DB";
shapes = (
{
closed = 1;
nodes = (
(730,430,o),
(820,516,o),
(820,630,cs),
(820,744,o),
(730,830,o),
(624,830,cs),
(510,830,o),
(420,744,o),
(420,630,cs),
(420,516,o),
(510,430,o),
(624,430,cs)
);
}
);
width = 1240;
},
{
layerId = "0DA27741-1AFD-43F2-A947-40AFBF8D6498";
shapes = (
{
closed = 1;
nodes = (
(886,330,o),
(1020,460,o),
(1020,630,cs),
(1020,802,o),
(886,930,o),
(726,930,cs),
(556,930,o),
(420,802,o),
(420,630,cs),
(420,460,o),
(556,330,o),
(726,330,cs)
);
}
);
width = 1440;
},
{
associatedMasterId = "0DA27741-1AFD-43F2-A947-40AFBF8D6498";
layerId = "A2873047-0ED6-4C67-9B4D-3870B51BD5C6";
width = 1200;
},
{
associatedMasterId = "0DA27741-1AFD-43F2-A947-40AFBF8D6498";
layerId = "55314CA7-5524-4D70-B802-98D4FAE25636";
width = 1200;
},
{
associatedMasterId = "0DA27741-1AFD-43F2-A947-40AFBF8D6498";
layerId = "13A3DD5D-E91B-4961-8595-F8141D3FA442";
width = 1200;
}
);
unicode = 8226;
},
{
glyphname = asterisk;
lastChange = "2020-02-20 18:21:12 +0000";
layers = (
{
layerId = "CAA188E2-8C62-414B-93AE-B576BEB044DB";
shapes = (
{
closed = 1;
nodes = (
(388,1036,l),
(548,814,l),
(616,864,l),
(456,1086,l),
(716,1170,l),
(690,1250,l),
(430,1166,l),
(430,1440,l),
(346,1440,l),
(346,1166,l),
(86,1250,l),
(60,1170,l),
(320,1086,l),
(158,864,l),
(226,814,l)
);
}
);
width = 836;
},
{
layerId = "0DA27741-1AFD-43F2-A947-40AFBF8D6498";
shapes = (
{
closed = 1;
nodes = (
(444,900,l),
(562,710,l),
(756,850,l),
(608,1018,l),
(828,1074,l),
(754,1302,l),
(546,1212,l),
(564,1440,l),
(324,1440,l),
(342,1212,l),
(134,1302,l),
(60,1074,l),
(280,1018,l),
(132,850,l),
(326,710,l)
);
}
);
width = 948;
},
{
associatedMasterId = "0DA27741-1AFD-43F2-A947-40AFBF8D6498";
layerId = "A2873047-0ED6-4C67-9B4D-3870B51BD5C6";
width = 1200;
},
{
associatedMasterId = "0DA27741-1AFD-43F2-A947-40AFBF8D6498";
layerId = "55314CA7-5524-4D70-B802-98D4FAE25636";
width = 780;
},
{
associatedMasterId = "0DA27741-1AFD-43F2-A947-40AFBF8D6498";
layerId = "13A3DD5D-E91B-4961-8595-F8141D3FA442";
width = 1132;
}
);
note = asterisk;
unicode = 42;
},
{
glyphname = numbersign;
lastChange = "2020-02-20 18:21:12 +0000";
layers = (
{
layerId = "CAA188E2-8C62-414B-93AE-B576BEB044DB";
shapes = (
{
closed = 1;
nodes = (
(520,0,l),
(644,462,l),
(1036,462,l),
(914,0,l),
(1000,0,l),
(1124,462,l),
(1560,462,l),
(1582,546,l),
(1146,546,l),
(1248,924,l),
(1684,924,l),
(1706,1008,l),
(1270,1008,l),
(1386,1440,l),
(1298,1440,l),
(1184,1008,l),
(790,1008,l),
(906,1440,l),
(818,1440,l),
(704,1008,l),
(266,1008,l),
(244,924,l),
(680,924,l),
(580,546,l),
(142,546,l),
(120,462,l),
(556,462,l),
(434,0,l)
);
},
{
closed = 1;
nodes = (
(768,924,l),
(1160,924,l),
(1060,546,l),
(666,546,l)
);
}
);
width = 1826;
},
{
layerId = "0DA27741-1AFD-43F2-A947-40AFBF8D6498";
shapes = (
{
closed = 1;
nodes = (
(630,2,l),
(730,378,l),
(946,378,l),
(846,2,l),
(1110,2,l),
(1210,378,l),
(1558,378,l),
(1626,634,l),
(1278,634,l),
(1334,840,l),
(1682,840,l),
(1750,1094,l),
(1402,1094,l),
(1496,1440,l),
(1232,1440,l),
(1138,1094,l),
(922,1094,l),
(1016,1440,l),
(752,1440,l),
(658,1094,l),
(312,1094,l),
(242,840,l),
(590,840,l),
(536,634,l),
(188,634,l),
(120,378,l),
(468,378,l),
(366,2,l)
);
},
{
closed = 1;
nodes = (
(854,840,l),
(1070,840,l),
(1014,634,l),
(800,634,l)
);
}
);
width = 1870;
},
{
associatedMasterId = "0DA27741-1AFD-43F2-A947-40AFBF8D6498";
layerId = "A2873047-0ED6-4C67-9B4D-3870B51BD5C6";
width = 1200;
},
{
associatedMasterId = "0DA27741-1AFD-43F2-A947-40AFBF8D6498";
layerId = "55314CA7-5524-4D70-B802-98D4FAE25636";
width = 2010;
},
{
associatedMasterId = "0DA27741-1AFD-43F2-A947-40AFBF8D6498";
layerId = "13A3DD5D-E91B-4961-8595-F8141D3FA442";
width = 1330;
}
);
note = numbersign;
unicode = 35;
},
{
glyphname = backslash;
lastChange = "2020-02-20 18:21:12 +0000";
layers = (
{
layerId = "CAA188E2-8C62-414B-93AE-B576BEB044DB";
shapes = (
{
closed = 1;
nodes = (
(120,1440,l),
(504,0,l),
(594,0,l),
(210,1440,l)
);
}
);
width = 714;
},
{
layerId = "0DA27741-1AFD-43F2-A947-40AFBF8D6498";
shapes = (
{
closed = 1;
nodes = (
(120,1440,l),
(504,0,l),
(776,0,l),
(392,1440,l)
);
}
);
width = 896;
},
{
associatedMasterId = "0DA27741-1AFD-43F2-A947-40AFBF8D6498";
layerId = "A2873047-0ED6-4C67-9B4D-3870B51BD5C6";
width = 1200;
},
{
associatedMasterId = "0DA27741-1AFD-43F2-A947-40AFBF8D6498";
layerId = "55314CA7-5524-4D70-B802-98D4FAE25636";
width = 706;
},
{
associatedMasterId = "0DA27741-1AFD-43F2-A947-40AFBF8D6498";
layerId = "13A3DD5D-E91B-4961-8595-F8141D3FA442";
width = 1120;
}
);
unicode = 92;
},
{
glyphname = hyphen;
lastChange = "2022-10-20 08:19:18 +0000";
layers = (
{
layerId = "CAA188E2-8C62-414B-93AE-B576BEB044DB";
shapes = (
{
closed = 1;
nodes = (
(720,588,l),
(720,672,l),
(120,672,l),
(120,588,l)
);
}
);
width = 840;
},
{
layerId = "0DA27741-1AFD-43F2-A947-40AFBF8D6498";
shapes = (
{
closed = 1;
nodes = (
(720,526,l),
(720,716,l),
(120,716,l),
(120,526,l)
);
}
);
width = 840;
},
{
associatedMasterId = "0DA27741-1AFD-43F2-A947-40AFBF8D6498";
layerId = "A2873047-0ED6-4C67-9B4D-3870B51BD5C6";
width = 1200;
},
{
associatedMasterId = "0DA27741-1AFD-43F2-A947-40AFBF8D6498";
layerId = "55314CA7-5524-4D70-B802-98D4FAE25636";
width = 750;
},
{
associatedMasterId = "0DA27741-1AFD-43F2-A947-40AFBF8D6498";
layerId = "13A3DD5D-E91B-4961-8595-F8141D3FA442";
width = 1128;
}
);
note = hyphen;
unicode = 45;
},
{
glyphname = endash;
lastChange = "2020-02-20 18:21:12 +0000";
layers = (
{
layerId = "CAA188E2-8C62-414B-93AE-B576BEB044DB";
shapes = (
{
closed = 1;
nodes = (
(960,588,l),
(960,672,l),
(120,672,l),
(120,588,l)
);
}
);
width = 1080;
},
{
layerId = "0DA27741-1AFD-43F2-A947-40AFBF8D6498";
shapes = (
{
closed = 1;
nodes = (
(960,526,l),
(960,736,l),
(120,736,l),
(120,526,l)
);
}
);
width = 1080;
},
{
associatedMasterId = "0DA27741-1AFD-43F2-A947-40AFBF8D6498";
layerId = "A2873047-0ED6-4C67-9B4D-3870B51BD5C6";
width = 1200;
},
{
associatedMasterId = "0DA27741-1AFD-43F2-A947-40AFBF8D6498";
layerId = "55314CA7-5524-4D70-B802-98D4FAE25636";
width = 1050;
},
{
associatedMasterId = "0DA27741-1AFD-43F2-A947-40AFBF8D6498";
layerId = "13A3DD5D-E91B-4961-8595-F8141D3FA442";
width = 1176;
}
);
unicode = 8211;
},
{
glyphname = emdash;
lastChange = "2020-02-20 18:21:12 +0000";
layers = (
{
layerId = "CAA188E2-8C62-414B-93AE-B576BEB044DB";
shapes = (
{
closed = 1;
nodes = (
(1440,588,l),
(1440,672,l),
(120,672,l),
(120,588,l)
);
}
);
width = 1560;
},
{
layerId = "0DA27741-1AFD-43F2-A947-40AFBF8D6498";
shapes = (
{
closed = 1;
nodes = (
(1440,526,l),
(1440,736,l),
(120,736,l),
(120,526,l)
);
}
);
width = 1560;
},
{
associatedMasterId = "0DA27741-1AFD-43F2-A947-40AFBF8D6498";
layerId = "A2873047-0ED6-4C67-9B4D-3870B51BD5C6";
width = 1200;
},
{
associatedMasterId = "0DA27741-1AFD-43F2-A947-40AFBF8D6498";
layerId = "55314CA7-5524-4D70-B802-98D4FAE25636";
width = 1650;
},
{
associatedMasterId = "0DA27741-1AFD-43F2-A947-40AFBF8D6498";
layerId = "13A3DD5D-E91B-4961-8595-F8141D3FA442";
width = 1272;
}
);
unicode = 8212;
},
{
glyphname = parenleft;
kernLeft = parenleft;
kernRight = parenleft;
lastChange = "2020-02-20 18:21:12 +0000";
layers = (
{
layerId = "CAA188E2-8C62-414B-93AE-B576BEB044DB";
shapes = (
{
closed = 1;
nodes = (
(726,-290,l),
(502,-34,o),
(360,324,o),
(360,660,cs),
(360,1002,o),
(498,1344,o),
(726,1612,c),
(664,1664,l),
(428,1396,o),
(280,1028,o),
(280,660,cs),
(280,292,o),
(428,-76,o),
(664,-344,c)
);
}
);
width = 816;
},
{
layerId = "0DA27741-1AFD-43F2-A947-40AFBF8D6498";
shapes = (
{
closed = 1;
nodes = (
(844,-240,l),
(600,54,o),
(528,342,o),
(526,660,cs),
(528,978,o),
(600,1266,o),
(844,1560,c),
(642,1708,l),
(410,1436,o),
(272,1034,o),
(280,660,cs),
(272,286,o),
(410,-116,o),
(642,-388,c)
);
}
);
width = 924;
},
{
associatedMasterId = "0DA27741-1AFD-43F2-A947-40AFBF8D6498";
layerId = "A2873047-0ED6-4C67-9B4D-3870B51BD5C6";
width = 1200;
},
{
associatedMasterId = "0DA27741-1AFD-43F2-A947-40AFBF8D6498";
layerId = "55314CA7-5524-4D70-B802-98D4FAE25636";
width = 540;
},
{
associatedMasterId = "0DA27741-1AFD-43F2-A947-40AFBF8D6498";
layerId = "13A3DD5D-E91B-4961-8595-F8141D3FA442";
width = 1094;
}
);
note = parenleft;
unicode = 40;
},
{
glyphname = braceleft;
kernLeft = parenleft;
kernRight = parenleft;
lastChange = "2020-02-20 18:31:41 +0000";
layers = (
{
layerId = "CAA188E2-8C62-414B-93AE-B576BEB044DB";
shapes = (
{
closed = 1;
nodes = (
(709,-444,l),
(709,-360,l),
(601,-360,ls),
(531,-360,o),
(475,-304,o),
(475,-236,cs),
(475,450,ls),
(475,492,o),
(463,534,o),
(437,570,cs),
(373,660,l),
(437,750,ls),
(463,786,o),
(475,826,o),
(475,870,cs),
(475,1554,ls),
(475,1624,o),
(531,1680,o),
(601,1680,cs),
(709,1680,l),
(709,1764,l),
(601,1764,ls),
(485,1764,o),
(391,1670,o),
(391,1554,cs),
(391,870,ls),
(391,844,o),
(383,820,o),
(369,798,cs),
(287,684,ls),
(277,670,o),
(277,650,o),
(287,636,cs),
(369,522,ls),
(383,500,o),
(391,476,o),
(391,450,cs),
(391,-236,ls),
(391,-350,o),
(485,-444,o),
(601,-444,cs)
);
}
);
width = 799;
},
{
layerId = "0DA27741-1AFD-43F2-A947-40AFBF8D6498";
shapes = (
{
closed = 1;
nodes = (
(838,-420,l),
(838,-166,l),
(716,-166,ls),
(684,-166,o),
(658,-140,o),
(658,-106,cs),
(658,458,ls),
(658,522,o),
(638,584,o),
(600,638,cs),
(562,690,l),
(600,742,ls),
(638,796,o),
(658,858,o),
(658,922,cs),
(658,1486,ls),
(658,1518,o),
(684,1544,o),
(716,1544,cs),
(838,1544,l),
(838,1800,l),
(696,1800,ls),
(512,1800,o),
(402,1688,o),
(402,1506,cs),
(402,922,ls),
(402,910,o),
(398,900,o),
(392,890,cs),
(302,762,ls),
(272,718,o),
(272,662,o),
(302,618,cs),
(392,490,ls),
(398,482,o),
(402,470,o),
(402,458,cs),
(402,-126,ls),
(402,-310,o),
(512,-420,o),
(696,-420,cs)
);
}
);
width = 918;
},
{
associatedMasterId = "0DA27741-1AFD-43F2-A947-40AFBF8D6498";
layerId = "A2873047-0ED6-4C67-9B4D-3870B51BD5C6";
width = 1200;
},
{
associatedMasterId = "0DA27741-1AFD-43F2-A947-40AFBF8D6498";
layerId = "55314CA7-5524-4D70-B802-98D4FAE25636";
width = 676;
},
{
associatedMasterId = "0DA27741-1AFD-43F2-A947-40AFBF8D6498";
layerId = "13A3DD5D-E91B-4961-8595-F8141D3FA442";
width = 1116;
}
);
metricLeft = parenleft;
metricRight = parenleft;
unicode = 123;
},
{
glyphname = bracketleft;
kernLeft = parenleft;
kernRight = parenleft;
lastChange = "2020-02-20 18:21:12 +0000";
layers = (
{
layerId = "CAA188E2-8C62-414B-93AE-B576BEB044DB";
shapes = (
{
closed = 1;
nodes = (
(612,-444,l),
(612,-360,l),
(364,-360,l),
(364,1680,l),
(612,1680,l),
(612,1764,l),
(280,1764,l),
(280,-444,l)
);
}
);
width = 792;
},
{
layerId = "0DA27741-1AFD-43F2-A947-40AFBF8D6498";
shapes = (
{
closed = 1;
nodes = (
(738,-420,l),
(738,-180,l),
(520,-180,l),
(520,1560,l),
(738,1560,l),
(738,1800,l),
(280,1800,l),
(280,-420,l)
);
}
);
width = 858;
},
{
associatedMasterId = "0DA27741-1AFD-43F2-A947-40AFBF8D6498";
layerId = "A2873047-0ED6-4C67-9B4D-3870B51BD5C6";
width = 1200;
},
{
associatedMasterId = "0DA27741-1AFD-43F2-A947-40AFBF8D6498";
layerId = "55314CA7-5524-4D70-B802-98D4FAE25636";
width = 610;
},
{
associatedMasterId = "0DA27741-1AFD-43F2-A947-40AFBF8D6498";
layerId = "13A3DD5D-E91B-4961-8595-F8141D3FA442";
width = 1106;
}
);
metricLeft = parenleft;
unicode = 91;
},
{
glyphname = guillemetleft;
kernLeft = less;
kernRight = less;
lastChange = "2020-02-20 18:21:12 +0000";
layers = (
{
layerId = "CAA188E2-8C62-414B-93AE-B576BEB044DB";
shapes = (
{
closed = 1;
nodes = (
(864,160,l),
(560,542,l),
(864,922,l),
(802,970,l),
(460,542,l),
(802,112,l)
);
},
{
closed = 1;
nodes = (
(564,160,l),
(260,542,l),
(564,922,l),
(502,970,l),
(160,542,l),
(502,112,l)
);
}
);
width = 1004;
},
{
layerId = "0DA27741-1AFD-43F2-A947-40AFBF8D6498";
shapes = (
{
closed = 1;
nodes = (
(1086,206,l),
(820,540,l),
(1086,874,l),
(944,986,l),
(590,540,l),
(944,94,l)
);
},
{
closed = 1;
nodes = (
(656,206,l),
(390,540,l),
(656,874,l),
(514,986,l),
(160,540,l),
(514,94,l)
);
}
);
width = 1206;
},
{
associatedMasterId = "0DA27741-1AFD-43F2-A947-40AFBF8D6498";
layerId = "A2873047-0ED6-4C67-9B4D-3870B51BD5C6";
width = 1200;
},
{
associatedMasterId = "0DA27741-1AFD-43F2-A947-40AFBF8D6498";
layerId = "55314CA7-5524-4D70-B802-98D4FAE25636";
width = 1036;
},
{
associatedMasterId = "0DA27741-1AFD-43F2-A947-40AFBF8D6498";
layerId = "13A3DD5D-E91B-4961-8595-F8141D3FA442";
width = 1174;
}
);
unicode = 171;
},
{
glyphname = quotesingle;
kernLeft = quotesingle;
kernRight = quotesingle;
lastChange = "2020-02-20 18:21:12 +0000";
layers = (
{
layerId = "CAA188E2-8C62-414B-93AE-B576BEB044DB";
shapes = (
{
closed = 1;
nodes = (
(204,1080,l),
(204,1440,l),
(120,1440,l),
(120,1080,l)
);
}
);
width = 364;
},
{
layerId = "0DA27741-1AFD-43F2-A947-40AFBF8D6498";
shapes = (
{
closed = 1;
nodes = (
(392,1080,l),
(392,1440,l),
(120,1440,l),
(120,1080,l)
);
}
);
width = 552;
},
{
associatedMasterId = "0DA27741-1AFD-43F2-A947-40AFBF8D6498";
layerId = "A2873047-0ED6-4C67-9B4D-3870B51BD5C6";
width = 1200;
},
{
associatedMasterId = "0DA27741-1AFD-43F2-A947-40AFBF8D6498";
layerId = "55314CA7-5524-4D70-B802-98D4FAE25636";
width = 276;
},
{
associatedMasterId = "0DA27741-1AFD-43F2-A947-40AFBF8D6498";
layerId = "13A3DD5D-E91B-4961-8595-F8141D3FA442";
width = 1052;
}
);
note = quotesingle;
unicode = 39;
},
{
glyphname = florin;
kernLeft = dollar;
kernRight = dollar;
lastChange = "2020-02-20 18:21:12 +0000";
layers = (
{
layerId = "CAA188E2-8C62-414B-93AE-B576BEB044DB";
shapes = (
{
closed = 1;
nodes = (
(406,-30,o),
(630,8,o),
(688,362,cs),
(810,1108,ls),
(852,1360,o),
(1048,1386,o),
(1136,1386,cs),
(1254,1386,o),
(1346,1338,o),
(1346,1338,c),
(1388,1410,ls),
(1392,1416,o),
(1276,1470,o),
(1142,1470,cs),
(1044,1470,o),
(780,1442,o),
(728,1122,cs),
(606,376,ls),
(560,96,o),
(402,54,o),
(306,54,cs),
(200,54,o),
(100,104,o),
(96,104,c),
(60,28,l),
(64,26,o),
(180,-30,o),
(304,-30,cs)
);
},
{
closed = 1;
nodes = (
(1246,678,l),
(1246,762,l),
(260,762,l),
(260,678,l)
);
}
);
width = 1448;
},
{
layerId = "0DA27741-1AFD-43F2-A947-40AFBF8D6498";
shapes = (
{
closed = 1;
nodes = (
(596,-30,o),
(734,144,o),
(778,408,cs),
(888,1072,ls),
(904,1166,o),
(988,1214,o),
(1078,1214,cs),
(1150,1214,o),
(1214,1182,o),
(1208,1182,c),
(1332,1406,l),
(1246,1446,o),
(1150,1470,o),
(1048,1470,cs),
(670,1470,o),
(612,1134,o),
(592,1008,cs),
(502,446,ls),
(488,352,o),
(452,226,o),
(330,226,cs),
(288,226,o),
(230,240,o),
(194,260,c),
(80,32,l),
(162,-4,o),
(262,-30,o),
(354,-30,cs)
);
},
{
closed = 1;
nodes = (
(1188,616,l),
(1188,826,l),
(262,826,l),
(262,616,l)
);
}
);
width = 1412;
},
{
associatedMasterId = "0DA27741-1AFD-43F2-A947-40AFBF8D6498";
layerId = "A2873047-0ED6-4C67-9B4D-3870B51BD5C6";
width = 1200;
},
{
associatedMasterId = "0DA27741-1AFD-43F2-A947-40AFBF8D6498";
layerId = "55314CA7-5524-4D70-B802-98D4FAE25636";
width = 1482;
},
{
associatedMasterId = "0DA27741-1AFD-43F2-A947-40AFBF8D6498";
layerId = "13A3DD5D-E91B-4961-8595-F8141D3FA442";
width = 1246;
}
);
metricLeft = dollar;
metricRight = dollar;
unicode = 402;
},
{
glyphname = at;
lastChange = "2020-02-20 18:21:12 +0000";
layers = (
{
background = {
shapes = (
{
closed = 1;
nodes = (
(1324,-210,o),
(1668,126,o),
(1668,540,cs),
(1668,954,o),
(1324,1290,o),
(898,1290,cs),
(474,1290,o),
(130,954,o),
(130,540,cs),
(130,126,o),
(474,-210,o),
(898,-210,cs)
);
},
{
closed = 1;
nodes = (
(1272,-118,o),
(1574,176,o),
(1574,540,cs),
(1574,904,o),
(1272,1198,o),
(898,1198,cs),
(526,1198,o),
(224,904,o),
(224,540,cs),
(224,176,o),
(526,-118,o),
(898,-118,cs)
);
}
);
};
hints = (
{
origin = (0,15);
target = (0,44);
type = Stem;
},
{
origin = (0,50);
target = (0,9);
type = Stem;
},
{
horizontal = 1;
origin = (0,53);
target = (0,6);
type = Stem;
},
{
horizontal = 1;
origin = (1,5);
target = (0,28);
type = Stem;
},
{
horizontal = 1;
origin = (0,12);
target = (0,47);
type = Stem;
},
{
origin = (0,31);
target = (1,2);
type = Stem;
},
{
origin = (0,23);
target = (0,22);
type = Stem;
},
{
horizontal = 1;
origin = (0,41);
target = (1,11);
type = Stem;
}
);
layerId = "CAA188E2-8C62-414B-93AE-B576BEB044DB";
shapes = (
{
closed = 1;
nodes = (
(1050,-210,o),
(1196,-170,o),
(1326,-86,c),
(1290,-18,l),
(1188,-86,o),
(1044,-126,o),
(910,-126,cs),
(546,-126,o),
(250,172,o),
(250,538,cs),
(250,876,o),
(492,1206,o),
(918,1206,cs),
(1314,1206,o),
(1568,942,o),
(1544,546,cs),
(1534,382,o),
(1448,286,o),
(1338,286,cs),
(1204,286,o),
(1158,368,o),
(1158,466,cs),
(1158,756,l),
(1080,756,l),
(1080,620,l),
(1118,658,l),
(1070,752,o),
(966,784,o),
(880,784,cs),
(722,784,o),
(610,678,o),
(610,510,cs),
(610,350,o),
(716,238,o),
(878,238,cs),
(976,238,o),
(1078,280,o),
(1118,368,c),
(1080,376,l),
(1106,266,o),
(1196,202,o),
(1328,202,cs),
(1492,202,o),
(1612,316,o),
(1632,562,cs),
(1662,920,o),
(1420,1290,o),
(918,1290,cs),
(450,1290,o),
(160,946,o),
(160,540,cs),
(160,112,o),
(490,-210,o),
(904,-210,cs)
);
},
{
closed = 1;
nodes = (
(768,324,o),
(694,386,o),
(694,512,cs),
(694,634,o),
(762,702,o),
(882,702,cs),
(990,702,o),
(1068,638,o),
(1068,512,cs),
(1068,392,o),
(994,324,o),
(882,324,cs)
);
}
);
width = 1794;
},
{
hints = (
{
horizontal = 1;
origin = (0,6);
target = (0,53);
type = Stem;
},
{
horizontal = 1;
origin = (0,12);
target = (0,47);
type = Stem;
},
{
horizontal = 1;
origin = (0,41);
target = (1,11);
type = Stem;
},
{
horizontal = 1;
origin = (1,5);
target = (0,28);
type = Stem;
},
{
origin = (0,31);
target = (1,2);
type = Stem;
},
{
origin = (0,50);
target = (0,9);
type = Stem;
},
{
origin = (0,23);
target = (0,22);
type = Stem;
},
{
origin = (0,15);
target = (0,44);
type = Stem;
}
);
layerId = "0DA27741-1AFD-43F2-A947-40AFBF8D6498";
shapes = (
{
closed = 1;
nodes = (
(1012,-210,o),
(1110,-196,o),
(1200,-166,c),
(1132,34,l),
(1066,12,o),
(994,0,o),
(922,0,cs),
(602,0,o),
(396,178,o),
(384,514,cs),
(372,868,o),
(574,1080,o),
(920,1080,cs),
(1118,1080,o),
(1448,994,o),
(1448,574,cs),
(1448,458,o),
(1452,364,o),
(1350,364,cs),
(1298,364,o),
(1262,402,o),
(1262,506,cs),
(1266,900,l),
(1104,900,l),
(1104,778,l),
(1146,836,l),
(1092,888,o),
(984,928,o),
(898,928,cs),
(684,928,o),
(514,778,o),
(514,540,cs),
(514,308,o),
(672,152,o),
(894,152,cs),
(994,152,o),
(1098,186,o),
(1160,296,c),
(1092,296,l),
(1132,200,o),
(1246,152,o),
(1350,152,cs),
(1588,152,o),
(1674,308,o),
(1674,574,cs),
(1674,960,o),
(1410,1290,o),
(900,1290,cs),
(512,1290,o),
(160,1048,o),
(160,506,cs),
(160,92,o),
(464,-210,o),
(912,-210,cs)
);
},
{
closed = 1;
nodes = (
(800,364,o),
(740,432,o),
(740,540,cs),
(740,646,o),
(796,716,o),
(918,716,cs),
(1018,716,o),
(1068,654,o),
(1068,540,cs),
(1068,404,o),
(996,364,o),
(910,364,cs)
);
}
);
width = 1834;
}
);
note = at;
unicode = 64;
},
{
glyphname = ampersand;
lastChange = "2020-02-20 18:21:12 +0000";
layers = (
{
layerId = "CAA188E2-8C62-414B-93AE-B576BEB044DB";
shapes = (
{
closed = 1;
nodes = (
(692,-30,o),
(792,-18,o),
(874,26,cs),
(930,56,o),
(994,108,o),
(1024,162,c),
(1196,0,l),
(1254,62,l),
(1064,238,l),
(1078,280,o),
(1090,338,o),
(1090,466,cs),
(1090,660,l),
(1000,660,l),
(1002,426,ls),
(1002,386,o),
(1000,350,o),
(992,306,c),
(474,788,ls),
(436,822,o),
(398,854,o),
(366,890,cs),
(304,964,o),
(278,1014,o),
(278,1106,cs),
(278,1214,o),
(324,1300,o),
(414,1346,cs),
(468,1372,o),
(532,1386,o),
(596,1386,cs),
(672,1386,o),
(748,1368,o),
(806,1328,cs),
(844,1302,o),
(872,1270,o),
(890,1228,c),
(968,1264,l),
(944,1316,o),
(904,1364,o),
(856,1396,cs),
(786,1446,o),
(684,1470,o),
(588,1470,cs),
(516,1470,o),
(442,1456,o),
(374,1422,cs),
(256,1362,o),
(188,1238,o),
(188,1102,cs),
(188,962,o),
(250,886,o),
(364,772,c),
(300,748,o),
(236,712,o),
(190,654,cs),
(126,578,o),
(98,474,o),
(100,380,cs),
(104,278,o),
(138,182,o),
(206,110,cs),
(296,14,o),
(432,-30,o),
(594,-30,cs)
);
},
{
closed = 1;
nodes = (
(466,54,o),
(340,90,o),
(268,172,c),
(216,226,o),
(192,302,o),
(190,382,cs),
(188,462,o),
(210,540,o),
(258,598,cs),
(302,650,o),
(366,686,o),
(436,706,c),
(962,226,l),
(944,198,o),
(918,156,o),
(834,104,cs),
(764,62,o),
(688,54,o),
(590,54,cs)
);
}
);
width = 1280;
},
{
background = {
shapes = (
{
closed = 1;
nodes = (
(1326,600,l),
(1326,854,l),
(888,854,l),
(888,730,l),
(888,566,l),
(598,834,l),
(564,868,o),
(524,902,o),
(502,926,c),
(470,960,o),
(442,1002,o),
(442,1052,cs),
(442,1124,o),
(468,1168,o),
(530,1196,c),
(558,1206,o),
(592,1212,o),
(630,1212,cs),
(678,1212,o),
(736,1202,o),
(778,1166,c),
(796,1148,o),
(806,1126,o),
(812,1094,c),
(1082,1148,l),
(1066,1214,o),
(1032,1282,o),
(980,1336,c),
(896,1428,o),
(770,1466,o),
(638,1466,cs),
(572,1466,o),
(502,1460,o),
(434,1436,c),
(270,1378,o),
(168,1230,o),
(168,1056,cs),
(168,950,o),
(204,876,o),
(276,794,c),
(250,774,o),
(224,752,o),
(202,726,c),
(132,644,o),
(100,536,o),
(100,422,cs),
(104,306,o),
(140,206,o),
(216,122,c),
(312,18,o),
(462,-30,o),
(622,-30,cs),
(670,-30,o),
(718,-26,o),
(768,-18,c),
(854,-4,o),
(946,32,o),
(1022,98,c),
(1154,-28,l),
(1328,158,l),
(1152,320,l),
(1160,354,o),
(1164,388,o),
(1164,420,c),
(1164,600,l)
);
},
{
closed = 1;
nodes = (
(692,230,o),
(664,228,o),
(634,228,cs),
(560,228,o),
(456,250,o),
(412,306,c),
(386,340,o),
(374,380,o),
(374,438,cs),
(374,486,o),
(384,524,o),
(408,554,c),
(422,574,o),
(446,592,o),
(474,604,c),
(826,280,l),
(798,260,o),
(762,244,o),
(720,236,c)
);
}
);
};
layerId = "0DA27741-1AFD-43F2-A947-40AFBF8D6498";
shapes = (
{
closed = 1;
nodes = (
(670,-30,o),
(714,-28,o),
(770,-20,cs),
(858,-6,o),
(946,32,o),
(1022,98,c),
(1154,-28,l),
(1328,158,l),
(1152,320,l),
(1162,364,o),
(1164,438,o),
(1164,500,cs),
(1164,774,l),
(928,774,l),
(928,610,l),
(928,584,o),
(928,550,o),
(928,528,c),
(598,834,ls),
(560,868,o),
(524,902,o),
(502,926,cs),
(470,960,o),
(442,990,o),
(442,1052,cs),
(442,1120,o),
(470,1164,o),
(530,1192,cs),
(560,1206,o),
(592,1212,o),
(630,1212,cs),
(678,1212,o),
(732,1204,o),
(770,1166,cs),
(788,1148,o),
(804,1122,o),
(812,1094,c),
(1082,1148,l),
(1066,1214,o),
(1032,1282,o),
(980,1336,cs),
(896,1428,o),
(770,1466,o),
(638,1466,cs),
(572,1466,o),
(502,1460,o),
(434,1436,cs),
(270,1378,o),
(168,1230,o),
(168,1056,cs),
(168,950,o),
(204,876,o),
(276,794,c),
(250,774,o),
(224,752,o),
(202,726,cs),
(132,644,o),
(100,536,o),
(100,422,cs),
(104,306,o),
(136,206,o),
(214,120,cs),
(310,16,o),
(462,-30,o),
(622,-30,cs)
);
},
{
closed = 1;
nodes = (
(560,228,o),
(464,250,o),
(420,306,cs),
(394,340,o),
(374,380,o),
(374,438,cs),
(374,486,o),
(386,524,o),
(408,554,cs),
(424,574,o),
(446,592,o),
(474,604,c),
(826,280,l),
(798,260,o),
(762,244,o),
(720,236,cs),
(692,230,o),
(664,228,o),
(634,228,cs)
);
}
);
width = 1348;
},
{
associatedMasterId = "0DA27741-1AFD-43F2-A947-40AFBF8D6498";
layerId = "A2873047-0ED6-4C67-9B4D-3870B51BD5C6";
width = 1200;
},
{
associatedMasterId = "0DA27741-1AFD-43F2-A947-40AFBF8D6498";
layerId = "55314CA7-5524-4D70-B802-98D4FAE25636";
width = 1368;
},
{
associatedMasterId = "0DA27741-1AFD-43F2-A947-40AFBF8D6498";
layerId = "13A3DD5D-E91B-4961-8595-F8141D3FA442";
width = 1226;
}
);
note = ampersand;
unicode = 38;
},
{
glyphname = paragraph;
lastChange = "2020-02-20 18:21:12 +0000";
layers = (
{
layerId = "CAA188E2-8C62-414B-93AE-B576BEB044DB";
shapes = (
{
closed = 1;
nodes = (
(782,-282,l),
(782,1440,l),
(612,1440,ls),
(584,1440,o),
(556,1438,o),
(520,1432,cs),
(312,1398,o),
(180,1224,o),
(180,1008,cs),
(180,792,o),
(312,618,o),
(520,584,cs),
(556,578,o),
(584,576,o),
(612,576,cs),
(698,576,l),
(698,-282,l)
);
},
{
closed = 1;
nodes = (
(982,-282,l),
(982,1440,l),
(898,1440,l),
(898,-282,l)
);
}
);
width = 1162;
},
{
layerId = "0DA27741-1AFD-43F2-A947-40AFBF8D6498";
shapes = (
{
closed = 1;
nodes = (
(940,-282,l),
(940,1440,l),
(572,1440,ls),
(562,1440,o),
(508,1440,o),
(452,1432,cs),
(194,1396,o),
(80,1202,o),
(80,964,cs),
(80,722,o),
(200,532,o),
(452,496,cs),
(508,488,o),
(564,488,o),
(572,488,cs),
(668,488,l),
(668,-282,l)
);
},
{
closed = 1;
nodes = (
(1404,-282,l),
(1404,1440,l),
(1132,1440,l),
(1132,-282,l)
);
}
);
width = 1484;
}
);
unicode = 182;
},
{
glyphname = section;
lastChange = "2020-02-20 18:21:12 +0000";
layers = (
{
layerId = "CAA188E2-8C62-414B-93AE-B576BEB044DB";
shapes = (
{
closed = 1;
nodes = (
(754,-328,o),
(926,-220,o),
(926,-14,cs),
(926,198,o),
(746,246,o),
(510,306,cs),
(328,352,o),
(180,390,o),
(180,522,cs),
(180,644,o),
(306,728,o),
(466,766,c),
(472,782,l),
(284,810,o),
(92,712,o),
(92,518,cs),
(92,336,o),
(260,288,o),
(486,226,cs),
(712,164,o),
(836,134,o),
(836,-10,cs),
(836,-162,o),
(698,-244,o),
(544,-244,cs),
(418,-244,o),
(250,-186,o),
(206,-24,c),
(120,-40,l),
(166,-248,o),
(362,-328,o),
(542,-328,cs)
);
},
{
closed = 1;
nodes = (
(796,172,o),
(966,280,o),
(966,486,cs),
(966,698,o),
(786,746,o),
(550,806,cs),
(368,852,o),
(220,890,o),
(220,1022,cs),
(220,1144,o),
(348,1226,o),
(496,1226,cs),
(618,1226,o),
(788,1168,o),
(822,982,c),
(908,998,l),
(888,1180,o),
(716,1310,o),
(506,1310,cs),
(326,1310,o),
(132,1212,o),
(132,1018,cs),
(132,836,o),
(300,788,o),
(526,726,cs),
(752,664,o),
(876,634,o),
(876,490,cs),
(876,338,o),
(740,256,o),
(616,256,c),
(614,232,l)
);
}
);
width = 1028;
},
{
layerId = "0DA27741-1AFD-43F2-A947-40AFBF8D6498";
shapes = (
{
closed = 1;
nodes = (
(810,-270,o),
(994,-144,o),
(994,90,cs),
(994,270,o),
(884,342,o),
(654,406,cs),
(472,456,o),
(366,466,o),
(366,550,cs),
(366,608,o),
(414,642,o),
(512,676,c),
(486,790,l),
(304,790,o),
(96,710,o),
(96,510,cs),
(96,358,o),
(214,274,o),
(456,212,cs),
(654,162,o),
(716,146,o),
(716,72,cs),
(716,-4,o),
(648,-36,o),
(578,-36,cs),
(484,-36,o),
(400,20,o),
(378,126,c),
(100,84,l),
(140,-158,o),
(324,-270,o),
(560,-270,cs)
);
},
{
closed = 1;
nodes = (
(864,256,o),
(1014,360,o),
(1014,558,cs),
(1014,730,o),
(902,802,o),
(674,866,cs),
(502,914,o),
(386,924,o),
(386,1010,cs),
(386,1070,o),
(442,1098,o),
(512,1098,cs),
(604,1098,o),
(650,1052,o),
(666,960,c),
(944,1010,l),
(914,1222,o),
(722,1330,o),
(520,1330,cs),
(322,1330,o),
(116,1226,o),
(116,990,cs),
(116,810,o),
(234,734,o),
(476,672,cs),
(674,622,o),
(736,606,o),
(736,532,cs),
(736,456,o),
(668,404,o),
(602,384,c),
(610,274,l)
);
}
);
width = 1094;
}
);
unicode = 167;
},
{
glyphname = copyright;
lastChange = "2020-02-20 18:21:12 +0000";
layers = (
{
background = {
shapes = (
{
closed = 1;
nodes = (
(1128,-10,o),
(1436,298,o),
(1436,678,cs),
(1436,1058,o),
(1128,1366,o),
(748,1366,cs),
(368,1366,o),
(60,1058,o),
(60,678,cs),
(60,298,o),
(368,-10,o),
(748,-10,cs)
);
},
{
closed = 1;
nodes = (
(830,260,o),
(896,278,o),
(956,316,cs),
(996,342,o),
(1046,390,o),
(1080,466,c),
(996,496,l),
(974,448,o),
(944,408,o),
(902,382,cs),
(858,356,o),
(806,342,o),
(752,342,cs),
(666,342,o),
(590,376,o),
(542,442,cs),
(498,502,o),
(476,592,o),
(476,684,cs),
(476,764,o),
(492,854,o),
(542,918,cs),
(592,982,o),
(668,1018,o),
(754,1018,cs),
(806,1018,o),
(858,1006,o),
(900,978,cs),
(942,950,o),
(978,906,o),
(998,862,c),
(1080,890,l),
(1058,958,o),
(1008,1014,o),
(950,1050,cs),
(890,1086,o),
(826,1100,o),
(756,1100,cs),
(638,1100,o),
(540,1060,o),
(470,972,cs),
(404,888,o),
(386,782,o),
(384,682,cs),
(384,584,o),
(400,476,o),
(470,388,cs),
(540,300,o),
(638,260,o),
(752,260,cs)
);
},
{
closed = 1;
nodes = (
(414,78,o),
(146,346,o),
(146,680,cs),
(146,1010,o),
(414,1278,o),
(748,1278,cs),
(1078,1278,o),
(1346,1010,o),
(1346,680,cs),
(1346,346,o),
(1078,78,o),
(748,78,cs)
);
}
);
};
layerId = "CAA188E2-8C62-414B-93AE-B576BEB044DB";
shapes = (
{
closed = 1;
nodes = (
(1128,-10,o),
(1436,298,o),
(1436,678,cs),
(1436,1058,o),
(1128,1366,o),
(748,1366,cs),
(368,1366,o),
(60,1058,o),
(60,678,cs),
(60,298,o),
(368,-10,o),
(748,-10,cs)
);
},
{
closed = 1;
nodes = (
(830,260,o),
(896,278,o),
(956,316,cs),
(996,342,o),
(1046,390,o),
(1080,466,c),
(996,496,l),
(974,448,o),
(944,408,o),
(902,382,cs),
(858,356,o),
(806,342,o),
(752,342,cs),
(666,342,o),
(590,376,o),
(542,442,cs),
(498,502,o),
(476,592,o),
(476,684,cs),
(476,764,o),
(492,854,o),
(542,918,cs),
(592,982,o),
(668,1018,o),
(754,1018,cs),
(806,1018,o),
(858,1006,o),
(900,978,cs),
(942,950,o),
(978,906,o),
(998,862,c),
(1080,890,l),
(1058,958,o),
(1008,1014,o),
(950,1050,cs),
(890,1086,o),
(826,1100,o),
(756,1100,cs),
(638,1100,o),
(540,1060,o),
(470,972,cs),
(404,888,o),
(386,782,o),
(384,682,cs),
(384,584,o),
(400,476,o),
(470,388,cs),
(540,300,o),
(638,260,o),
(752,260,cs)
);
},
{
closed = 1;
nodes = (
(414,78,o),
(146,346,o),
(146,680,cs),
(146,1010,o),
(414,1278,o),
(748,1278,cs),
(1078,1278,o),
(1346,1010,o),
(1346,680,cs),
(1346,346,o),
(1078,78,o),
(748,78,cs)
);
}
);
width = 1496;
},
{
background = {
shapes = (
{
closed = 1;
nodes = (
(1388,-134,o),
(1770,248,o),
(1770,720,cs),
(1770,1192,o),
(1388,1574,o),
(916,1574,cs),
(444,1574,o),
(62,1192,o),
(62,720,cs),
(62,248,o),
(444,-134,o),
(916,-134,cs)
);
},
{
closed = 1;
nodes = (
(584,120,o),
(316,388,o),
(316,720,cs),
(316,1052,o),
(584,1320,o),
(916,1320,cs),
(1248,1320,o),
(1516,1052,o),
(1516,720,cs),
(1516,388,o),
(1248,120,o),
(916,120,cs)
);
},
{
closed = 1;
nodes = (
(1042,292,o),
(1110,316,o),
(1170,362,cs),
(1236,412,o),
(1280,484,o),
(1302,562,c),
(1094,604,l),
(1082,570,o),
(1070,544,o),
(1042,518,cs),
(1016,496,o),
(984,484,o),
(938,484,cs),
(872,484,o),
(826,508,o),
(794,552,cs),
(760,600,o),
(748,658,o),
(748,720,cs),
(748,782,o),
(758,844,o),
(794,890,cs),
(828,932,o),
(874,958,o),
(934,958,cs),
(972,958,o),
(1008,946,o),
(1038,920,cs),
(1070,892,o),
(1088,860,o),
(1098,824,c),
(1302,878,l),
(1280,976,o),
(1224,1048,o),
(1148,1094,cs),
(1080,1136,o),
(1022,1148,o),
(946,1148,cs),
(800,1148,o),
(706,1102,o),
(632,1012,cs),
(566,932,o),
(532,834,o),
(532,720,cs),
(532,610,o),
(562,514,o),
(632,426,cs),
(708,332,o),
(798,292,o),
(936,292,cs)
);
}
);
};
layerId = "0DA27741-1AFD-43F2-A947-40AFBF8D6498";
shapes = (
{
closed = 1;
nodes = (
(1386,-140,o),
(1768,242,o),
(1768,714,cs),
(1768,1186,o),
(1386,1568,o),
(914,1568,cs),
(442,1568,o),
(60,1186,o),
(60,714,cs),
(60,242,o),
(442,-140,o),
(914,-140,cs)
);
},
{
closed = 1;
nodes = (
(1038,286,o),
(1106,310,o),
(1166,356,cs),
(1232,406,o),
(1276,478,o),
(1298,556,c),
(1090,598,l),
(1078,564,o),
(1066,540,o),
(1038,512,cs),
(1014,488,o),
(980,478,o),
(934,478,cs),
(868,478,o),
(822,502,o),
(790,546,cs),
(756,594,o),
(744,652,o),
(744,714,cs),
(744,776,o),
(754,838,o),
(790,884,cs),
(824,926,o),
(870,952,o),
(930,952,cs),
(968,952,o),
(1004,940,o),
(1034,914,cs),
(1066,886,o),
(1084,854,o),
(1094,818,c),
(1298,872,l),
(1276,970,o),
(1220,1042,o),
(1144,1088,cs),
(1076,1130,o),
(1018,1142,o),
(942,1142,cs),
(796,1142,o),
(702,1096,o),
(628,1006,cs),
(562,926,o),
(528,828,o),
(528,714,cs),
(528,604,o),
(558,508,o),
(628,420,cs),
(704,326,o),
(794,286,o),
(932,286,cs)
);
},
{
closed = 1;
nodes = (
(582,114,o),
(314,382,o),
(314,714,cs),
(314,1046,o),
(582,1314,o),
(914,1314,cs),
(1246,1314,o),
(1514,1046,o),
(1514,714,cs),
(1514,382,o),
(1246,114,o),
(914,114,cs)
);
}
);
width = 1828;
},
{
associatedMasterId = "0DA27741-1AFD-43F2-A947-40AFBF8D6498";
layerId = "A2873047-0ED6-4C67-9B4D-3870B51BD5C6";
width = 1200;
},
{
associatedMasterId = "0DA27741-1AFD-43F2-A947-40AFBF8D6498";
layerId = "55314CA7-5524-4D70-B802-98D4FAE25636";
width = 1700;
},
{
associatedMasterId = "0DA27741-1AFD-43F2-A947-40AFBF8D6498";
layerId = "13A3DD5D-E91B-4961-8595-F8141D3FA442";
width = 1280;
}
);
metricLeft = O;
metricRight = O;
unicode = 169;
},
{
glyphname = registered;
lastChange = "2020-02-20 18:21:12 +0000";
layers = (
{
layerId = "CAA188E2-8C62-414B-93AE-B576BEB044DB";
shapes = (
{
closed = 1;
nodes = (
(862,594,o),
(1070,802,o),
(1070,1060,cs),
(1070,1316,o),
(862,1524,o),
(606,1524,cs),
(348,1524,o),
(140,1316,o),
(140,1060,cs),
(140,802,o),
(348,594,o),
(606,594,cs)
);
},
{
closed = 1;
nodes = (
(394,678,o),
(224,848,o),
(224,1060,cs),
(224,1270,o),
(394,1440,o),
(606,1440,cs),
(816,1440,o),
(986,1270,o),
(986,1060,cs),
(986,848,o),
(816,678,o),
(606,678,cs)
);
},
{
closed = 1;
nodes = (
(516,834,l),
(516,998,l),
(636,998,l),
(716,834,l),
(798,834,l),
(710,1012,l),
(764,1036,o),
(798,1094,o),
(798,1146,cs),
(798,1226,o),
(726,1294,o),
(648,1294,cs),
(444,1294,l),
(444,834,l)
);
},
{
closed = 1;
nodes = (
(516,1226,l),
(646,1226,ls),
(680,1226,o),
(724,1194,o),
(724,1146,cs),
(724,1102,o),
(686,1066,o),
(646,1066,cs),
(516,1066,l)
);
}
);
width = 1210;
},
{
layerId = "0DA27741-1AFD-43F2-A947-40AFBF8D6498";
shapes = (
{
closed = 1;
nodes = (
(954,536,o),
(1190,772,o),
(1190,1062,cs),
(1190,1350,o),
(954,1586,o),
(664,1586,cs),
(376,1586,o),
(140,1350,o),
(140,1062,cs),
(140,772,o),
(376,536,o),
(664,536,cs)
);
},
{
closed = 1;
nodes = (
(472,712,o),
(316,872,o),
(316,1062,cs),
(316,1256,o),
(472,1412,o),
(666,1412,cs),
(856,1412,o),
(1016,1256,o),
(1016,1062,cs),
(1016,872,o),
(856,712,o),
(666,712,cs)
);
},
{
closed = 1;
nodes = (
(588,824,l),
(588,986,l),
(688,986,l),
(766,824,l),
(868,824,l),
(780,1002,l),
(836,1034,o),
(862,1084,o),
(862,1142,cs),
(858,1238,o),
(800,1300,o),
(698,1300,cs),
(498,1300,l),
(498,824,l)
);
},
{
closed = 1;
nodes = (
(588,1214,l),
(702,1214,ls),
(748,1214,o),
(770,1188,o),
(770,1142,cs),
(770,1100,o),
(742,1070,o),
(702,1070,cs),
(588,1070,l)
);
}
);
width = 1330;
},
{
associatedMasterId = "0DA27741-1AFD-43F2-A947-40AFBF8D6498";
layerId = "A2873047-0ED6-4C67-9B4D-3870B51BD5C6";
width = 1200;
},
{
associatedMasterId = "0DA27741-1AFD-43F2-A947-40AFBF8D6498";
layerId = "55314CA7-5524-4D70-B802-98D4FAE25636";
width = 936;
},
{
associatedMasterId = "0DA27741-1AFD-43F2-A947-40AFBF8D6498";
layerId = "13A3DD5D-E91B-4961-8595-F8141D3FA442";
width = 1158;
}
);
unicode = 174;
},
{
glyphname = trademark;
lastChange = "2020-02-20 18:21:12 +0000";
layers = (
{
layerId = "CAA188E2-8C62-414B-93AE-B576BEB044DB";
shapes = (
{
closed = 1;
nodes = (
(968,690,l),
(968,1266,l),
(1226,798,l),
(1294,798,l),
(1554,1266,l),
(1554,690,l),
(1634,690,l),
(1632,1440,l),
(1558,1440,l),
(1260,904,l),
(962,1440,l),
(888,1440,l),
(888,690,l)
);
},
{
closed = 1;
nodes = (
(474,690,l),
(474,1356,l),
(742,1356,l),
(742,1440,l),
(120,1440,l),
(120,1356,l),
(390,1356,l),
(390,690,l)
);
}
);
width = 1754;
},
{
layerId = "0DA27741-1AFD-43F2-A947-40AFBF8D6498";
shapes = (
{
closed = 1;
nodes = (
(1118,690,l),
(1118,1092,l),
(1288,828,l),
(1388,828,l),
(1558,1092,l),
(1558,690,l),
(1738,690,l),
(1738,1440,l),
(1588,1440,l),
(1338,1062,l),
(1088,1440,l),
(938,1440,l),
(938,690,l)
);
},
{
closed = 1;
nodes = (
(554,690,l),
(554,1272,l),
(800,1272,l),
(800,1440,l),
(120,1440,l),
(120,1272,l),
(366,1272,l),
(366,690,l)
);
}
);
width = 1858;
},
{
associatedMasterId = "0DA27741-1AFD-43F2-A947-40AFBF8D6498";
layerId = "A2873047-0ED6-4C67-9B4D-3870B51BD5C6";
width = 1200;
},
{
associatedMasterId = "0DA27741-1AFD-43F2-A947-40AFBF8D6498";
layerId = "55314CA7-5524-4D70-B802-98D4FAE25636";
width = 1570;
},
{
associatedMasterId = "0DA27741-1AFD-43F2-A947-40AFBF8D6498";
layerId = "13A3DD5D-E91B-4961-8595-F8141D3FA442";
width = 1260;
}
);
unicode = 8482;
},
{
glyphname = degree;
lastChange = "2020-02-20 18:21:12 +0000";
layers = (
{
layerId = "CAA188E2-8C62-414B-93AE-B576BEB044DB";
shapes = (
{
closed = 1;
nodes = (
(618,750,o),
(780,910,o),
(780,1110,cs),
(780,1310,o),
(618,1470,o),
(420,1470,cs),
(228,1470,o),
(60,1306,o),
(60,1110,cs),
(60,910,o),
(222,750,o),
(420,750,cs)
);
},
{
closed = 1;
nodes = (
(270,834,o),
(144,960,o),
(144,1110,cs),
(144,1260,o),
(270,1386,o),
(420,1386,cs),
(570,1386,o),
(696,1260,o),
(696,1110,cs),
(696,960,o),
(570,834,o),
(420,834,cs)
);
}
);
width = 900;
},
{
layerId = "0DA27741-1AFD-43F2-A947-40AFBF8D6498";
shapes = (
{
closed = 1;
nodes = (
(618,750,o),
(780,910,o),
(780,1110,cs),
(780,1310,o),
(618,1470,o),
(420,1470,cs),
(228,1470,o),
(60,1306,o),
(60,1110,cs),
(60,910,o),
(222,750,o),
(420,750,cs)
);
},
{
closed = 1;
nodes = (
(350,980,o),
(290,1040,o),
(290,1110,cs),
(290,1180,o),
(350,1240,o),
(420,1240,cs),
(490,1240,o),
(550,1180,o),
(550,1110,cs),
(550,1040,o),
(490,980,o),
(420,980,cs)
);
}
);
width = 900;
},
{
associatedMasterId = "0DA27741-1AFD-43F2-A947-40AFBF8D6498";
layerId = "A2873047-0ED6-4C67-9B4D-3870B51BD5C6";
width = 1200;
},
{
associatedMasterId = "0DA27741-1AFD-43F2-A947-40AFBF8D6498";
layerId = "55314CA7-5524-4D70-B802-98D4FAE25636";
width = 826;
},
{
associatedMasterId = "0DA27741-1AFD-43F2-A947-40AFBF8D6498";
layerId = "13A3DD5D-E91B-4961-8595-F8141D3FA442";
width = 1140;
}
);
unicode = 176;
},
{
glyphname = bar;
lastChange = "2020-02-20 18:21:12 +0000";
layers = (
{
layerId = "CAA188E2-8C62-414B-93AE-B576BEB044DB";
shapes = (
{
closed = 1;
nodes = (
(264,0,l),
(264,1440,l),
(180,1440,l),
(180,0,l)
);
}
);
width = 444;
},
{
layerId = "0DA27741-1AFD-43F2-A947-40AFBF8D6498";
shapes = (
{
closed = 1;
nodes = (
(452,0,l),
(452,1440,l),
(180,1440,l),
(180,0,l)
);
}
);
width = 632;
},
{
associatedMasterId = "0DA27741-1AFD-43F2-A947-40AFBF8D6498";
layerId = "A2873047-0ED6-4C67-9B4D-3870B51BD5C6";
width = 1200;
},
{
associatedMasterId = "0DA27741-1AFD-43F2-A947-40AFBF8D6498";
layerId = "55314CA7-5524-4D70-B802-98D4FAE25636";
width = 376;
},
{
associatedMasterId = "0DA27741-1AFD-43F2-A947-40AFBF8D6498";
layerId = "13A3DD5D-E91B-4961-8595-F8141D3FA442";
width = 1068;
}
);
unicode = 124;
},
{
glyphname = brokenbar;
lastChange = "2020-02-20 18:21:12 +0000";
layers = (
{
layerId = "CAA188E2-8C62-414B-93AE-B576BEB044DB";
shapes = (
{
closed = 1;
nodes = (
(264,752,l),
(264,1440,l),
(180,1440,l),
(180,752,l)
);
},
{
closed = 1;
nodes = (
(264,-248,l),
(264,440,l),
(180,440,l),
(180,-248,l)
);
}
);
width = 444;
},
{
layerId = "0DA27741-1AFD-43F2-A947-40AFBF8D6498";
shapes = (
{
closed = 1;
nodes = (
(452,600,l),
(452,1440,l),
(180,1440,l),
(180,600,l)
);
},
{
closed = 1;
nodes = (
(452,-440,l),
(452,400,l),
(180,400,l),
(180,-440,l)
);
}
);
width = 632;
}
);
unicode = 166;
},
{
glyphname = daggerdbl;
lastChange = "2020-02-20 18:21:12 +0000";
layers = (
{
layerId = "CAA188E2-8C62-414B-93AE-B576BEB044DB";
shapes = (
{
closed = 1;
nodes = (
(416,0,l),
(416,582,l),
(326,492,l),
(628,492,l),
(628,576,l),
(326,576,l),
(416,486,l),
(416,988,l),
(326,898,l),
(628,898,l),
(628,982,l),
(326,982,l),
(416,892,l),
(416,1440,l),
(332,1440,l),
(332,892,l),
(422,982,l),
(120,982,l),
(120,898,l),
(422,898,l),
(332,988,l),
(332,486,l),
(422,576,l),
(120,576,l),
(120,492,l),
(422,492,l),
(332,582,l),
(332,0,l)
);
}
);
width = 748;
},
{
layerId = "0DA27741-1AFD-43F2-A947-40AFBF8D6498";
shapes = (
{
closed = 1;
nodes = (
(616,0,l),
(616,516,l),
(526,426,l),
(840,426,l),
(840,636,l),
(526,636,l),
(616,546,l),
(616,960,l),
(526,870,l),
(840,870,l),
(840,1080,l),
(526,1080,l),
(616,990,l),
(616,1440,l),
(344,1440,l),
(344,990,l),
(434,1080,l),
(122,1080,l),
(122,870,l),
(434,870,l),
(344,960,l),
(344,546,l),
(434,636,l),
(122,636,l),
(122,426,l),
(434,426,l),
(344,516,l),
(344,0,l)
);
}
);
width = 960;
}
);
unicode = 8225;
},
{
glyphname = dollar;
kernLeft = S;
kernRight = S;
lastChange = "2020-02-20 18:21:12 +0000";
layers = (
{
layerId = "CAA188E2-8C62-414B-93AE-B576BEB044DB";
shapes = (
{
closed = 1;
nodes = (
(606,-196,l),
(606,26,l),
(522,26,l),
(522,-196,l)
);
},
{
closed = 1;
nodes = (
(606,1416,l),
(606,1640,l),
(522,1640,l),
(522,1416,l)
);
},
{
closed = 1;
nodes = (
(880,-30,o),
(1066,128,o),
(1066,374,cs),
(1066,564,o),
(974,670,o),
(754,738,cs),
(468,826,ls),
(282,884,o),
(200,966,o),
(200,1092,cs),
(200,1264,o),
(350,1386,o),
(560,1386,cs),
(784,1386,o),
(952,1244,o),
(980,1034,c),
(1060,1050,l),
(1026,1304,o),
(828,1470,o),
(558,1470,cs),
(296,1470,o),
(114,1314,o),
(114,1090,cs),
(114,934,o),
(212,820,o),
(396,762,cs),
(698,668,ls),
(908,604,o),
(986,526,o),
(986,378,cs),
(986,182,o),
(830,54,o),
(590,54,cs),
(360,54,o),
(188,176,o),
(140,374,c),
(60,358,l),
(110,120,o),
(314,-30,o),
(590,-30,cs)
);
}
);
width = 1126;
},
{
background = {
shapes = (
{
closed = 1;
nodes = (
(788,-200,l),
(788,40,l),
(516,40,l),
(516,-200,l)
);
},
{
closed = 1;
nodes = (
(788,1398,l),
(788,1638,l),
(516,1638,l),
(516,1398,l)
);
},
{
closed = 1;
nodes = (
(934,-30,o),
(1202,118,o),
(1202,428,cs),
(1202,724,o),
(954,792,o),
(824,830,cs),
(588,898,ls),
(500,924,o),
(404,958,o),
(404,1052,cs),
(404,1154,o),
(518,1218,o),
(640,1214,cs),
(764,1210,o),
(882,1136,o),
(912,996,c),
(1192,1046,l),
(1124,1322,o),
(918,1466,o),
(644,1468,cs),
(366,1470,o),
(134,1330,o),
(134,1038,cs),
(134,762,o),
(342,692,o),
(442,662,cs),
(798,552,ls),
(852,536,o),
(932,502,o),
(932,408,cs),
(932,288,o),
(800,224,o),
(672,224,cs),
(520,224,o),
(388,316,o),
(350,482,c),
(80,440,l),
(122,148,o),
(350,-30,o),
(656,-30,cs)
);
}
);
};
layerId = "0DA27741-1AFD-43F2-A947-40AFBF8D6498";
shapes = (
{
closed = 1;
nodes = (
(788,-200,l),
(788,40,l),
(516,40,l),
(516,-200,l)
);
},
{
closed = 1;
nodes = (
(788,1398,l),
(788,1638,l),
(516,1638,l),
(516,1398,l)
);
},
{
closed = 1;
nodes = (
(980,-30,o),
(1202,156,o),
(1202,428,cs),
(1202,634,o),
(1096,752,o),
(842,826,cs),
(588,898,ls),
(460,934,o),
(404,982,o),
(404,1052,cs),
(404,1146,o),
(508,1218,o),
(640,1214,cs),
(778,1210,o),
(884,1124,o),
(912,996,c),
(1192,1046,l),
(1124,1314,o),
(930,1464,o),
(644,1468,cs),
(332,1470,o),
(134,1302,o),
(134,1038,cs),
(134,852,o),
(240,724,o),
(442,662,cs),
(798,552,ls),
(890,522,o),
(932,478,o),
(932,408,cs),
(932,304,o),
(820,224,o),
(670,224,cs),
(510,224,o),
(386,324,o),
(350,482,c),
(80,440,l),
(122,152,o),
(344,-30,o),
(654,-30,cs)
);
}
);
width = 1282;
},
{
associatedMasterId = "0DA27741-1AFD-43F2-A947-40AFBF8D6498";
layerId = "A2873047-0ED6-4C67-9B4D-3870B51BD5C6";
width = 1200;
},
{
associatedMasterId = "0DA27741-1AFD-43F2-A947-40AFBF8D6498";
layerId = "55314CA7-5524-4D70-B802-98D4FAE25636";
width = 1112;
},
{
associatedMasterId = "0DA27741-1AFD-43F2-A947-40AFBF8D6498";
layerId = "13A3DD5D-E91B-4961-8595-F8141D3FA442";
width = 1186;
}
);
metricLeft = S;
metricRight = S;
note = dollar;
unicode = 36;
},
{
glyphname = plus;
lastChange = "2020-02-20 18:21:12 +0000";
layers = (
{
layerId = "CAA188E2-8C62-414B-93AE-B576BEB044DB";
shapes = (
{
closed = 1;
nodes = (
(622,260,l),
(622,678,l),
(1040,678,l),
(1040,762,l),
(622,762,l),
(622,1180,l),
(538,1180,l),
(538,762,l),
(120,762,l),
(120,678,l),
(538,678,l),
(538,260,l)
);
}
);
width = 1160;
},
{
layerId = "0DA27741-1AFD-43F2-A947-40AFBF8D6498";
shapes = (
{
closed = 1;
nodes = (
(676,270,l),
(676,616,l),
(1020,616,l),
(1020,826,l),
(676,826,l),
(676,1170,l),
(466,1170,l),
(466,826,l),
(120,826,l),
(120,616,l),
(466,616,l),
(466,270,l)
);
}
);
width = 1140;
},
{
associatedMasterId = "0DA27741-1AFD-43F2-A947-40AFBF8D6498";
layerId = "A2873047-0ED6-4C67-9B4D-3870B51BD5C6";
width = 1200;
},
{
associatedMasterId = "0DA27741-1AFD-43F2-A947-40AFBF8D6498";
layerId = "55314CA7-5524-4D70-B802-98D4FAE25636";
width = 1200;
},
{
associatedMasterId = "0DA27741-1AFD-43F2-A947-40AFBF8D6498";
layerId = "13A3DD5D-E91B-4961-8595-F8141D3FA442";
width = 1200;
}
);
note = plus;
unicode = 43;
},
{
glyphname = divide;
lastChange = "2021-12-23 11:33:16 +0000";
layers = (
{
layerId = "CAA188E2-8C62-414B-93AE-B576BEB044DB";
shapes = (
{
closed = 1;
nodes = (
(960,678,l),
(960,762,l),
(120,762,l),
(120,678,l)
);
},
{
closed = 1;
nodes = (
(600,902,l),
(600,1022,l),
(480,1022,l),
(480,902,l)
);
},
{
closed = 1;
nodes = (
(600,418,l),
(600,538,l),
(480,538,l),
(480,418,l)
);
}
);
width = 1080;
},
{
layerId = "0DA27741-1AFD-43F2-A947-40AFBF8D6498";
shapes = (
{
closed = 1;
nodes = (
(960,616,l),
(960,826,l),
(120,826,l),
(120,616,l)
);
},
{
closed = 1;
nodes = (
(665,928,l),
(665,1175,l),
(417,1175,l),
(417,928,l)
);
},
{
closed = 1;
nodes = (
(665,268,l),
(665,515,l),
(417,515,l),
(417,268,l)
);
}
);
width = 1080;
}
);
unicode = 247;
},
{
glyphname = equal;
lastChange = "2020-02-20 18:21:12 +0000";
layers = (
{
layerId = "CAA188E2-8C62-414B-93AE-B576BEB044DB";
shapes = (
{
closed = 1;
nodes = (
(1260,836,l),
(1260,920,l),
(240,920,l),
(240,836,l)
);
},
{
closed = 1;
nodes = (
(1260,520,l),
(1260,604,l),
(240,604,l),
(240,520,l)
);
}
);
width = 1500;
},
{
layerId = "0DA27741-1AFD-43F2-A947-40AFBF8D6498";
shapes = (
{
closed = 1;
nodes = (
(1260,810,l),
(1260,1020,l),
(240,1020,l),
(240,810,l)
);
},
{
closed = 1;
nodes = (
(1260,420,l),
(1260,630,l),
(240,630,l),
(240,420,l)
);
}
);
width = 1500;
},
{
associatedMasterId = "0DA27741-1AFD-43F2-A947-40AFBF8D6498";
layerId = "A2873047-0ED6-4C67-9B4D-3870B51BD5C6";
width = 1200;
},
{
associatedMasterId = "0DA27741-1AFD-43F2-A947-40AFBF8D6498";
layerId = "55314CA7-5524-4D70-B802-98D4FAE25636";
width = 1576;
},
{
associatedMasterId = "0DA27741-1AFD-43F2-A947-40AFBF8D6498";
layerId = "13A3DD5D-E91B-4961-8595-F8141D3FA442";
width = 1260;
}
);
note = equal;
unicode = 61;
},
{
glyphname = notequal;
lastChange = "2020-02-20 18:21:12 +0000";
layers = (
{
layerId = "CAA188E2-8C62-414B-93AE-B576BEB044DB";
shapes = (
{
closed = 1;
nodes = (
(1112,1022,l),
(1052,1080,l),
(390,420,l),
(450,360,l)
);
},
{
alignment = 1;
ref = equal;
}
);
width = 1500;
},
{
layerId = "0DA27741-1AFD-43F2-A947-40AFBF8D6498";
shapes = (
{
closed = 1;
nodes = (
(1172,1140,l),
(1002,1260,l),
(330,300,l),
(502,180,l)
);
},
{
alignment = 1;
ref = equal;
}
);
width = 1500;
},
{
associatedMasterId = "0DA27741-1AFD-43F2-A947-40AFBF8D6498";
layerId = "A2873047-0ED6-4C67-9B4D-3870B51BD5C6";
width = 1200;
},
{
associatedMasterId = "0DA27741-1AFD-43F2-A947-40AFBF8D6498";
layerId = "55314CA7-5524-4D70-B802-98D4FAE25636";
width = 1276;
},
{
associatedMasterId = "0DA27741-1AFD-43F2-A947-40AFBF8D6498";
layerId = "13A3DD5D-E91B-4961-8595-F8141D3FA442";
width = 1212;
}
);
unicode = 8800;
},
{
glyphname = less;
lastChange = "2020-02-20 18:21:12 +0000";
layers = (
{
layerId = "CAA188E2-8C62-414B-93AE-B576BEB044DB";
shapes = (
{
closed = 1;
nodes = (
(798,222,l),
(390,630,l),
(798,1038,l),
(742,1092,l),
(280,630,l),
(742,168,l)
);
}
);
width = 1198;
},
{
layerId = "0DA27741-1AFD-43F2-A947-40AFBF8D6498";
shapes = (
{
closed = 1;
nodes = (
(932,314,l),
(604,630,l),
(932,946,l),
(764,1114,l),
(280,630,l),
(764,146,l)
);
}
);
width = 1290;
},
{
associatedMasterId = "0DA27741-1AFD-43F2-A947-40AFBF8D6498";
layerId = "A2873047-0ED6-4C67-9B4D-3870B51BD5C6";
width = 1200;
},
{
associatedMasterId = "0DA27741-1AFD-43F2-A947-40AFBF8D6498";
layerId = "55314CA7-5524-4D70-B802-98D4FAE25636";
width = 1330;
},
{
associatedMasterId = "0DA27741-1AFD-43F2-A947-40AFBF8D6498";
layerId = "13A3DD5D-E91B-4961-8595-F8141D3FA442";
width = 1220;
}
);
note = less;
unicode = 60;
},
{
glyphname = lessequal;
lastChange = "2020-02-20 18:21:12 +0000";
layers = (
{
layerId = "0DA27741-1AFD-43F2-A947-40AFBF8D6498";
shapes = (
{
closed = 1;
nodes = (
(1260,544,l),
(614,722,l),
(1260,900,l),
(1260,1110,l),
(240,802,l),
(240,642,l),
(1260,334,l)
);
},
{
closed = 1;
nodes = (
(1260,0,l),
(1260,210,l),
(240,210,l),
(240,0,l)
);
}
);
width = 1500;
},
{
layerId = "CAA188E2-8C62-414B-93AE-B576BEB044DB";
shapes = (
{
closed = 1;
nodes = (
(1260,426,l),
(386,722,l),
(1260,1018,l),
(1260,1110,l),
(240,762,l),
(240,682,l),
(1260,334,l)
);
},
{
closed = 1;
nodes = (
(1260,0,l),
(1260,84,l),
(240,84,l),
(240,0,l)
);
}
);
width = 1500;
}
);
metricLeft = equal;
metricRight = equal;
unicode = 8804;
},
{
glyphname = plusminus;
lastChange = "2020-02-20 18:21:12 +0000";
layers = (
{
layerId = "CAA188E2-8C62-414B-93AE-B576BEB044DB";
shapes = (
{
closed = 1;
nodes = (
(642,440,l),
(642,718,l),
(1080,718,l),
(1080,802,l),
(642,802,l),
(642,1080,l),
(558,1080,l),
(558,802,l),
(120,802,l),
(120,718,l),
(558,718,l),
(558,440,l)
);
},
{
closed = 1;
nodes = (
(1080,176,l),
(1080,260,l),
(120,260,l),
(120,176,l)
);
}
);
width = 1200;
},
{
layerId = "0DA27741-1AFD-43F2-A947-40AFBF8D6498";
shapes = (
{
closed = 1;
nodes = (
(706,440,l),
(706,656,l),
(1080,656,l),
(1080,866,l),
(706,866,l),
(706,1080,l),
(496,1080,l),
(496,866,l),
(120,866,l),
(120,656,l),
(496,656,l),
(496,440,l)
);
},
{
closed = 1;
nodes = (
(1080,120,l),
(1080,330,l),
(120,330,l),
(120,120,l)
);
}
);
width = 1200;
},
{
associatedMasterId = "0DA27741-1AFD-43F2-A947-40AFBF8D6498";
layerId = "A2873047-0ED6-4C67-9B4D-3870B51BD5C6";
width = 1200;
},
{
associatedMasterId = "0DA27741-1AFD-43F2-A947-40AFBF8D6498";
layerId = "55314CA7-5524-4D70-B802-98D4FAE25636";
width = 1200;
},
{
associatedMasterId = "0DA27741-1AFD-43F2-A947-40AFBF8D6498";
layerId = "13A3DD5D-E91B-4961-8595-F8141D3FA442";
width = 1200;
}
);
unicode = 177;
},
{
glyphname = approxequal;
lastChange = "2020-02-20 18:21:12 +0000";
layers = (
{
hints = (
{
horizontal = 1;
origin = (0,19);
target = (0,6);
type = Stem;
},
{
horizontal = 1;
origin = (0,16);
target = (0,9);
type = Stem;
},
{
place = (238, 101);
place = (238, 101);
type = Stem;
},
{
place = (912, 101);
place = (912, 101);
type = Stem;
},
{
horizontal = 1;
origin = (1,19);
target = (1,6);
type = Stem;
},
{
horizontal = 1;
origin = (1,16);
target = (1,9);
type = Stem;
},
{
place = (238, 101);
place = (238, 101);
type = Stem;
},
{
place = (912, 101);
place = (912, 101);
type = Stem;
}
);
layerId = "CAA188E2-8C62-414B-93AE-B576BEB044DB";
shapes = (
{
closed = 1;
nodes = (
(954,760,o),
(1040,878,o),
(1006,1004,c),
(904,1004,l),
(930,926,o),
(894,850,o),
(828,850,cs),
(724,850,o),
(580,1022,o),
(426,1022,cs),
(300,1022,o),
(212,908,o),
(246,778,c),
(348,778,l),
(328,828,o),
(338,932,o),
(424,932,cs),
(534,932,o),
(666,760,o),
(824,760,cs)
);
},
{
closed = 1;
nodes = (
(954,400,o),
(1040,518,o),
(1006,644,c),
(904,644,l),
(926,578,o),
(904,490,o),
(828,490,cs),
(720,490,o),
(580,662,o),
(426,662,cs),
(300,662,o),
(212,548,o),
(246,418,c),
(348,418,l),
(328,468,o),
(338,572,o),
(424,572,cs),
(534,572,o),
(668,400,o),
(824,400,cs)
);
}
);
width = 1252;
},
{
hints = (
{
horizontal = 1;
origin = (1,19);
target = (1,6);
type = Stem;
},
{
horizontal = 1;
origin = (1,16);
target = (1,9);
type = Stem;
},
{
place = (266, 209);
place = (266, 209);
type = Stem;
},
{
place = (995, 209);
place = (995, 209);
type = Stem;
},
{
horizontal = 1;
origin = (0,19);
target = (0,6);
type = Stem;
},
{
horizontal = 1;
origin = (0,16);
target = (0,9);
type = Stem;
},
{
place = (266, 209);
place = (266, 209);
type = Stem;
},
{
place = (995, 209);
place = (995, 209);
type = Stem;
}
);
layerId = "0DA27741-1AFD-43F2-A947-40AFBF8D6498";
shapes = (
{
closed = 1;
nodes = (
(1096,768,o),
(1198,920,o),
(1158,1114,c),
(962,1114,l),
(986,1026,o),
(966,952,o),
(914,952,cs),
(826,952,o),
(720,1152,o),
(532,1152,cs),
(376,1152,o),
(268,1012,o),
(308,806,c),
(504,806,l),
(476,912,o),
(502,968,o),
(552,968,cs),
(646,968,o),
(746,768,o),
(932,768,cs)
);
},
{
closed = 1;
nodes = (
(1096,306,o),
(1198,460,o),
(1158,652,c),
(962,652,l),
(986,560,o),
(966,490,o),
(914,490,cs),
(826,490,o),
(720,690,o),
(532,690,cs),
(376,690,o),
(268,550,o),
(308,344,c),
(504,344,l),
(476,452,o),
(502,506,o),
(552,506,cs),
(646,506,o),
(744,306,o),
(932,306,cs)
);
}
);
width = 1466;
}
);
unicode = 8776;
},
{
glyphname = logicalnot;
lastChange = "2020-02-20 18:21:12 +0000";
layers = (
{
layerId = "CAA188E2-8C62-414B-93AE-B576BEB044DB";
shapes = (
{
closed = 1;
nodes = (
(1080,402,l),
(1080,742,l),
(120,742,l),
(120,658,l),
(996,658,l),
(996,402,l)
);
}
);
width = 1200;
},
{
layerId = "0DA27741-1AFD-43F2-A947-40AFBF8D6498";
shapes = (
{
closed = 1;
nodes = (
(1080,366,l),
(1080,806,l),
(120,806,l),
(120,596,l),
(870,596,l),
(870,366,l)
);
}
);
width = 1200;
}
);
unicode = 172;
},
{
glyphname = infinity;
lastChange = "2020-02-20 18:21:12 +0000";
layers = (
{
layerId = "CAA188E2-8C62-414B-93AE-B576BEB044DB";
shapes = (
{
closed = 1;
nodes = (
(538,230,o),
(614,338,o),
(688,524,c),
(636,524,l),
(710,338,o),
(786,230,o),
(952,230,cs),
(1152,230,o),
(1254,390,o),
(1254,580,cs),
(1254,770,o),
(1152,926,o),
(952,926,cs),
(786,926,o),
(710,818,o),
(636,632,c),
(688,632,l),
(614,818,o),
(538,926,o),
(374,926,cs),
(174,926,o),
(70,766,o),
(70,580,cs),
(70,410,o),
(156,230,o),
(372,230,cs)
);
},
{
closed = 1;
nodes = (
(218,320,o),
(168,454,o),
(168,578,cs),
(168,702,o),
(218,836,o),
(378,836,cs),
(482,836,o),
(566,778,o),
(634,578,c),
(566,378,o),
(482,320,o),
(378,320,cs)
);
},
{
closed = 1;
nodes = (
(842,320,o),
(758,378,o),
(690,578,c),
(758,778,o),
(842,836,o),
(946,836,cs),
(1106,836,o),
(1156,702,o),
(1156,578,cs),
(1156,454,o),
(1106,320,o),
(946,320,cs)
);
}
);
width = 1324;
},
{
layerId = "0DA27741-1AFD-43F2-A947-40AFBF8D6498";
shapes = (
{
closed = 1;
nodes = (
(568,144,o),
(724,214,o),
(782,452,c),
(722,452,l),
(776,214,o),
(922,144,o),
(1062,144,cs),
(1280,144,o),
(1432,332,o),
(1432,584,cs),
(1432,850,o),
(1262,1008,o),
(1062,1008,cs),
(926,1008,o),
(776,926,o),
(722,700,c),
(782,700,l),
(734,926,o),
(592,1008,o),
(442,1008,cs),
(220,1008,o),
(76,812,o),
(70,576,cs),
(64,322,o),
(214,144,o),
(432,144,cs)
);
},
{
closed = 1;
nodes = (
(354,388,o),
(282,460,o),
(282,576,cs),
(282,692,o),
(354,764,o),
(444,764,cs),
(532,764,o),
(604,694,o),
(678,576,c),
(604,458,o),
(532,388,o),
(444,388,cs)
);
},
{
closed = 1;
nodes = (
(972,388,o),
(900,458,o),
(826,576,c),
(900,694,o),
(972,764,o),
(1060,764,cs),
(1150,764,o),
(1222,692,o),
(1222,576,cs),
(1222,460,o),
(1150,388,o),
(1060,388,cs)
);
}
);
width = 1502;
}
);
unicode = 8734;
},
{
glyphname = emptyset;
lastChange = "2020-02-20 18:21:12 +0000";
layers = (
{
layerId = "CAA188E2-8C62-414B-93AE-B576BEB044DB";
shapes = (
{
closed = 1;
nodes = (
(1110,992,l),
(1050,1054,l),
(88,94,l),
(148,34,l)
);
},
{
closed = 1;
nodes = (
(856,80,o),
(1064,288,o),
(1064,546,cs),
(1064,802,o),
(856,1010,o),
(600,1010,cs),
(342,1010,o),
(134,802,o),
(134,546,cs),
(134,288,o),
(342,80,o),
(600,80,cs)
);
},
{
closed = 1;
nodes = (
(388,164,o),
(218,334,o),
(218,546,cs),
(218,756,o),
(388,926,o),
(600,926,cs),
(810,926,o),
(980,756,o),
(980,546,cs),
(980,334,o),
(810,164,o),
(600,164,cs)
);
}
);
width = 1200;
},
{
layerId = "0DA27741-1AFD-43F2-A947-40AFBF8D6498";
shapes = (
{
closed = 1;
nodes = (
(1122,992,l),
(1022,1094,l),
(60,134,l),
(160,34,l)
);
},
{
closed = 1;
nodes = (
(880,38,o),
(1116,274,o),
(1116,564,cs),
(1116,852,o),
(880,1088,o),
(590,1088,cs),
(302,1088,o),
(66,852,o),
(66,564,cs),
(66,274,o),
(302,38,o),
(590,38,cs)
);
},
{
closed = 1;
nodes = (
(396,214,o),
(240,374,o),
(240,564,cs),
(240,758,o),
(396,914,o),
(590,914,cs),
(780,914,o),
(940,758,o),
(940,564,cs),
(940,374,o),
(780,214,o),
(590,214,cs)
);
}
);
width = 1200;
}
);
unicode = 8709;
},
{
glyphname = integral;
lastChange = "2020-02-20 18:21:12 +0000";
layers = (
{
layerId = "CAA188E2-8C62-414B-93AE-B576BEB044DB";
shapes = (
{
closed = 1;
nodes = (
(286,-320,ls),
(322,-320,o),
(420,-320,o),
(492,-252,cs),
(562,-186,o),
(572,-84,o),
(576,-52,cs),
(708,1194,ls),
(724,1344,o),
(794,1394,o),
(916,1394,cs),
(1046,1394,l),
(1054,1470,l),
(914,1470,ls),
(878,1470,o),
(780,1470,o),
(708,1402,cs),
(636,1334,o),
(628,1232,o),
(624,1202,cs),
(492,-44,ls),
(476,-194,o),
(406,-244,o),
(284,-244,cs),
(154,-244,l),
(146,-320,l)
);
}
);
width = 1200;
},
{
layerId = "0DA27741-1AFD-43F2-A947-40AFBF8D6498";
shapes = (
{
closed = 1;
nodes = (
(248,-440,ls),
(312,-440,o),
(462,-454,o),
(574,-340,cs),
(660,-254,o),
(668,-142,o),
(678,-46,cs),
(802,1140,ls),
(808,1200,o),
(856,1250,o),
(940,1250,cs),
(1064,1250,l),
(1086,1470,l),
(952,1470,ls),
(888,1470,o),
(738,1484,o),
(626,1370,cs),
(540,1284,o),
(532,1172,o),
(522,1076,cs),
(398,-110,ls),
(392,-170,o),
(344,-220,o),
(260,-220,cs),
(136,-220,l),
(114,-440,l)
);
}
);
width = 1200;
}
);
unicode = 8747;
},
{
glyphname = product;
lastChange = "2020-02-20 18:21:12 +0000";
layers = (
{
layerId = "CAA188E2-8C62-414B-93AE-B576BEB044DB";
shapes = (
{
closed = 1;
nodes = (
(204,0,l),
(204,1356,l),
(660,1356,l),
(660,0,l),
(744,0,l),
(744,1440,l),
(120,1440,l),
(120,0,l)
);
}
);
width = 864;
},
{
layerId = "0DA27741-1AFD-43F2-A947-40AFBF8D6498";
shapes = (
{
closed = 1;
nodes = (
(392,0,l),
(392,1230,l),
(852,1230,l),
(852,0,l),
(1124,0,l),
(1124,1440,l),
(120,1440,l),
(120,0,l)
);
}
);
width = 1244;
}
);
unicode = 8719;
},
{
glyphname = summation;
lastChange = "2020-02-20 18:21:12 +0000";
layers = (
{
layerId = "CAA188E2-8C62-414B-93AE-B576BEB044DB";
shapes = (
{
closed = 1;
nodes = (
(910,-132,l),
(910,-58,l),
(142,-58,l),
(168,-106,l),
(908,512,l),
(908,606,l),
(168,1224,l),
(142,1176,l),
(908,1176,l),
(909,1250,l),
(121,1250,l),
(120,1166,l),
(882,530,l),
(882,590,l),
(120,-52,l),
(120,-134,l)
);
}
);
width = 1030;
},
{
layerId = "0DA27741-1AFD-43F2-A947-40AFBF8D6498";
shapes = (
{
closed = 1;
nodes = (
(1018,-140,l),
(1018,104,l),
(392,104,l),
(412,58,l),
(1018,532,l),
(1018,628,l),
(412,1102,l),
(392,1056,l),
(1018,1056,l),
(1018,1300,l),
(120,1300,l),
(120,1056,l),
(786,524,l),
(786,636,l),
(120,104,l),
(120,-140,l)
);
}
);
width = 1138;
}
);
unicode = 8721;
},
{
glyphname = radical;
lastChange = "2020-02-20 18:21:12 +0000";
layers = (
{
layerId = "CAA188E2-8C62-414B-93AE-B576BEB044DB";
shapes = (
{
closed = 1;
nodes = (
(550,0,l),
(1166,1680,l),
(1082,1680,l),
(508,116,l),
(330,680,l),
(24,680,l),
(24,606,l),
(270,606,l),
(462,0,l)
);
}
);
width = 1116;
},
{
layerId = "0DA27741-1AFD-43F2-A947-40AFBF8D6498";
shapes = (
{
closed = 1;
nodes = (
(742,0,l),
(1244,1596,l),
(1012,1596,l),
(612,324,l),
(462,798,l),
(24,798,l),
(24,598,l),
(294,598,l),
(482,0,l)
);
}
);
width = 1194;
}
);
unicode = 8730;
},
{
glyphname = partialdiff;
lastChange = "2020-02-20 18:21:12 +0000";
layers = (
{
layerId = "CAA188E2-8C62-414B-93AE-B576BEB044DB";
shapes = (
{
closed = 1;
nodes = (
(878,-34,o),
(1066,180,o),
(1066,506,c),
(1066,842,o),
(1054,994,o),
(976,1144,c),
(880,1340,o),
(704,1452,o),
(470,1466,c),
(460,1384,l),
(658,1370,o),
(814,1280,o),
(900,1106,c),
(938,1028,o),
(960,940,o),
(970,850,c),
(886,976,o),
(730,1040,o),
(574,1038,cs),
(266,1042,o),
(84,832,o),
(80,504,cs),
(84,180,o),
(262,-34,o),
(574,-30,cs)
);
},
{
closed = 1;
nodes = (
(314,54,o),
(170,222,o),
(170,504,cs),
(170,778,o),
(312,958,o),
(574,954,cs),
(828,958,o),
(976,784,o),
(976,506,cs),
(976,230,o),
(838,54,o),
(574,54,cs)
);
}
);
width = 1146;
},
{
layerId = "0DA27741-1AFD-43F2-A947-40AFBF8D6498";
shapes = (
{
closed = 1;
nodes = (
(928,-30,o),
(1122,188,o),
(1122,510,cs),
(1122,816,o),
(1094,1090,o),
(920,1304,cs),
(798,1454,o),
(628,1514,o),
(444,1520,c),
(402,1314,l),
(558,1304,o),
(672,1234,o),
(768,1144,cs),
(838,1078,o),
(858,1020,o),
(866,966,c),
(754,1022,o),
(754,1036,o),
(602,1036,cs),
(298,1036,o),
(80,822,o),
(80,502,cs),
(80,190,o),
(292,-30,o),
(602,-30,cs)
);
},
{
closed = 1;
nodes = (
(438,210,o),
(352,320,o),
(352,504,cs),
(352,684,o),
(434,796,o),
(602,796,cs),
(762,796,o),
(850,684,o),
(850,504,cs),
(850,328,o),
(766,210,o),
(602,210,cs)
);
}
);
width = 1202;
}
);
unicode = 8706;
},
{
glyphname = upArrow;
lastChange = "2020-02-20 18:21:12 +0000";
layers = (
{
layerId = "CAA188E2-8C62-414B-93AE-B576BEB044DB";
shapes = (
{
closed = 1;
nodes = (
(744,0,l),
(744,1276,l),
(1110,910,l),
(1164,966,l),
(702,1428,l),
(240,966,l),
(294,910,l),
(660,1276,l),
(660,0,l)
);
}
);
width = 1404;
},
{
layerId = "0DA27741-1AFD-43F2-A947-40AFBF8D6498";
shapes = (
{
closed = 1;
nodes = (
(830,0,l),
(830,1110,l),
(1080,860,l),
(1208,986,l),
(724,1470,l),
(240,986,l),
(368,860,l),
(620,1112,l),
(620,0,l)
);
}
);
width = 1448;
},
{
associatedMasterId = "0DA27741-1AFD-43F2-A947-40AFBF8D6498";
layerId = "A2873047-0ED6-4C67-9B4D-3870B51BD5C6";
width = 1200;
},
{
associatedMasterId = "0DA27741-1AFD-43F2-A947-40AFBF8D6498";
layerId = "55314CA7-5524-4D70-B802-98D4FAE25636";
width = 1252;
},
{
associatedMasterId = "0DA27741-1AFD-43F2-A947-40AFBF8D6498";
layerId = "13A3DD5D-E91B-4961-8595-F8141D3FA442";
width = 1208;
}
);
unicode = 8593;
},
{
glyphname = carriagereturn;
kernLeft = less;
kernRight = emdash;
lastChange = "2020-02-20 18:21:12 +0000";
layers = (
{
layerId = "CAA188E2-8C62-414B-93AE-B576BEB044DB";
shapes = (
{
closed = 1;
nodes = (
(798,222,l),
(432,588,l),
(1468,588,l),
(1468,1440,l),
(1384,1440,l),
(1384,672,l),
(432,672,l),
(798,1038,l),
(742,1092,l),
(280,630,l),
(742,168,l)
);
}
);
width = 1588;
},
{
layerId = "0DA27741-1AFD-43F2-A947-40AFBF8D6498";
shapes = (
{
closed = 1;
nodes = (
(890,274,l),
(640,524,l),
(1528,524,l),
(1528,1440,l),
(1318,1440,l),
(1318,736,l),
(640,736,l),
(890,986,l),
(764,1114,l),
(280,630,l),
(764,146,l)
);
}
);
width = 1648;
},
{
associatedMasterId = "0DA27741-1AFD-43F2-A947-40AFBF8D6498";
layerId = "A2873047-0ED6-4C67-9B4D-3870B51BD5C6";
width = 1200;
},
{
associatedMasterId = "0DA27741-1AFD-43F2-A947-40AFBF8D6498";
layerId = "55314CA7-5524-4D70-B802-98D4FAE25636";
width = 1552;
},
{
associatedMasterId = "0DA27741-1AFD-43F2-A947-40AFBF8D6498";
layerId = "13A3DD5D-E91B-4961-8595-F8141D3FA442";
width = 1256;
}
);
metricLeft = less;
metricRight = emdash;
unicode = 8629;
},
{
glyphname = lozenge;
lastChange = "2020-02-20 18:21:12 +0000";
layers = (
{
layerId = "CAA188E2-8C62-414B-93AE-B576BEB044DB";
shapes = (
{
closed = 1;
nodes = (
(504,0,l),
(806,670,l),
(504,1340,l),
(402,1340,l),
(100,670,l),
(402,0,l)
);
},
{
closed = 1;
nodes = (
(190,670,l),
(454,1274,l),
(716,670,l),
(454,66,l)
);
}
);
width = 906;
},
{
layerId = "0DA27741-1AFD-43F2-A947-40AFBF8D6498";
shapes = (
{
closed = 1;
nodes = (
(724,-20,l),
(1014,674,l),
(724,1368,l),
(390,1368,l),
(100,674,l),
(390,-20,l)
);
},
{
closed = 1;
nodes = (
(368,674,l),
(556,1130,l),
(746,674,l),
(556,218,l)
);
}
);
width = 1114;
}
);
unicode = 9674;
},
{
glyphname = dieresistonos;
lastChange = "2020-03-29 04:05:03 +0000";
layers = (
{
layerId = "0DA27741-1AFD-43F2-A947-40AFBF8D6498";
shapes = (
{
closed = 1;
nodes = (
(1042,1230,l),
(1042,1470,l),
(832,1470,l),
(832,1230,l)
);
},
{
closed = 1;
nodes = (
(368,1230,l),
(368,1470,l),
(158,1470,l),
(158,1230,l)
);
},
{
pos = (28,-360);
ref = acutecomb;
}
);
width = 1200;
},
{
layerId = "CAA188E2-8C62-414B-93AE-B576BEB044DB";
shapes = (
{
closed = 1;
nodes = (
(880,1320,l),
(880,1440,l),
(760,1440,l),
(760,1320,l)
);
},
{
closed = 1;
nodes = (
(442,1320,l),
(442,1440,l),
(322,1440,l),
(322,1320,l)
);
},
{
pos = (139,-360);
ref = acutecomb;
}
);
width = 1200;
}
);
unicode = 901;
},
{
export = 0;
glyphname = dieresiscomb;
lastChange = "2020-03-14 02:04:14 +0000";
layers = (
{
layerId = "CAA188E2-8C62-414B-93AE-B576BEB044DB";
shapes = (
{
closed = 1;
nodes = (
(720,1680,l),
(720,1800,l),
(600,1800,l),
(600,1680,l)
);
},
{
closed = 1;
nodes = (
(360,1680,l),
(360,1800,l),
(240,1800,l),
(240,1680,l)
);
}
);
width = 960;
},
{
layerId = "0DA27741-1AFD-43F2-A947-40AFBF8D6498";
shapes = (
{
closed = 1;
nodes = (
(904,1592,l),
(904,1832,l),
(664,1832,l),
(664,1592,l)
);
},
{
closed = 1;
nodes = (
(480,1592,l),
(480,1832,l),
(240,1832,l),
(240,1592,l)
);
}
);
width = 1144;
},
{
associatedMasterId = "0DA27741-1AFD-43F2-A947-40AFBF8D6498";
layerId = "A2873047-0ED6-4C67-9B4D-3870B51BD5C6";
width = 1200;
},
{
associatedMasterId = "0DA27741-1AFD-43F2-A947-40AFBF8D6498";
layerId = "55314CA7-5524-4D70-B802-98D4FAE25636";
width = 1050;
},
{
associatedMasterId = "0DA27741-1AFD-43F2-A947-40AFBF8D6498";
layerId = "13A3DD5D-E91B-4961-8595-F8141D3FA442";
width = 1176;
}
);
unicode = 776;
},
{
export = 0;
glyphname = dotaccentcomb;
lastChange = "2020-02-20 18:21:12 +0000";
layers = (
{
layerId = "CAA188E2-8C62-414B-93AE-B576BEB044DB";
shapes = (
{
closed = 1;
nodes = (
(360,1680,l),
(360,1800,l),
(240,1800,l),
(240,1680,l)
);
}
);
width = 600;
},
{
layerId = "0DA27741-1AFD-43F2-A947-40AFBF8D6498";
shapes = (
{
closed = 1;
nodes = (
(512,1648,l),
(512,1920,l),
(240,1920,l),
(240,1648,l)
);
}
);
width = 752;
},
{
associatedMasterId = "0DA27741-1AFD-43F2-A947-40AFBF8D6498";
layerId = "A2873047-0ED6-4C67-9B4D-3870B51BD5C6";
width = 1200;
},
{
associatedMasterId = "0DA27741-1AFD-43F2-A947-40AFBF8D6498";
layerId = "55314CA7-5524-4D70-B802-98D4FAE25636";
width = 600;
},
{
associatedMasterId = "0DA27741-1AFD-43F2-A947-40AFBF8D6498";
layerId = "13A3DD5D-E91B-4961-8595-F8141D3FA442";
width = 1104;
}
);
unicode = 775;
},
{
export = 0;
glyphname = gravecomb;
lastChange = "2020-03-29 14:56:51 +0000";
layers = (
{
layerId = "CAA188E2-8C62-414B-93AE-B576BEB044DB";
shapes = (
{
closed = 1;
nodes = (
(539,1620,l),
(443,1890,l),
(355,1890,l),
(451,1620,l)
);
}
);
width = 914;
},
{
layerId = "0DA27741-1AFD-43F2-A947-40AFBF8D6498";
shapes = (
{
closed = 1;
nodes = (
(688,1590,l),
(522,1980,l),
(320,1980,l),
(486,1590,l)
);
}
);
width = 1110;
},
{
associatedMasterId = "0DA27741-1AFD-43F2-A947-40AFBF8D6498";
layerId = "A2873047-0ED6-4C67-9B4D-3870B51BD5C6";
width = 1200;
},
{
associatedMasterId = "0DA27741-1AFD-43F2-A947-40AFBF8D6498";
layerId = "55314CA7-5524-4D70-B802-98D4FAE25636";
width = 1126;
},
{
associatedMasterId = "0DA27741-1AFD-43F2-A947-40AFBF8D6498";
layerId = "13A3DD5D-E91B-4961-8595-F8141D3FA442";
width = 1188;
}
);
unicode = 768;
},
{
export = 0;
glyphname = circumflexcomb;
lastChange = "2020-03-29 15:01:55 +0000";
layers = (
{
layerId = "CAA188E2-8C62-414B-93AE-B576BEB044DB";
shapes = (
{
closed = 1;
nodes = (
(340,1620,l),
(486,1790,l),
(632,1620,l),
(732,1620,l),
(532,1860,l),
(440,1860,l),
(240,1620,l)
);
}
);
width = 972;
},
{
layerId = "0DA27741-1AFD-43F2-A947-40AFBF8D6498";
shapes = (
{
closed = 1;
nodes = (
(446,1590,l),
(596,1770,l),
(746,1590,l),
(996,1590,l),
(708.308,1920,l),
(483.692,1920,l),
(196,1590,l)
);
}
);
width = 1200;
},
{
associatedMasterId = "0DA27741-1AFD-43F2-A947-40AFBF8D6498";
layerId = "A2873047-0ED6-4C67-9B4D-3870B51BD5C6";
width = 1200;
},
{
associatedMasterId = "0DA27741-1AFD-43F2-A947-40AFBF8D6498";
layerId = "55314CA7-5524-4D70-B802-98D4FAE25636";
width = 886;
},
{
associatedMasterId = "0DA27741-1AFD-43F2-A947-40AFBF8D6498";
layerId = "13A3DD5D-E91B-4961-8595-F8141D3FA442";
width = 1150;
}
);
unicode = 770;
},
{
export = 0;
glyphname = brevecomb;
lastChange = "2020-03-13 23:43:59 +0000";
layers = (
{
layerId = "CAA188E2-8C62-414B-93AE-B576BEB044DB";
shapes = (
{
closed = 1;
nodes = (
(594,1572,o),
(696,1674,o),
(696,1800,c),
(618,1800,l),
(618,1718,o),
(552,1650,o),
(468,1650,cs),
(386,1650,o),
(318,1718,o),
(318,1800,c),
(240,1800,l),
(240,1674,o),
(342,1572,o),
(468,1572,cs)
);
}
);
width = 936;
},
{
layerId = "0DA27741-1AFD-43F2-A947-40AFBF8D6498";
shapes = (
{
closed = 1;
nodes = (
(734,1560,o),
(876,1702,o),
(876,1878,c),
(666,1878,l),
(666,1818,o),
(618,1770,o),
(558,1770,cs),
(498,1770,o),
(450,1818,o),
(450,1878,c),
(240,1878,l),
(240,1702,o),
(382,1560,o),
(558,1560,cs)
);
}
);
width = 1116;
},
{
associatedMasterId = "0DA27741-1AFD-43F2-A947-40AFBF8D6498";
layerId = "A2873047-0ED6-4C67-9B4D-3870B51BD5C6";
width = 1200;
},
{
associatedMasterId = "0DA27741-1AFD-43F2-A947-40AFBF8D6498";
layerId = "55314CA7-5524-4D70-B802-98D4FAE25636";
width = 1500;
},
{
associatedMasterId = "0DA27741-1AFD-43F2-A947-40AFBF8D6498";
layerId = "13A3DD5D-E91B-4961-8595-F8141D3FA442";
width = 1248;
}
);
unicode = 774;
},
{
export = 0;
glyphname = ringcomb;
lastChange = "2020-03-29 05:40:26 +0000";
layers = (
{
layerId = "CAA188E2-8C62-414B-93AE-B576BEB044DB";
shapes = (
{
closed = 1;
nodes = (
(546,1560,o),
(632,1646,o),
(632,1754,cs),
(632,1860,o),
(546,1948,o),
(438,1948,cs),
(332,1948,o),
(244,1860,o),
(244,1754,cs),
(244,1646,o),
(332,1560,o),
(438,1560,cs)
);
},
{
closed = 1;
nodes = (
(378,1644,o),
(328,1694,o),
(328,1754,cs),
(328,1815,o),
(378,1864,o),
(438,1864,cs),
(500,1864,o),
(548,1815,o),
(548,1754,cs),
(548,1694,o),
(500,1644,o),
(438,1644,cs)
);
}
);
width = 876;
},
{
layerId = "0DA27741-1AFD-43F2-A947-40AFBF8D6498";
shapes = (
{
closed = 1;
nodes = (
(719,1550,o),
(840,1672,o),
(840,1820,cs),
(840,1969,o),
(719,2090,o),
(570,2090,cs),
(422,2090,o),
(300,1969,o),
(300,1820,cs),
(300,1672,o),
(422,1550,o),
(570,1550,cs)
);
},
{
closed = 1;
nodes = (
(510,1710,o),
(460,1760,o),
(460,1820,cs),
(460,1881,o),
(510,1930,o),
(570,1930,cs),
(631,1930,o),
(680,1881,o),
(680,1820,cs),
(680,1760,o),
(631,1710,o),
(570,1710,cs)
);
}
);
width = 1140;
},
{
associatedMasterId = "0DA27741-1AFD-43F2-A947-40AFBF8D6498";
layerId = "A2873047-0ED6-4C67-9B4D-3870B51BD5C6";
width = 1200;
},
{
associatedMasterId = "0DA27741-1AFD-43F2-A947-40AFBF8D6498";
layerId = "55314CA7-5524-4D70-B802-98D4FAE25636";
width = 826;
},
{
associatedMasterId = "0DA27741-1AFD-43F2-A947-40AFBF8D6498";
layerId = "13A3DD5D-E91B-4961-8595-F8141D3FA442";
width = 1140;
}
);
unicode = 778;
},
{
export = 0;
glyphname = tildecomb;
lastChange = "2020-03-14 01:52:02 +0000";
layers = (
{
hints = (
{
horizontal = 1;
origin = (0,19);
target = (0,6);
type = Stem;
},
{
horizontal = 1;
origin = (0,16);
target = (0,9);
type = Stem;
},
{
place = (240, 72);
place = (240, 72);
type = Stem;
},
{
place = (718, 72);
place = (718, 72);
type = Stem;
}
);
layerId = "CAA188E2-8C62-414B-93AE-B576BEB044DB";
shapes = (
{
closed = 1;
nodes = (
(750,1620,o),
(808,1700,o),
(784,1790,c),
(712,1790,l),
(728,1744,o),
(708,1700,o),
(658,1700,cs),
(578,1700,o),
(480,1796,o),
(374,1796,cs),
(282,1796,o),
(222,1722,o),
(246,1630,c),
(318,1630,l),
(304,1666,o),
(314,1716,o),
(372,1716,cs),
(452,1716,o),
(550,1620,o),
(654,1620,cs)
);
}
);
width = 1030;
},
{
hints = (
{
horizontal = 1;
origin = (0,19);
target = (0,6);
type = Stem;
},
{
horizontal = 1;
origin = (0,16);
target = (0,9);
type = Stem;
},
{
place = (240, 156);
place = (240, 156);
type = Stem;
},
{
place = (784, 156);
place = (784, 156);
type = Stem;
}
);
layerId = "0DA27741-1AFD-43F2-A947-40AFBF8D6498";
shapes = (
{
closed = 1;
nodes = (
(930,1596,o),
(986,1734,o),
(944,1908,c),
(776,1908,l),
(794,1840,o),
(776,1790,o),
(736,1790,cs),
(658,1790,o),
(548,1938,o),
(418,1938,cs),
(250,1938,o),
(194,1800,o),
(236,1626,c),
(404,1626,l),
(386,1694,o),
(404,1744,o),
(444,1744,cs),
(522,1744,o),
(632,1596,o),
(762,1596,cs)
);
}
);
width = 1180;
},
{
associatedMasterId = "0DA27741-1AFD-43F2-A947-40AFBF8D6498";
layerId = "A2873047-0ED6-4C67-9B4D-3870B51BD5C6";
width = 1200;
},
{
associatedMasterId = "0DA27741-1AFD-43F2-A947-40AFBF8D6498";
layerId = "55314CA7-5524-4D70-B802-98D4FAE25636";
width = 1156;
},
{
associatedMasterId = "0DA27741-1AFD-43F2-A947-40AFBF8D6498";
layerId = "13A3DD5D-E91B-4961-8595-F8141D3FA442";
width = 1192;
}
);
unicode = 771;
},
{
export = 0;
glyphname = macroncomb;
lastChange = "2020-02-20 18:21:12 +0000";
layers = (
{
layerId = "CAA188E2-8C62-414B-93AE-B576BEB044DB";
shapes = (
{
closed = 1;
nodes = (
(720,1680,l),
(720,1764,l),
(240,1764,l),
(240,1680,l)
);
}
);
width = 960;
},
{
layerId = "0DA27741-1AFD-43F2-A947-40AFBF8D6498";
shapes = (
{
closed = 1;
nodes = (
(784,1680,l),
(784,1888,l),
(240,1888,l),
(240,1680,l)
);
}
);
width = 1024;
},
{
associatedMasterId = "0DA27741-1AFD-43F2-A947-40AFBF8D6498";
layerId = "A2873047-0ED6-4C67-9B4D-3870B51BD5C6";
width = 1200;
},
{
associatedMasterId = "0DA27741-1AFD-43F2-A947-40AFBF8D6498";
layerId = "55314CA7-5524-4D70-B802-98D4FAE25636";
width = 900;
},
{
associatedMasterId = "0DA27741-1AFD-43F2-A947-40AFBF8D6498";
layerId = "13A3DD5D-E91B-4961-8595-F8141D3FA442";
width = 1152;
}
);
unicode = 772;
},
{
export = 0;
glyphname = hookabovecomb;
lastChange = "2020-03-10 04:28:39 +0000";
layers = (
{
layerId = "CAA188E2-8C62-414B-93AE-B576BEB044DB";
shapes = (
{
closed = 1;
nodes = (
(530,1498,o),
(595,1513,o),
(629,1460,cs),
(661,1410,o),
(638,1340,o),
(553,1294,c),
(605,1246,l),
(702,1299,o),
(752,1420,o),
(685,1508,cs),
(615,1599,o),
(505,1571,o),
(445,1500,c),
(483,1451,l)
);
}
);
width = 811;
},
{
layerId = "0DA27741-1AFD-43F2-A947-40AFBF8D6498";
shapes = (
{
closed = 1;
nodes = (
(552,1569,o),
(637,1594,o),
(671,1519,cs),
(707,1440,o),
(639,1387,o),
(567,1369,c),
(609,1260,l),
(745,1270,o),
(906,1397,o),
(833,1591,cs),
(766,1768,o),
(555,1772,o),
(431,1667,c),
(498,1534,l)
);
}
);
width = 882;
}
);
unicode = 777;
},
{
export = 0;
glyphname = horncomb;
lastChange = "2020-03-05 05:27:27 +0000";
layers = (
{
layerId = "CAA188E2-8C62-414B-93AE-B576BEB044DB";
shapes = (
{
closed = 1;
nodes = (
(416,1187,o),
(421,1107,o),
(338,1087,cs),
(305,1079,o),
(271,1081,o),
(242,1080,c),
(242,1010,l),
(319,998,o),
(381,998,o),
(431,1036,cs),
(502,1089,o),
(505,1175,o),
(491,1260,c),
(407,1260,l)
);
}
);
width = 883;
},
{
layerId = "0DA27741-1AFD-43F2-A947-40AFBF8D6498";
shapes = (
{
closed = 1;
nodes = (
(558,1180,o),
(545,1101,o),
(440,1084,cs),
(415,1080,o),
(389,1080,o),
(360,1080,c),
(360,936,l),
(445,927,o),
(565,918,o),
(652,966,cs),
(737,1013,o),
(780,1103,o),
(760,1260,c),
(558,1259,l)
);
}
);
width = 1035;
}
);
unicode = 795;
},
